<svg width="992" height="275" fill="none" xmlns="http://www.w3.org/2000/svg"><path d="M743.896 207.576v-27.44L884.232.6h42.336l-139.16 179.536-19.992-6.272h219.128v33.712H743.896zM896.384 275v-67.424l1.176-33.712V114.28h36.848V275h-38.024zM14.896 207.576v-27.44L155.232.6h42.336L58.408 180.136l-19.992-6.272h219.128v33.712H14.896zM167.384 275v-67.424l1.176-33.712V114.28h36.848V275h-38.024zm216.254-8c-3.422 0-6.289-1.159-8.6-3.478s-3.466-5.192-3.466-8.619v-16.13h-4.334c-11.246 0-20.763-3.903-28.553-11.709-7.79-7.806-11.685-17.344-11.685-28.613v-80.648c0-11.89 4.05-21.583 12.149-29.08 8.099-7.495 17.462-11.243 28.089-11.243V48.323c0-11.27 3.895-20.808 11.684-28.614C386.712 11.903 396.229 8 407.475 8h177.049c11.246 0 20.764 3.903 28.553 11.71 7.79 7.805 11.685 17.343 11.685 28.613V77.48c11.04 0 20.506 3.825 28.399 11.476C661.054 96.607 665 106.223 665 117.803v80.648c0 11.269-3.895 20.807-11.684 28.613-7.79 7.806-17.308 11.709-28.554 11.709h-4.333v16.13c0 3.427-1.104 6.3-3.312 8.619-2.208 2.319-5.023 3.478-8.445 3.478-3.421 0-6.289-1.159-8.604-3.478-2.315-2.319-3.472-5.192-3.472-8.619v-16.13H395.714v16.13c0 3.433-1.157 6.307-3.472 8.623-2.315 2.316-5.183 3.474-8.604 3.474zm-16.4-52.42h257.524c4.561 0 8.383-1.546 11.468-4.637 3.085-3.092 4.628-6.922 4.628-11.492v-80.648c0-4.57-1.543-8.401-4.628-11.492-3.085-3.092-6.907-4.637-11.468-4.637-4.56 0-8.383 1.545-11.468 4.637-3.085 3.091-4.627 6.922-4.627 11.492v60.485H383.333v-60.485c0-4.57-1.542-8.401-4.627-11.492-3.085-3.092-6.908-4.637-11.468-4.637s-8.383 1.545-11.468 4.637c-3.085 3.091-4.627 6.922-4.627 11.492v80.648c0 4.57 1.542 8.4 4.627 11.492 3.085 3.091 6.908 4.637 11.468 4.637zm40.238-60.485h177.049v-36.292c0-6.535 1.475-12.5 4.426-17.897 2.95-5.397 6.84-9.916 11.669-13.555V48.323c0-4.57-1.543-8.4-4.628-11.492-3.085-3.092-6.907-4.638-11.467-4.638H407.476c-4.56 0-8.383 1.546-11.468 4.638-3.085 3.091-4.627 6.922-4.627 11.492V86.35c4.828 3.64 8.718 8.158 11.669 13.555 2.95 5.397 4.426 11.362 4.426 17.897v36.292z" fill="#fff"/></svg>