<svg width="36" height="36" fill="none" xmlns="http://www.w3.org/2000/svg"><path d="M21.37 18.77l-3.92 3.919a.637.637 0 00-.2.511.777.777 0 00.238.512.73.73 0 00.538.219.689.689 0 00.524-.22l4.738-4.738A1.33 1.33 0 0023.7 18a1.33 1.33 0 00-.412-.973l-4.776-4.777a.7.7 0 00-.512-.22.7.7 0 00-.512.22.73.73 0 00-.219.537c0 .212.073.387.22.525l3.88 3.919H12a.75.75 0 00-.555.215.752.752 0 00-.214.555.75.75 0 00.214.555.752.752 0 00.555.213h9.37zM18.006 36c-2.482 0-4.812-.472-6.99-1.417a18.34 18.34 0 01-5.724-3.871 18.32 18.32 0 01-3.875-5.719C.473 22.817 0 20.488 0 18.007c0-2.49.472-4.83 1.417-7.02.945-2.192 2.235-4.098 3.871-5.72a18.538 18.538 0 015.719-3.849C13.183.473 15.512 0 17.993 0c2.49 0 4.83.472 7.02 1.417 2.192.945 4.098 2.227 5.719 3.846 1.621 1.62 2.904 3.524 3.85 5.713.945 2.19 1.418 4.528 1.418 7.017 0 2.482-.472 4.812-1.417 6.99a18.557 18.557 0 01-3.846 5.724c-1.62 1.638-3.524 2.93-5.713 3.875-2.19.945-4.528 1.418-7.017 1.418zM18 34.462c4.58 0 8.468-1.601 11.665-4.802 3.198-3.202 4.797-7.088 4.797-11.66 0-4.58-1.6-8.468-4.797-11.665C26.468 3.137 22.58 1.538 18 1.538c-4.572 0-8.458 1.6-11.66 4.797C3.14 9.532 1.538 13.42 1.538 18c0 4.572 1.601 8.458 4.802 11.66 3.202 3.2 7.088 4.802 11.66 4.802z" fill="#fff"/></svg>