<svg width="286" height="286" fill="none" xmlns="http://www.w3.org/2000/svg"><path d="M46.786 63.845l1.532 1.11-8.537 11.873-16.748-12.064 8.268-11.51 1.532 1.112-7.025 9.728 5.972 4.29 6.259-8.676 1.493 1.092-6.22 8.675 6.22 4.48 7.254-10.11zm4.058-30.795l7.79 21.219-1.57 1.494-20.92-8.503 1.684-1.647 18.184 7.411-6.776-18.441 1.608-1.532zm24.634-4.592l1.741-1.15 4.345 6.588a10.13 10.13 0 01-1.78 3.505 12.633 12.633 0 01-3.1 2.853 11.25 11.25 0 01-5.398 1.915 9.967 9.967 0 01-5.321-.996 10.912 10.912 0 01-5.934-9 10.02 10.02 0 011.187-5.286 11.678 11.678 0 013.943-4.232 12.245 12.245 0 014.038-1.761 8.627 8.627 0 014.02 0l-.364 1.915a8.475 8.475 0 00-6.527 1.417 9.362 9.362 0 00-3.177 3.428 8.084 8.084 0 00-.957 4.308 8.35 8.35 0 001.455 4.29 8.346 8.346 0 007.656 3.83 9.128 9.128 0 004.383-1.551 8.981 8.981 0 003.637-4.31l-3.847-5.763zm27.446-3.466l.709 1.742-13.475 5.592-7.925-19.092 13.112-5.42.708 1.743-11.044 4.577 2.814 6.798 9.857-4.098.727 1.724-9.895 4.078 2.947 7.086 11.465-4.73zM123.194.994l4.077 20.26-1.78.345-16.289-13.845 3.292 16.45-2.163.421-4.039-20.28 1.761-.344L124.4 17.827l-3.293-16.45 2.087-.383zm11.867-.898L137.262 0l.957 20.643-2.201.096-.957-20.643zm25.341 16.047l-11.484-1.073-2.986 5.267-2.259-.21L155.1.42l2.144.191 7.484 21.467-2.297-.21-2.029-5.726zm-.631-1.915l-3.829-11.49-5.971 10.647 9.8.843zm34.605 15.283l-.631 1.762-15.906-5.917.536-1.417 18.834-11.414-12.652-4.71.67-1.762 15.332 5.706-.498 1.418-18.853 11.432 13.168 4.902zm18.873 6.469l-9.896-5.897-4.957 3.466-1.915-1.168 18.701-12.907 1.914 1.11-2.469 22.597-1.914-1.187.536-6.013zm.229-1.914l1.436-12.084-9.953 6.99 8.517 5.094zm23.14 16.661a5.054 5.054 0 01-1.435 3.256 4.734 4.734 0 01-4.192 1.724 9.968 9.968 0 01-5.283-2.816l-7.082-6.357 13.8-15.32 6.642 5.879a8.905 8.905 0 013.063 4.615 4.584 4.584 0 01-1.206 4.194 5.11 5.11 0 01-2.565 1.608 4.934 4.934 0 01-2.909-.21 5.522 5.522 0 011.167 3.408m-5.972 2.911a3.313 3.313 0 003.025-1.245c1.722-1.915 1.186-4.136-1.589-6.625l-5.417-4.826-5.187 5.745 5.417 4.864a7.656 7.656 0 003.828 2.087m2.22-19.667l-5.015 5.592 4.9 4.405a6.72 6.72 0 003.522 1.915 3.178 3.178 0 002.871-1.169 3.27 3.27 0 00.862-2.987 6.667 6.667 0 00-2.24-3.294l-4.9-4.462zm6.106 31.29a10.114 10.114 0 01.727-5.382 10.338 10.338 0 013.484-4.308 10.64 10.64 0 015.187-2.069 9.949 9.949 0 015.34.9 11.339 11.339 0 014.403 3.658 11.213 11.213 0 012.182 5.266c.25 1.82-.002 3.675-.728 5.362a10.93 10.93 0 01-8.67 6.396 10.086 10.086 0 01-5.341-.9 11.855 11.855 0 01-6.546-8.924m7.274 7.048a7.937 7.937 0 004.306.67 9.189 9.189 0 007.025-5.228 7.941 7.941 0 00.632-4.309 9.585 9.585 0 00-5.264-7.18 8.016 8.016 0 00-4.326-.69 8.651 8.651 0 00-4.211 1.685 8.43 8.43 0 00-2.852 3.523 8.045 8.045 0 00-.612 4.348 9.44 9.44 0 005.263 7.142m23.217 4.099l.919 1.972-16.92 8.12 4.996 10.436-1.723.824-5.915-12.41 18.643-8.942zm-8.823 29.202a10.005 10.005 0 012.642-4.73 11.004 11.004 0 0110.374-2.776 9.936 9.936 0 014.632 2.795 11.975 11.975 0 012.871 10.724 10.284 10.284 0 01-2.641 4.73 10.956 10.956 0 01-10.413 2.777 10.127 10.127 0 01-4.632-2.777 11.202 11.202 0 01-2.737-4.998 11.49 11.49 0 01-.096-5.745zm4.192 9.231a7.97 7.97 0 003.828 2.202 8.826 8.826 0 004.518 0 8.65 8.65 0 003.904-2.26 7.867 7.867 0 002.163-3.83 9.421 9.421 0 00-2.297-8.56 8.183 8.183 0 00-3.828-2.24 8.486 8.486 0 00-4.536 0 8.83 8.83 0 00-3.943 2.221 8.183 8.183 0 00-2.163 3.83 9.054 9.054 0 000 4.577 9.466 9.466 0 002.239 4.002m18.585 16.067l-.536-7.238 1.856-.154L286 140.06l-1.895.153-.555-7.239-18.72 1.456-.172-2.183 18.72-1.456zm-17.705 17.365a8.168 8.168 0 012.202-3.102l1.607.996a8.157 8.157 0 00-2.048 2.834 10.814 10.814 0 00-.995 3.83 6.92 6.92 0 00.689 4.232 3.083 3.083 0 002.527 1.589 2.676 2.676 0 002.029-.593c.55-.48.987-1.075 1.282-1.743.423-.969.794-1.96 1.11-2.968a32.21 32.21 0 011.436-3.62 6.03 6.03 0 011.914-2.24 4.494 4.494 0 013.101-.747 5.15 5.15 0 012.775 1.053 5.745 5.745 0 011.914 2.7c.44 1.391.584 2.859.421 4.309a12.49 12.49 0 01-.766 3.428 9.856 9.856 0 01-1.569 2.815l-1.684-.881a10.463 10.463 0 002.143-5.515 6.535 6.535 0 00-.727-4.156 3.272 3.272 0 00-2.584-1.589 2.738 2.738 0 00-2.048.594 4.902 4.902 0 00-1.302 1.8c-.325.727-.689 1.723-1.11 2.968a31.453 31.453 0 01-1.397 3.581 6.16 6.16 0 01-1.914 2.24 4.266 4.266 0 01-3.063.728 5.027 5.027 0 01-2.775-1.072 5.629 5.629 0 01-1.818-2.739 10.615 10.615 0 01-.402-4.328c.118-1.514.474-3 1.052-4.404zm5.092 27.311l-3.101-5.17-5.264-1.36.575-2.125 19.982 5.208-.535 2.107-12.078-3.141 9.034 14.899-.651 2.432-6.795-11.011-13.36 6.415.651-2.509 11.542-5.745zm-14.528 26.673l4.861-10.436-3.962-4.577.957-2.068 14.739 17.234-.919 1.915-22.72-.172.976-2.087 6.068.191zm1.914 0l12.154.192-7.963-9.192-4.191 9zm-9.532 15.36l-5.857-4.079 1.225-1.762 5.876 4.079 15.811.919-1.359 1.915-13.552-.804 5.474 12.447-1.225 1.8-6.393-14.515zm-18.547 18.957l8.078-8.215-2.201-5.63 1.588-1.628 8.116 21.238-1.512 1.532-21.361-7.66 1.608-1.647 5.684 2.01zm1.819.671l11.484 4.251-4.498-11.318-6.986 7.067zm-13.226 2.107a1.56 1.56 0 011.072.631 1.479 1.479 0 01.325 1.187 1.471 1.471 0 01-.593 1.034 1.592 1.592 0 01-2.247-.291 1.602 1.602 0 01-.318-1.202 1.475 1.475 0 01.594-1.053 1.558 1.558 0 011.167-.306zm-7.388 29.183l-1.952 1.034-9.743-18.212 1.914-1.034 9.781 18.212zm-29.075 12.178l-6.852-19.494 1.704-.594 18.068 11.413-5.57-15.817 2.068-.728 6.852 19.494-1.704.594-18.126-11.413 5.589 15.818-2.029.727zm-16.632 1.514l7.177-1.111.307 1.877-16.538 2.547-.268-1.877 7.178-1.111-2.871-18.556 2.143-.325 2.872 18.556zm-32.423-15.207l.038-1.896 14.605.191-.307 20.663-14.145-.192v-1.895l11.982.153.096-7.354-10.68-.153.038-1.857 10.68.153.077-7.679-12.384-.134zm-20.977-5.476l3.33 7.373c.536 0 1.072.134 1.646.23l5.436 1.091 1.282-6.434 2.144.421-4.058 20.261-7.656-1.513a9.267 9.267 0 01-5.742-3.064 6.45 6.45 0 01-1.187-5.534 6.71 6.71 0 011.914-3.83 6.62 6.62 0 013.828-1.666l-3.56-7.948 2.623.613zm-.211 9.92a5.327 5.327 0 00-1.493 7.507 7.177 7.177 0 004.345 2.24l5.398 1.111 2.029-10.169-5.379-1.072a7.29 7.29 0 00-4.881.421m-10.884-13.555l-6.853 19.492 2.058.725 6.853-19.492-2.058-.725zm-12.027-3.679a10.073 10.073 0 011.647 5.17 10.632 10.632 0 01-1.321 5.4 10.357 10.357 0 01-3.828 4.06 10.08 10.08 0 01-5.226 1.455 11.953 11.953 0 01-9.742-5.266 10.094 10.094 0 01-1.627-5.151c-.07-1.894.388-3.77 1.32-5.419a10.398 10.398 0 013.829-4.06 10.143 10.143 0 015.206-1.475 12.004 12.004 0 019.762 5.286m-9.57-3.275a8.097 8.097 0 00-4.193 1.226 9.147 9.147 0 00-4.153 7.659 8.082 8.082 0 001.263 4.175 9.404 9.404 0 007.81 4.213 8.146 8.146 0 004.21-1.206 8.585 8.585 0 003.082-3.313 8.701 8.701 0 001.091-4.405 8.01 8.01 0 00-1.301-4.194 8.938 8.938 0 00-3.484-3.025 9.055 9.055 0 00-4.421-1.13m-20.462-18.862l-.689 8.062c.44.306.88.632 1.32.996l4.25 3.581 4.23-5.018 1.665 1.418-13.398 15.798-5.915-4.998a9.385 9.385 0 01-3.522-5.439 6.453 6.453 0 011.627-5.419 6.772 6.772 0 013.58-2.336 6.851 6.851 0 014.23.421l.708-8.579 1.914 1.513zm-4.957 8.598a5.32 5.32 0 00-4.939 5.841 7.184 7.184 0 002.718 4.06l4.192 3.542 6.68-7.928-4.192-3.542a7.21 7.21 0 00-4.46-1.915m-25.437-11.606l-4.651-7.008a12.301 12.301 0 01-2.106-5.554 9.577 9.577 0 01.9-5.266 11.005 11.005 0 018.92-5.917 9.567 9.567 0 015.206 1.225 12.457 12.457 0 014.287 4.098l4.651 7.009-17.207 11.413zm11.063-17.234a10.128 10.128 0 00-3.522-3.371 7.65 7.65 0 00-4.23-.976 9.12 9.12 0 00-7.369 4.787 7.78 7.78 0 00-.747 4.29 10.09 10.09 0 001.723 4.557l3.369 5.094 14.068-9.326-3.292-5.055zm-14.756-29.567l1.742-.708 5.513 13.539-19.122 7.813-5.379-13.118 1.761-.708 4.518 11.106 6.814-2.776-4.039-9.901 1.742-.708 4.02 9.9 7.12-2.891-4.69-11.548zm-1.014-8.867a8.163 8.163 0 01-1.264 3.601l-1.818-.479a8.18 8.18 0 001.148-3.294 11.19 11.19 0 00-.134-3.83 7.05 7.05 0 00-1.914-3.83 3.116 3.116 0 00-2.87-.785 2.68 2.68 0 00-1.78 1.149 5.134 5.134 0 00-.728 2.049c-.096.766-.172 1.915-.21 3.16a29.61 29.61 0 01-.326 3.83 6.282 6.282 0 01-.938 2.623 4.42 4.42 0 01-2.756 1.609 5.218 5.218 0 01-2.986-.192 5.739 5.739 0 01-2.623-2.125 10.181 10.181 0 01-1.646-3.83 12.649 12.649 0 01-.268-3.505c.056-1.11.295-2.204.709-3.236l1.914.345a10.223 10.223 0 00-.67 2.987c-.073.974-.009 1.954.191 2.911a6.685 6.685 0 001.914 3.83 3.253 3.253 0 002.929.766 2.634 2.634 0 001.78-1.168 5.018 5.018 0 00.727-2.088c.118-1.055.182-2.116.192-3.179.011-1.282.113-2.562.306-3.83a6.155 6.155 0 011.11-2.681 4.44 4.44 0 012.718-1.589 5.047 5.047 0 012.967.211 5.743 5.743 0 012.546 2.087 10.784 10.784 0 011.646 4.022c.322 1.483.4 3.01.23 4.519M.601 156.142l-.172-2.182 20.576-1.742.191 2.182-20.595 1.742zm10.393-28.053l.115-2.087 7.867.498a10.015 10.015 0 011.722 3.542c.373 1.365.515 2.782.421 4.194a11.494 11.494 0 01-1.703 5.496 10.075 10.075 0 01-4 3.658 10.31 10.31 0 01-5.456 1.072 10.354 10.354 0 01-5.282-1.762 9.935 9.935 0 01-3.503-4.117 11.494 11.494 0 01-.995-5.745 12.26 12.26 0 011.014-4.289 8.61 8.61 0 012.43-3.198l1.302 1.436a8.518 8.518 0 00-2.794 6.051 9.424 9.424 0 00.823 4.596 8 8 0 002.871 3.351 8.53 8.53 0 004.307 1.417 8.398 8.398 0 004.421-.88 8.237 8.237 0 003.254-2.969 9.08 9.08 0 001.397-4.442 8.964 8.964 0 00-1.263-5.496l-6.948-.326zM7.453 96.493l19.906 5.477-.478 1.743-19.696 8.368 16.193 4.443-.593 2.106-19.907-5.496.479-1.742 19.696-8.388L6.86 98.561l.593-2.068zm22.643-1.665a1.647 1.647 0 01-1.77-.348 1.493 1.493 0 01-.335-.533 1.589 1.589 0 01.88-2.048 1.513 1.513 0 011.225 0 1.474 1.474 0 01.862.9 1.589 1.589 0 010 1.225 1.283 1.283 0 01-.843.823" fill="#44423D"/><path d="M123.672 196.033h24.25c14.068 0 29.993-24.665 31.85-29.318.153-.479.995-.479.995-.479l-9.187 33.971h-71.451c5.015-35.886 42.76-63.92 54.818-108.136h-22.528c-16.212 1.647-28.557 22.156-29.438 24.703-.153.478-1.148.478-1.148.478l6.45-29.164h69.039c-10.164 45.499-46.607 72.576-53.593 107.983" fill="#B2B1B1"/><path d="M102.56 95.094a19.303 19.303 0 0110.699-12.562 31.164 31.164 0 0115.867-2.891c7.331.402 14.049 2.585 19.313 8.502.44.498 1.014.785 1.435.172a1.528 1.528 0 00-.134-1.436 40.062 40.062 0 00-5.11-4.462 31.303 31.303 0 00-19.14-4.73 30.06 30.06 0 00-15.81 4.711 20.594 20.594 0 00-8.824 22.71 17.374 17.374 0 002.45 5.631c.268-1.206.632-2.757.632-2.757s-2.622-8.35-1.359-12.888m78.188-14.476a3.83 3.83 0 00-2.843-3.974 3.827 3.827 0 00-1.75-.047c-1.197.106-2.375.37-3.503.785A33.926 33.926 0 00154.373 94.1a25.04 25.04 0 00-2.029 20.509c.345.977-.306 1.111-.804 1.379a45.79 45.79 0 01-17.398 5.228 36.358 36.358 0 01-21.15-3.83c-.249-.153-.536-.287-.957-.574a42.437 42.437 0 01-3.943-2.796 9.09 9.09 0 01-2.22-2.241c-.287.422-.938 1.456-.938 1.456a15.617 15.617 0 002.699 2.834 19.621 19.621 0 004.574 3.083l.345.287a33.542 33.542 0 0014.144 3.83 47.128 47.128 0 0025.648-5.515c.842-.441 1.244-.345 1.78.517.804 1.302 1.914 2.432 2.737 3.657l.575.747c-2.259.67-4.384 1.245-6.489 1.915a47.283 47.283 0 00-17.533 9.739 47.325 47.325 0 00-11.924 16.132c-4.842 10.302-6.507 21.064-3.215 32.343 2.507 8.56 8.632 14.937 17.647 15.856a33.24 33.24 0 0013.953-1.57c1.225-.402 2.431-.939 3.637-1.398a21.39 21.39 0 002.852-1.283 23.349 23.349 0 007.235-5.745 49.613 49.613 0 0013.781-24.894 30.651 30.651 0 00.114-15.128c-1.244-4.5-4.287-8.024-9.57-7.813a29.428 29.428 0 00-19.14 7.334 31.925 31.925 0 00-11.484 28.054 14.04 14.04 0 004.268 9.153 8.797 8.797 0 002.259 1.513c.306.153.823-.211 1.263-.345a9.664 9.664 0 00-.517-1.302c0-.172-.382-.23-.574-.345a7.65 7.65 0 01-3.445-4.844 17.349 17.349 0 01.249-8.579 47.591 47.591 0 0111.809-21.39 21.374 21.374 0 0115.025-7.373 6.857 6.857 0 016.986 3.83 19.15 19.15 0 011.704 5.554 31.572 31.572 0 01-1.053 12.753 47.481 47.481 0 01-14.183 23.764c-.555.498-1.167.958-1.914 1.59a25.017 25.017 0 01-9.991 5.247h-.344a29.93 29.93 0 01-15.523.785 15.32 15.32 0 01-11.848-12.217 33.847 33.847 0 01.192-15.32 69.343 69.343 0 0118.068-34.124 32.86 32.86 0 0115.771-9.383c2.202-.536 4.326-1.111 6.087 1.015.137.145.284.279.44.402a13.15 13.15 0 008.518 2.413 2.276 2.276 0 002.397-2.109 2.279 2.279 0 00-.215-1.147 3.644 3.644 0 00-1.302-1.742 7.646 7.646 0 00-3.043-1.398 55.446 55.446 0 00-7.14-.268 2.374 2.374 0 01-2.392-1.149c-.804-1.436-1.55-2.911-2.335-4.385-.46-.862-.23-1.379.574-1.915a61.516 61.516 0 0018.623-19.418c.176-.264.324-.547.441-.842.229-.383.593-.996.995-1.762a39.395 39.395 0 002.507-5.994c.211-.67.479-1.608.766-2.68v-.211a.554.554 0 000-.173c.181-1.069.258-2.152.23-3.236m-11.638 44.178c.426.131.827.331 1.187.593.364.364.842.804.651 1.283-.192.479-.823.345-1.225.345a10.504 10.504 0 01-7.12-2.662 12.908 12.908 0 016.507.441zm5.742-31.31a61.05 61.05 0 01-19.14 20.107 42.33 42.33 0 01-.115-4.289 38.102 38.102 0 013.618-13.405 39.327 39.327 0 019.953-14.094 13.184 13.184 0 016.89-3.217c1.914-.23 2.89.69 2.91 2.681a12 12 0 01-.154 2.183 22.347 22.347 0 01-.803 2.987 46.747 46.747 0 01-3.178 7.067" fill="#44423D"/></svg>