<svg width="29" height="38" fill="none" xmlns="http://www.w3.org/2000/svg"><path d="M11.712 38c-3.248 0-6.005-1.14-8.272-3.42-2.267-2.28-3.4-5.044-3.4-8.292V8.308c0-2.308.801-4.27 2.404-5.885C4.046.808 6.002 0 8.309 0c2.308 0 4.263.808 5.866 2.423C15.777 4.038 16.578 6 16.578 8.308V21.5c0 .425-.143.781-.431 1.069a1.452 1.452 0 01-1.07.431 1.45 1.45 0 01-1.068-.431 1.452 1.452 0 01-.43-1.069V8.288c-.021-1.476-.534-2.727-1.54-3.752C11.035 3.513 9.792 3 8.31 3c-1.475 0-2.722.515-3.741 1.546-1.02 1.03-1.529 2.285-1.529 3.762v17.98c-.02 2.418.815 4.475 2.508 6.17C7.24 34.153 9.295 35 11.713 35c.567 0 1.113-.058 1.639-.175a11.247 11.247 0 001.507-.444 1.52 1.52 0 011.162.016c.383.159.65.434.803.826a1.5 1.5 0 01-.025 1.165 1.426 1.426 0 01-.836.8c-.661.267-1.348.469-2.06.606a11.56 11.56 0 01-2.191.206zm10.135-2a1.45 1.45 0 01-1.069-.431 1.453 1.453 0 01-.43-1.07v-4.115h-4.116a1.45 1.45 0 01-1.068-.43 1.452 1.452 0 01-.432-1.07c0-.425.144-.782.432-1.069a1.45 1.45 0 011.068-.43h4.116v-4.116c0-.425.143-.781.431-1.068a1.452 1.452 0 011.07-.432c.424 0 .78.144 1.068.432.287.287.43.643.43 1.068v4.116h4.116c.425 0 .781.143 1.069.431.287.288.43.644.43 1.07 0 .424-.143.78-.43 1.068-.288.287-.644.43-1.069.43h-4.115V34.5c0 .425-.144.781-.432 1.069a1.452 1.452 0 01-1.07.43zM8.309 28.885a1.45 1.45 0 01-1.069-.432 1.452 1.452 0 01-.43-1.068V9.269c0-.425.143-.781.43-1.069a1.452 1.452 0 011.07-.43c.425 0 .781.143 1.068.43.288.288.431.644.431 1.07v18.115c0 .425-.144.78-.431 1.068a1.452 1.452 0 01-1.07.432zm13.538-11.5a1.45 1.45 0 01-1.069-.432 1.453 1.453 0 01-.43-1.068V9.269c0-.425.143-.781.431-1.069a1.452 1.452 0 011.07-.43c.424 0 .78.143 1.068.43.287.288.43.644.43 1.07v6.615c0 .425-.143.78-.43 1.068a1.452 1.452 0 01-1.07.432z" fill="#1C1B1F"/></svg>