<svg width="56" height="56" fill="none" xmlns="http://www.w3.org/2000/svg"><path d="M9.138 12.507l.3.217-1.672 2.326-3.281-2.363 1.62-2.255.3.218-1.376 1.906 1.17.84 1.226-1.7.292.214-1.219 1.7 1.219.878 1.421-1.981zm.795-6.032l1.526 4.156-.307.293-4.098-1.666.33-.322 3.562 1.451-1.328-3.612.315-.3zm4.827-.9l.34-.225.851 1.29c-.07.25-.188.483-.348.687-.17.219-.375.407-.608.558a2.204 2.204 0 01-1.057.376 1.953 1.953 0 01-1.042-.195 2.138 2.138 0 01-1.163-1.764c-.019-.36.062-.718.233-1.035.184-.337.45-.622.772-.829.24-.162.509-.279.791-.345a1.69 1.69 0 01.788 0l-.072.375a1.66 1.66 0 00-1.278.278 1.833 1.833 0 00-.623.671 1.632 1.632 0 00.098 1.684 1.635 1.635 0 001.5.75c.307-.025.603-.13.858-.303.322-.198.572-.494.713-.844l-.754-1.13zm5.376-.68l.139.342-2.64 1.095-1.553-3.74 2.569-1.061.139.34-2.164.897.551 1.332 1.931-.803.143.338-1.939.8.578 1.387 2.246-.927zm3.97-4.7l.799 3.969-.349.068-3.19-2.713.644 3.223-.423.082-.792-3.972.345-.068 3.203 2.709L23.698.27l.408-.075zm2.325-.176L26.862 0l.188 4.044-.431.019L26.43.019zm4.964 3.143l-2.25-.21-.584 1.032-.443-.041 2.239-3.86.42.037 1.466 4.205-.45-.041-.398-1.122zm-.123-.375l-.75-2.25-1.17 2.085 1.92.165zm6.779 2.993l-.124.346-3.115-1.16.105-.277 3.69-2.236-2.48-.923.132-.345 3.003 1.118-.097.278-3.694 2.24 2.58.96zm3.697 1.269L39.81 5.893l-.972.68-.375-.23 3.664-2.528.375.218-.484 4.426-.375-.232.105-1.178zm.045-.376l.281-2.367-1.95 1.37 1.669.997zm4.533 3.264a.99.99 0 01-.28.638.925.925 0 01-.822.338 1.953 1.953 0 01-1.035-.552l-1.387-1.245 2.703-3.001 1.301 1.151c.291.23.501.547.6.904a.898.898 0 01-.236.822 1.001 1.001 0 01-.503.315.967.967 0 01-.57-.041c.15.19.23.426.23.668m-1.17.57a.65.65 0 00.592-.244c.337-.375.232-.81-.311-1.298l-1.061-.945-1.017 1.125 1.062.953a1.5 1.5 0 00.75.409m.434-3.853l-.982 1.096.96.862c.186.193.427.324.69.376a.622.622 0 00.562-.23.642.642 0 00.169-.585 1.306 1.306 0 00-.439-.645l-.96-.874zm1.196 6.129c-.05-.357 0-.721.143-1.053.146-.338.382-.63.682-.844a2.084 2.084 0 011.016-.405c.359-.04.72.021 1.047.176.343.161.64.408.862.716.229.302.376.657.427 1.032.05.357 0 .72-.142 1.05a2.143 2.143 0 01-1.699 1.253 1.974 1.974 0 01-1.046-.176 2.32 2.32 0 01-1.282-1.748m1.425 1.38c.263.122.555.168.843.132a1.799 1.799 0 001.376-1.024c.12-.265.163-.557.124-.845a1.878 1.878 0 00-1.031-1.406 1.57 1.57 0 00-.847-.135c-.3.034-.585.148-.825.33a1.65 1.65 0 00-.559.69c-.118.267-.16.562-.12.852a1.848 1.848 0 001.031 1.399m4.548.803l.18.386-3.314 1.59.978 2.045-.337.161-1.159-2.43 3.652-1.752zm-1.728 5.72c.084-.35.263-.671.517-.926a2.155 2.155 0 012.032-.544c.348.095.662.284.908.547a2.345 2.345 0 01.562 2.101 2.01 2.01 0 01-.517.927 2.148 2.148 0 01-2.04.544 1.984 1.984 0 01-.907-.544 2.196 2.196 0 01-.536-.98 2.251 2.251 0 01-.02-1.125zm.82 1.808c.205.212.465.362.75.432a1.7 1.7 0 001.651-.443c.21-.204.356-.465.423-.75a1.847 1.847 0 00-.45-1.677 1.605 1.605 0 00-.75-.439c-.29-.08-.597-.08-.888 0a1.746 1.746 0 00-.773.435 1.602 1.602 0 00-.423.75 1.775 1.775 0 00.438 1.681m3.641 3.148l-.105-1.418.364-.03.255 3.263-.371.03-.109-1.418-3.667.285-.034-.427 3.667-.285zm-3.468 3.402a1.6 1.6 0 01.431-.608l.315.195c-.172.154-.31.344-.401.555-.11.236-.177.49-.195.75-.044.285.003.575.135.83a.604.604 0 00.495.311.524.524 0 00.397-.116.974.974 0 00.252-.341c.082-.19.155-.384.217-.582.08-.242.173-.479.281-.709a1.18 1.18 0 01.375-.439.88.88 0 01.608-.146c.197.014.386.085.543.206.174.136.305.32.375.53.087.272.115.56.083.843a2.46 2.46 0 01-.15.672c-.072.2-.176.385-.308.551l-.33-.172c.241-.313.387-.688.42-1.08a1.28 1.28 0 00-.142-.815.642.642 0 00-.506-.311.535.535 0 00-.402.116.96.96 0 00-.255.353 7.082 7.082 0 00-.217.581c-.077.24-.168.474-.274.702a1.209 1.209 0 01-.375.439.836.836 0 01-.6.142.985.985 0 01-.543-.21 1.102 1.102 0 01-.356-.536 2.079 2.079 0 01-.08-.848 2.88 2.88 0 01.207-.863zm.997 5.35l-.607-1.013-1.031-.267.112-.416 3.915 1.02-.105.413-2.366-.615 1.77 2.918-.128.477-1.33-2.157-2.618 1.256.127-.491 2.261-1.125zM50.17 39.6l.952-2.045-.776-.897.187-.405 2.887 3.376-.18.375-4.45-.033.19-.41 1.19.038zm.374 0l2.381.037-1.56-1.801-.82 1.763zm-1.867 3.008l-1.147-.8.24-.344 1.15.799 3.098.18-.266.375-2.655-.158 1.073 2.44-.24.352-1.252-2.843zm-3.633 3.714l1.582-1.61-.431-1.103.311-.319 1.59 4.16-.296.3-4.185-1.5.315-.322 1.114.394zm.356.13l2.25.834-.881-2.217-1.369 1.384zm-2.591.413a.307.307 0 01.21.124.293.293 0 01.064.233.289.289 0 01-.117.202.311.311 0 01-.44-.057.316.316 0 01-.062-.235.288.288 0 01.116-.206.308.308 0 01.229-.06zm-1.447 5.717l-.383.203-1.908-3.567.375-.203 1.916 3.567zm-5.696 2.386l-1.342-3.819.333-.116 3.54 2.236-1.091-3.099.405-.142 1.342 3.819-.334.116-3.55-2.236 1.094 3.099-.397.142zm-3.258.297l1.406-.218.06.368-3.24.499-.052-.368 1.406-.218-.562-3.635.42-.063.562 3.635zm-6.352-2.979l.008-.371 2.86.037-.06 4.048-2.77-.038v-.37l2.347.03.019-1.441-2.093-.03.008-.364 2.092.03.015-1.505-2.426-.026zm-4.109-1.073l.652 1.445c.105 0 .21.026.323.045l1.065.213.25-1.26.42.083-.794 3.968-1.5-.296a1.815 1.815 0 01-1.125-.6 1.263 1.263 0 01-.232-1.084 1.31 1.31 0 01.375-.75c.208-.187.471-.302.75-.327l-.698-1.557.514.12zm-.041 1.944a1.044 1.044 0 00-.293 1.47c.224.241.525.397.851.439l1.058.217.397-1.992-1.053-.21a1.428 1.428 0 00-.957.083m-2.132-2.655l-1.342 3.818.403.142 1.342-3.818-.403-.142zm-2.357-.721c.199.302.31.652.323 1.013.01.369-.08.734-.258 1.058a2.028 2.028 0 01-.75.795 1.974 1.974 0 01-1.024.285 2.342 2.342 0 01-1.909-1.032 1.978 1.978 0 01-.318-1.009 2.007 2.007 0 01.258-1.061c.173-.329.433-.604.75-.796.308-.187.66-.286 1.02-.289a2.35 2.35 0 011.912 1.036m-1.874-.642c-.29.004-.575.087-.821.24a1.792 1.792 0 00-.814 1.501c.006.29.092.573.247.818a1.842 1.842 0 001.53.825 1.6 1.6 0 00.825-.236 1.68 1.68 0 00.604-.65c.146-.263.22-.56.213-.862a1.568 1.568 0 00-.254-.822 1.752 1.752 0 00-.683-.592 1.773 1.773 0 00-.866-.222m-4.008-3.695l-.135 1.58c.086.06.172.123.258.195l.833.701.829-.983.326.278-2.625 3.095-1.158-.98a1.838 1.838 0 01-.69-1.065 1.265 1.265 0 01.318-1.061c.179-.224.425-.385.702-.458.277-.061.568-.032.828.083l.139-1.681.375.296zm-.971 1.685a1.042 1.042 0 00-.968 1.144c.08.32.268.6.533.795l.82.694 1.31-1.553-.822-.694a1.413 1.413 0 00-.873-.375m-4.983-2.274l-.912-1.372a2.41 2.41 0 01-.412-1.088c-.04-.354.02-.712.176-1.032a2.156 2.156 0 011.747-1.16 1.89 1.89 0 011.02.24c.34.197.63.472.84.804l.911 1.373-3.37 2.235zm2.167-3.376c-.173-.273-.41-.5-.69-.66a1.499 1.499 0 00-.829-.191 1.788 1.788 0 00-1.443.938c-.128.26-.179.551-.147.84.038.32.154.627.338.893l.66.998 2.756-1.827-.645-.99zm-2.891-5.792l.341-.139 1.08 2.653-3.746 1.53-1.053-2.57.345-.138.885 2.176 1.334-.544-.79-1.94.34-.139.788 1.94 1.395-.567-.919-2.262zm-.198-1.737c-.026.252-.11.493-.248.706l-.356-.094a1.62 1.62 0 00.225-.645c.034-.25.025-.504-.026-.75a1.38 1.38 0 00-.375-.75.61.61 0 00-.563-.155.526.526 0 00-.349.225 1.006 1.006 0 00-.142.402c-.019.15-.034.375-.041.619a5.797 5.797 0 01-.064.75 1.231 1.231 0 01-.184.514.866.866 0 01-.54.315 1.024 1.024 0 01-.585-.037 1.125 1.125 0 01-.513-.417 1.993 1.993 0 01-.323-.75 2.477 2.477 0 01-.052-.687 1.97 1.97 0 01.139-.634l.374.068a2.038 2.038 0 00-.094 1.156c.04.284.172.547.376.75a.638.638 0 00.573.15.515.515 0 00.35-.23.983.983 0 00.142-.408 6.18 6.18 0 00.037-.623 5.23 5.23 0 01.06-.75 1.2 1.2 0 01.218-.525.87.87 0 01.532-.312.99.99 0 01.581.042c.203.084.376.226.499.409.16.237.27.506.322.787.063.291.079.59.045.886M.09 30.588l-.033-.427 4.03-.341.038.427-4.035.341zm2.037-5.495l.022-.41 1.541.098c.157.207.272.443.338.694.073.268.1.545.082.822a2.251 2.251 0 01-.334 1.076c-.19.306-.462.554-.783.717-.33.166-.7.24-1.069.21a2.029 2.029 0 01-1.035-.345c-.299-.2-.536-.48-.686-.807a2.252 2.252 0 01-.195-1.125c.015-.29.082-.575.199-.84.107-.244.27-.459.476-.627l.255.281a1.67 1.67 0 00-.547 1.186c-.023.309.032.618.16.9.123.268.318.495.563.657.251.167.543.263.844.277.299.023.598-.037.866-.172.261-.133.482-.333.637-.582a1.77 1.77 0 00.274-.87 1.756 1.756 0 00-.247-1.077l-1.361-.063zm-.694-6.19l3.9 1.073-.094.341-3.858 1.64 3.172.87-.116.412-3.9-1.076.094-.342 3.858-1.643-3.172-.87.116-.405zm4.436-.327a.323.323 0 01-.347-.068.311.311 0 01.107-.506.295.295 0 01.24 0 .29.29 0 01.168.177.311.311 0 010 .24.252.252 0 01-.165.161" fill="#E8E5E2"/><path d="M24.2 38.403h4.75c2.756 0 5.876-4.832 6.24-5.744.03-.093.195-.093.195-.093l-1.8 6.654H19.588c.982-7.03 8.376-12.521 10.739-21.183h-4.414c-3.175.322-5.594 4.34-5.766 4.839-.03.094-.225.094-.225.094l1.263-5.714H34.71c-1.991 8.914-9.13 14.218-10.5 21.154" fill="#B2B1B1"/><path d="M20.064 18.63a3.782 3.782 0 012.096-2.462 6.105 6.105 0 013.108-.566c1.437.079 2.753.506 3.784 1.665.086.098.199.154.281.034a.299.299 0 00-.026-.281 7.843 7.843 0 00-1.001-.874 6.132 6.132 0 00-3.75-.927 5.888 5.888 0 00-3.097.923 4.032 4.032 0 00-1.729 4.45c.094.392.256.766.48 1.102.053-.236.124-.54.124-.54s-.514-1.636-.266-2.525m15.317-2.836a.75.75 0 00-.9-.788 2.68 2.68 0 00-.686.154 6.645 6.645 0 00-3.585 3.275 4.903 4.903 0 00-.397 4.018c.067.191-.06.217-.158.27a8.97 8.97 0 01-3.408 1.024 7.12 7.12 0 01-4.143-.75c-.049-.03-.105-.057-.188-.113a8.273 8.273 0 01-.772-.548 1.778 1.778 0 01-.435-.439c-.056.083-.184.286-.184.286.152.206.33.393.529.555.269.242.57.446.896.604l.068.056a6.57 6.57 0 002.77.75 9.231 9.231 0 005.025-1.08c.165-.086.244-.068.349.101.157.255.375.477.536.717l.112.146c-.442.131-.858.244-1.27.375a9.264 9.264 0 00-5.771 5.068c-.949 2.018-1.275 4.127-.63 6.336.49 1.677 1.69 2.926 3.457 3.106a6.508 6.508 0 002.733-.307c.24-.08.476-.184.713-.274.192-.07.378-.154.558-.252a4.57 4.57 0 001.418-1.125 9.717 9.717 0 002.7-4.877c.254-.97.262-1.989.022-2.963-.244-.882-.84-1.572-1.875-1.53a5.765 5.765 0 00-3.75 1.436 6.254 6.254 0 00-2.25 5.496c.047.68.346 1.32.837 1.793.131.121.28.221.442.296.06.03.162-.041.248-.067a1.904 1.904 0 00-.101-.255c0-.034-.075-.045-.113-.068a1.503 1.503 0 01-.675-.949 3.401 3.401 0 01.049-1.68 9.323 9.323 0 012.313-4.19 4.188 4.188 0 012.944-1.445 1.342 1.342 0 011.368.75c.166.344.279.71.334 1.088a6.187 6.187 0 01-.206 2.498 9.305 9.305 0 01-2.778 4.656c-.11.097-.23.187-.375.311a4.9 4.9 0 01-1.958 1.028h-.067a5.861 5.861 0 01-3.041.154 3 3 0 01-2.321-2.393 6.632 6.632 0 01.037-3.002 13.585 13.585 0 013.54-6.684 6.437 6.437 0 013.09-1.839c.43-.105.847-.217 1.192.2a.784.784 0 00.086.078 2.575 2.575 0 001.669.473.445.445 0 00.427-.638.712.712 0 00-.255-.341 1.498 1.498 0 00-.596-.274 10.868 10.868 0 00-1.399-.053.464.464 0 01-.468-.225c-.158-.281-.304-.57-.458-.859-.09-.169-.045-.27.113-.375a12.05 12.05 0 003.648-3.804.893.893 0 00.086-.165c.045-.075.117-.195.195-.345a7.715 7.715 0 00.642-1.7v-.04a.113.113 0 000-.035c.035-.209.05-.421.044-.633m-2.28 8.654a.793.793 0 01.233.116c.072.072.165.158.128.252-.038.093-.161.067-.24.067a2.058 2.058 0 01-1.395-.521 2.53 2.53 0 011.275.086zm1.126-6.134a11.96 11.96 0 01-3.75 3.94c-.022-.28-.03-.56-.022-.84a7.465 7.465 0 01.708-2.627 7.706 7.706 0 011.95-2.76 2.583 2.583 0 011.35-.631c.375-.045.566.135.57.525.003.143-.007.286-.03.428a4.401 4.401 0 01-.158.585 9.16 9.16 0 01-.622 1.384" fill="#E8E5E2"/></svg>