<svg class="logo-light" width="255" height="255" fill="#fff" xmlns="http://www.w3.org/2000/svg"><path class="text" d="M41.589 56.934l1.366.99-7.616 10.592-14.958-10.762 7.377-10.266 1.366.99-6.25 8.678 5.328 3.827 5.566-7.739 1.35.974-5.568 7.738 5.567 3.997 6.472-9.019zm3.619-27.468l6.95 18.927-1.383 1.332-18.681-7.584 1.52-1.469 16.204 6.61-6.027-16.45 1.417-1.366zm21.976-4.082l1.554-1.025 3.876 5.876a9.038 9.038 0 01-1.588 3.126 11.273 11.273 0 01-2.766 2.545c-1.537 1.025-3.142 1.589-4.816 1.726-1.673.136-3.261-.154-4.747-.889-1.485-.734-2.732-1.844-3.705-3.314-.973-1.486-1.503-3.057-1.588-4.714-.085-1.657.273-3.229 1.059-4.715.785-1.486 1.963-2.733 3.517-3.775 1.178-.769 2.374-1.298 3.603-1.571 1.23-.274 2.425-.274 3.586.017l-.324 1.708c-2.015-.393-3.945.017-5.823 1.264-1.247.82-2.186 1.845-2.835 3.058a7.217 7.217 0 00-.853 3.843c.068 1.35.495 2.63 1.297 3.826.803 1.196 1.793 2.102 3.006 2.682a7.48 7.48 0 003.859.735c1.366-.103 2.663-.564 3.91-1.384 1.588-1.042 2.664-2.323 3.244-3.843l-3.466-5.176zm24.488-3.11l.65 1.555-12.04 4.988-7.051-17.03 11.68-4.835.648 1.555-9.87 4.082 2.476 6.064 8.811-3.655.632 1.537-8.81 3.639 2.612 6.32 10.262-4.22zm18.1-21.403l3.62 18.072-1.571.308L97.272 6.9l2.937 14.673-1.912.376-3.62-18.09 1.57-.308 14.583 12.334-2.937-14.674 1.879-.341zm10.586-.786L122.305 0l.854 18.414-1.947.086-.854-18.415zm22.659 14.298l-10.211-.956-2.664 4.697-2.015-.188L138.236.36l1.912.17 6.677 19.15-2.049-.188-1.759-5.108zm-.564-1.64L138.97 2.477l-5.328 9.446 8.811.82zm30.823 13.563l-.581 1.572-14.173-5.279.462-1.264 16.819-10.18-11.287-4.203.581-1.571 13.694 5.09-.461 1.264-16.802 10.198 11.748 4.373zm16.819 5.79l-8.828-5.26-4.423 3.091-1.741-1.042 16.682-11.513 1.657.99-2.203 20.158-1.759-1.06.615-5.363zm.205-1.724l1.281-10.78-8.88 6.236 7.599 4.544zm20.646 14.86c-.035 1.026-.461 2-1.281 2.905-1.059 1.178-2.305 1.69-3.74 1.537-1.434-.154-3.005-.99-4.712-2.511l-6.318-5.671 12.311-13.717 5.925 5.312c1.537 1.367 2.442 2.75 2.732 4.117.291 1.367-.068 2.614-1.075 3.741-.683.752-1.452 1.23-2.288 1.435-.837.205-1.708.137-2.596-.188.734 1.008 1.076 2.016 1.042 3.04zm-5.311 2.597c1.008.137 1.896-.222 2.698-1.11 1.537-1.708 1.059-3.69-1.417-5.91l-4.833-4.34-4.627 5.16 4.832 4.338c1.213 1.093 2.34 1.726 3.347 1.862zm1.964-17.543l-4.474 4.988 4.371 3.929c1.11.99 2.152 1.554 3.142 1.674.991.12 1.844-.24 2.562-1.042.717-.803.973-1.691.768-2.665-.222-.957-.888-1.947-1.998-2.938l-4.371-3.946zm5.515 27.913c-.222-1.674 0-3.28.649-4.8s1.69-2.802 3.107-3.844c1.418-1.042 2.955-1.657 4.594-1.845 1.639-.188 3.227.103 4.764.803 1.537.718 2.852 1.794 3.927 3.263 1.076 1.469 1.742 3.04 1.947 4.697a8.998 8.998 0 01-.649 4.783c-.649 1.538-1.69 2.819-3.125 3.878-1.434 1.059-2.971 1.657-4.61 1.828a8.986 8.986 0 01-4.764-.803c-1.52-.7-2.818-1.794-3.911-3.263-1.058-1.452-1.707-3.023-1.929-4.697zm6.506 6.286a7.09 7.09 0 003.842.598c1.332-.154 2.578-.667 3.739-1.52 1.161-.855 2.015-1.897 2.562-3.127a7.08 7.08 0 00.563-3.843c-.171-1.333-.683-2.597-1.554-3.775-.871-1.179-1.912-2.05-3.142-2.614a7.16 7.16 0 00-3.859-.615c-1.349.154-2.595.65-3.757 1.503-1.161.855-2.014 1.897-2.544 3.144-.546 1.23-.717 2.528-.546 3.877.171 1.35.683 2.614 1.554 3.775.853 1.162 1.912 2.033 3.142 2.597zm20.678 3.603l.836 1.76-15.112 7.243 4.457 9.31-1.52.734-5.293-11.07 16.632-7.977zm-7.855 26.05c.409-1.64 1.195-3.057 2.356-4.219 1.161-1.161 2.596-1.981 4.303-2.442 1.708-.461 3.364-.461 4.952-.034a8.858 8.858 0 014.132 2.494c1.179 1.23 1.998 2.716 2.459 4.475.478 1.76.513 3.468.103 5.09a9.178 9.178 0 01-2.357 4.22c-1.161 1.178-2.595 1.998-4.32 2.46-1.707.461-3.364.461-4.969.017-1.605-.444-2.971-1.282-4.132-2.477-1.161-1.213-1.981-2.699-2.442-4.459-.461-1.776-.495-3.467-.085-5.124zm3.756 8.234a7.097 7.097 0 003.364 1.965c1.298.341 2.647.324 4.03-.034 1.383-.376 2.561-1.025 3.518-1.982a7.01 7.01 0 001.929-3.382c.325-1.298.308-2.665-.068-4.066-.376-1.418-1.042-2.596-1.981-3.57a7.302 7.302 0 00-3.364-1.998c-1.298-.36-2.647-.342-4.047.034-1.383.376-2.561 1.042-3.517 1.981-.957.957-1.588 2.084-1.93 3.4-.324 1.315-.307 2.681.068 4.082.393 1.418 1.059 2.597 1.998 3.57zm16.479 14.281l-.496-6.457 1.674-.136L255 124.921l-1.674.137-.495-6.457-16.7 1.298-.153-1.948 16.7-1.298zm-15.829 15.544c.529-1.212 1.195-2.135 1.964-2.767l1.434.888c-.717.615-1.332 1.452-1.827 2.529-.495 1.076-.803 2.186-.888 3.365-.136 1.64.068 2.904.615 3.775.529.871 1.28 1.349 2.254 1.418.734.051 1.332-.12 1.81-.53.478-.41.854-.922 1.144-1.554.29-.632.615-1.504.99-2.648.461-1.35.888-2.426 1.281-3.229a5.378 5.378 0 011.656-1.998c.717-.53 1.64-.752 2.767-.666a4.599 4.599 0 012.476.939c.717.547 1.263 1.35 1.639 2.409.375 1.059.495 2.323.375 3.843a11.144 11.144 0 01-.683 3.058c-.375.991-.836 1.828-1.4 2.511l-1.502-.786a9.292 9.292 0 001.331-2.374 9.247 9.247 0 00.581-2.545c.137-1.606-.085-2.853-.649-3.707-.563-.871-1.332-1.333-2.305-1.418-.734-.051-1.349.119-1.827.529a4.38 4.38 0 00-1.161 1.606c-.291.649-.615 1.538-.991 2.648-.444 1.315-.853 2.391-1.246 3.194a5.503 5.503 0 01-1.639 1.999c-.701.529-1.606.751-2.733.649a4.481 4.481 0 01-2.476-.957c-.717-.563-1.263-1.366-1.622-2.442-.358-1.077-.495-2.358-.358-3.861.119-1.366.444-2.665.99-3.878zm4.56 24.325l-2.749-4.612-4.696-1.213.495-1.896 17.844 4.646-.495 1.879-10.775-2.801 8.06 13.289-.563 2.17-6.079-9.822-11.902 5.722.58-2.238 10.28-5.124zm-12.944 23.796l4.337-9.31-3.535-4.083.854-1.844 13.148 15.442-.82 1.742-20.268-.154.871-1.862 5.413.069zm1.724.017l10.843.171-7.103-8.2-3.74 8.029zM221.668 194l-5.242-3.638 1.093-1.572 5.242 3.639 14.104.819-1.195 1.709-12.107-.718 4.901 11.103-1.11 1.606L221.668 194zm-16.563 16.912l7.206-7.329-1.963-5.022 1.417-1.452 7.24 18.944-1.349 1.367-19.056-6.918 1.434-1.469 5.071 1.879zm1.64.598l10.16 3.792-3.962-10.096-6.198 6.304zm-11.818 1.878c.393.052.7.24.956.564.256.325.342.666.29 1.059a1.319 1.319 0 01-.529.923c-.307.239-.649.324-1.041.29a1.381 1.381 0 01-.957-.547 1.376 1.376 0 01-.29-1.076c.051-.393.222-.717.529-.939a1.408 1.408 0 011.042-.274zm-6.608 26.05l-1.725.923-8.708-16.245 1.724-.923 8.709 16.245zm-25.92 10.864l-6.113-17.389 1.52-.53 16.136 10.181-4.969-14.11 1.845-.649 6.113 17.39-1.52.529-16.171-10.181 4.969 14.11-1.81.649zm-14.823 1.333l6.403-.991.257 1.674-14.737 2.272-.256-1.674 6.404-.991-2.562-16.552 1.93-.29 2.561 16.552zm-28.925-13.546l.017-1.691 13.029.171-.256 18.431-12.636-.171.017-1.691 10.689.137.086-6.56-9.528-.136.017-1.657 9.528.137.085-6.85-11.048-.12zm-18.732-4.903l2.972 6.645c.478.034.956.119 1.468.205l4.85.973 1.144-5.739 1.912.376-3.62 18.072-6.762-1.349c-2.305-.461-4.013-1.367-5.088-2.733-1.093-1.367-1.435-3.007-1.06-4.937.291-1.418.872-2.528 1.794-3.365.905-.837 2.066-1.332 3.483-1.486l-3.176-7.089 2.083.427zm-.188 8.848c-1.11.598-1.792 1.623-2.083 3.041-.29 1.469-.05 2.682.752 3.655.785.974 2.083 1.64 3.876 1.999l4.798.957 1.81-9.071-4.798-.957c-1.793-.341-3.245-.222-4.355.376zm-13.968 5.963l-1.844-.65 6.13-17.389 1.844.649-6.13 17.39zm-6.436-21.284a8.976 8.976 0 011.468 4.612c.051 1.64-.341 3.245-1.178 4.817-.837 1.554-1.964 2.767-3.381 3.621-1.417.854-2.954 1.281-4.662 1.299-1.69.017-3.346-.41-4.952-1.282-1.605-.871-2.868-1.998-3.773-3.416a9.01 9.01 0 01-1.452-4.595c-.068-1.657.325-3.28 1.178-4.834.837-1.555 1.981-2.768 3.398-3.622a9.04 9.04 0 014.645-1.315c1.674-.017 3.313.41 4.918 1.281 1.605.854 2.869 1.999 3.79 3.434zm-8.555-2.921a7.23 7.23 0 00-3.74 1.093c-1.144.717-2.049 1.708-2.732 2.972-.683 1.264-1.007 2.58-.973 3.912a7.212 7.212 0 001.127 3.724c.717 1.144 1.724 2.05 3.005 2.75 1.28.7 2.596 1.025 3.962 1.008a7.273 7.273 0 003.756-1.076c1.144-.701 2.066-1.691 2.75-2.956.682-1.264 1.007-2.579.973-3.928a7.146 7.146 0 00-1.161-3.741c-.735-1.145-1.742-2.067-3.023-2.751-1.28-.7-2.595-1.024-3.944-1.007zm-18.324-16.844l-.598 7.243c.393.273.786.564 1.178.888l3.791 3.194 3.774-4.475 1.485 1.264-11.884 14.093-5.277-4.459c-1.793-1.52-2.851-3.143-3.142-4.851-.29-1.725.188-3.331 1.452-4.834.922-1.093 1.998-1.794 3.193-2.084 1.195-.291 2.459-.154 3.774.376l.632-7.739 1.622 1.384zm-4.44 7.67c-1.264 0-2.356.547-3.296 1.657-.956 1.144-1.331 2.323-1.11 3.553.223 1.23 1.025 2.443 2.425 3.621l3.74 3.16 5.96-7.071-3.74-3.161c-1.383-1.161-2.715-1.742-3.979-1.759zM25.35 204.335l-4.149-6.252c-1.076-1.623-1.707-3.28-1.878-4.954-.17-1.674.102-3.245.802-4.697.7-1.452 1.81-2.682 3.296-3.673 1.486-.991 3.056-1.52 4.662-1.606 1.622-.085 3.159.274 4.644 1.094 1.469.82 2.75 2.032 3.825 3.655l4.15 6.252-15.352 10.181zm9.87-15.425c-.888-1.349-1.946-2.34-3.142-3.006-1.195-.649-2.458-.957-3.773-.872-1.315.069-2.579.513-3.808 1.333-1.23.82-2.135 1.811-2.698 2.989-.58 1.179-.803 2.46-.666 3.827.136 1.366.649 2.716 1.537 4.065l3.005 4.544 12.55-8.319-3.005-4.561zm-13.166-26.341l1.554-.632 4.918 12.077-17.076 6.969-4.781-11.701 1.554-.632 4.047 9.908 6.079-2.477-3.603-8.831 1.537-.633 3.602 8.832 6.336-2.58-4.167-10.3zm-.921-7.892c-.154 1.316-.53 2.392-1.076 3.212l-1.622-.427c.512-.786.854-1.777 1.024-2.939a9.967 9.967 0 00-.12-3.484c-.358-1.606-.904-2.768-1.672-3.434-.769-.666-1.623-.922-2.562-.7-.717.154-1.246.495-1.588 1.025-.341.529-.546 1.144-.649 1.828-.085.683-.154 1.622-.188 2.818-.05 1.435-.136 2.579-.29 3.451a5.603 5.603 0 01-1.007 2.391c-.53.718-1.35 1.196-2.46 1.435a4.647 4.647 0 01-2.646-.171c-.854-.324-1.605-.922-2.271-1.828-.666-.905-1.161-2.084-1.469-3.553a11.274 11.274 0 01-.239-3.126c.069-1.042.274-1.981.615-2.818l1.656.307a9.132 9.132 0 00-.597 2.665 9.29 9.29 0 00.17 2.597c.342 1.571.906 2.699 1.691 3.365.786.666 1.656.888 2.613.683.717-.154 1.246-.495 1.588-1.042a4.487 4.487 0 00.649-1.862c.085-.717.153-1.657.17-2.836.034-1.4.12-2.528.274-3.416a5.49 5.49 0 01.99-2.391c.53-.701 1.332-1.179 2.425-1.418a4.509 4.509 0 012.646.188c.854.324 1.605.939 2.271 1.862.666.922 1.145 2.118 1.469 3.587.307 1.383.376 2.716.205 4.031zM.402 139.269l-.17-1.947 18.373-1.554.17 1.947-18.373 1.554zm9.272-25.007l.12-1.862 7.017.444c.7.906 1.213 1.965 1.537 3.16.325 1.196.461 2.443.376 3.741-.12 1.845-.615 3.468-1.52 4.903-.905 1.418-2.083 2.511-3.569 3.263-1.485.751-3.107 1.076-4.866.956-1.776-.119-3.347-.632-4.713-1.571-1.383-.923-2.425-2.153-3.142-3.673-.717-1.52-1.007-3.211-.888-5.073.085-1.401.393-2.682.905-3.827a7.69 7.69 0 012.169-2.852l1.16 1.281c-1.519 1.366-2.356 3.177-2.492 5.415-.086 1.486.153 2.852.734 4.099a7.149 7.149 0 002.561 2.99c1.127.751 2.408 1.178 3.842 1.264 1.435.085 2.75-.171 3.945-.786a7.333 7.333 0 002.903-2.648c.734-1.144 1.16-2.477 1.246-3.963.12-1.896-.256-3.519-1.127-4.902l-6.198-.359zM6.48 86.059l17.776 4.886-.427 1.554-17.554 7.465 14.43 3.963-.513 1.879-17.776-4.903.427-1.554 17.57-7.482-14.428-3.963.495-1.845zm20.235-1.486c-.358.137-.734.12-1.11-.034a1.34 1.34 0 01-.768-.786 1.385 1.385 0 01.017-1.076c.154-.359.41-.598.768-.752a1.352 1.352 0 011.093.018c.376.153.632.427.768.802.137.376.137.735-.017 1.094a1.231 1.231 0 01-.75.734z"/><path d="M110.198 174.886h21.635c12.551 0 26.758-22.002 28.414-26.153.137-.427.888-.427.888-.427l-8.196 30.304H89.195c4.474-32.012 38.147-57.02 48.905-96.462h-20.098c-14.463 1.435-25.477 19.729-26.245 22.001-.137.427-1.025.427-1.025.427l5.755-26.015h61.574c-9.084 40.586-41.596 64.74-47.863 96.325z" fill="#E9E5E2" opacity=".66"/><path class="E" d="M91.346 84.812c1.486-5.398 4.918-8.917 9.546-11.206 4.491-2.22 9.272-2.852 14.155-2.58 6.54.36 12.534 2.307 17.23 7.585.392.444.905.7 1.28.154.188-.273.12-1.06-.119-1.281-1.469-1.384-2.903-2.887-4.559-3.98-5.225-3.45-11.048-4.476-17.093-4.22-5.003.205-9.767 1.333-14.105 4.203-6.847 4.543-9.92 12.401-7.871 20.259.478 1.81 1.11 3.468 2.185 5.022.24-1.076.564-2.46.564-2.46s-2.322-7.43-1.213-11.496zm69.773-12.897c-.222-2.528-1.725-3.843-4.099-3.587-1.058.12-2.134.307-3.124.7-7.172 2.768-12.636 7.773-16.325 14.913-2.988 5.774-4.064 11.889-1.81 18.295.308.871-.273.99-.717 1.23-4.918 2.562-10.075 4.202-15.522 4.663-6.54.547-12.909-.068-18.868-3.348-.222-.137-.478-.256-.854-.513-1.793-1.195-2.698-1.793-3.518-2.494-.666-.563-1.075-.768-1.98-2.05-.257.376-.837 1.299-.837 1.299s.683 1.042 2.407 2.528c1.452 1.247 2.767 2.152 4.082 2.75.085.051.17.103.256.171 3.961 2.169 8.213 3.16 12.619 3.451 8.025.529 15.675-1.094 22.881-4.92.751-.393 1.11-.308 1.588.461.717 1.162 1.622 2.17 2.442 3.263.154.205.307.41.512.666-2.015.598-3.91 1.11-5.788 1.725-11.731 3.775-20.662 11.292-26.229 23.095-4.32 9.19-5.805 18.825-2.868 28.852 2.236 7.635 7.701 13.324 15.743 14.144 4.235.427 8.385-.052 12.449-1.401 1.092-.359 2.168-.837 3.244-1.247v-.017c.82-.274 1.639-.684 2.544-1.145 2.971-1.486 5.055-3.45 6.455-5.073 6.198-6.064 10.296-13.512 12.294-22.275 1.008-4.458 1.349-8.985.103-13.495-1.11-4.014-3.825-7.157-8.589-6.969-6.318.239-12.107 2.186-17.008 6.542-7.291 6.457-11.218 14.622-10.279 25.025.29 3.212 1.537 5.996 3.808 8.165.597.564 1.297 1.008 2.015 1.35.273.137.734-.188 1.127-.308-.154-.392-.257-.802-.462-1.161-.085-.154-.341-.205-.512-.308-1.554-1.007-2.612-2.374-3.073-4.321-.615-2.58-.444-5.142.222-7.653 1.912-7.379 5.43-13.768 10.552-19.098 3.723-3.86 8.06-6.44 13.405-6.576 2.681-.069 4.952.785 6.232 3.399.752 1.52 1.264 3.246 1.52 4.954.581 3.843.034 7.653-.939 11.376-2.22 8.439-6.386 15.545-12.653 21.199-.495.444-1.042.854-1.708 1.418h.017c-3.244 2.733-6.454 4.065-8.913 4.68h.051l-.307.052c-4.594 1.281-9.187 1.862-13.849.7-5.481-1.384-9.135-4.885-10.569-10.898-1.093-4.578-.82-9.139.17-13.649 2.596-11.803 7.889-22.036 16.051-30.44 3.979-4.1 8.607-7.089 14.071-8.438 1.963-.479 3.859-.991 5.43.905.153.137.256.273.393.359 2.322 1.554 4.832 2.408 7.598 2.186 1.691-.136 2.527-1.366 1.947-2.904-.222-.598-.649-1.23-1.161-1.554-.837-.547-1.776-1.145-2.715-1.247-2.101-.239-4.252-.274-6.37-.239-.939.017-1.656-.188-2.134-1.025-.717-1.281-1.383-2.597-2.083-3.912-.41-.769-.205-1.23.512-1.708 6.711-4.459 12.277-10.198 16.615-17.287.187-.308.324-.547.392-.752.017 0 .017.017.035.034.204-.341.529-.888.887-1.571.24-.444 1.247-2.409 2.203-5.313a61.817 61.817 0 00.734-2.579.476.476 0 00.035-.154c0-.017.017-.017.017-.034.102-.974.29-1.947.205-2.887zm-10.485 39.374c.29.103.82.308 1.059.53.324.324.751.717.58 1.144-.136.359-.734.308-1.092.308-2.357 0-4.491-.752-6.353-2.375 1.998-.256 3.928-.358 5.806.393zm5.208-27.946c-4.303 7.294-9.921 13.187-17.041 17.936-.051-1.452-.188-2.648-.103-3.826.273-4.254 1.486-8.217 3.228-12.026 2.202-4.8 4.9-9.207 8.879-12.572 1.827-1.555 3.842-2.563 6.147-2.87 1.639-.205 2.579.615 2.596 2.391.017.65-.034 1.299-.137 1.948 0 .017-.017.034-.017.05-.137.906-.546 2.12-.717 2.666-.7 2.186-1.691 4.1-2.835 6.303z"/></svg>