<svg width="308" height="225" fill="none" xmlns="http://www.w3.org/2000/svg"><g clip-path="url(#clip0_262_1373)"><path d="M61.023 182.09c-.166-.506-1.427-.283-1.548-.736-.12-.451 1.09-.828 2.017-2.099.167-.229 1.221-1.672.817-2.279-.766-1.151-6.098 1.715-7.378.107-.28-.353-.396-.959-1.233-2.087-.333-.449-.547-.665-.802-.659-.362.009-.491.459-1.06 1.275-.854 1.223-1.162 1.069-1.724 2.071-.417.744-.467 1.219-.768 1.247-.425.04-.601-.886-1.122-.922-.53-.037-1.062.878-1.326 1.593-.494 1.342-.188 2.367-.12 3.389.074 1.111-.1 2.736-1.314 4.823L34.01 205.947c2.46-3.697 9.441-13.778 12.254-17.475.812-1.068 1.685-2.139 3.028-2.341 1.293-.194 2.866.442 5.062.405.257-.005.97-.026 1.144-.402.144-.311-.213-.581-.083-.873.174-.392.956-.224 2.022-.484.752-.184 1.263-.487 1.702-.748.133-.078 2.105-1.266 1.884-1.939z" fill="#F2F2F2"/><path d="M31.028 186.323c-.298-.064-.552.615-.81.543-.257-.071-.095-.77-.455-1.589-.065-.148-.473-1.078-.89-1.056-.79.041-.912 3.469-2.076 3.629-.255.035-.588-.083-1.386 0-.318.033-.486.074-.557.201-.1.179.085.372.324.885.357.769.193.875.525 1.438.247.418.468.58.395.734-.104.22-.612.038-.78.282-.17.248.128.771.405 1.106.52.628 1.114.775 1.639 1.037.57.284 1.322.838 2.003 2.032l5.65 10.818c-1.115-2.266-4.08-8.58-5.094-11.019-.293-.704-.57-1.439-.282-2.152.277-.687 1.045-1.271 1.66-2.353.072-.126.268-.48.132-.674-.112-.159-.348-.063-.455-.211-.144-.198.165-.531.344-1.126.127-.42.124-.757.122-1.046 0-.087-.018-1.392-.414-1.479zm5.638 2.64l.177-1.63.11-.102c.503-.474.818-.975.937-1.492.019-.082.033-.165.048-.249.059-.335.132-.752.456-1.185.182-.241.662-.786 1.157-.595a.585.585 0 01.286.227l.05-.049c.213-.207.363-.282.507-.355.11-.056.225-.114.418-.268.085-.067.153-.128.21-.179.174-.154.396-.334.7-.263.323.088.434.394.507.596.131.361.171.61.198.774.01.06.02.128.03.15.07.177.956.223 1.29.242.75.04 1.398.075 1.554.585.112.365-.121.763-.713 1.215-.185.14-.37.237-.53.31a.544.544 0 01.182.391c.011.407-.409.719-1.248.93a2.73 2.73 0 01-.856.105 3.383 3.383 0 01-.453-.059.535.535 0 01-.118.221c-.187.212-.489.266-.898.147a6.683 6.683 0 01-1.125-.446c-.275-.13-.512-.241-.712-.272-.37-.051-.715.176-1.129.479l-1.035.772zm2.956-9.284l-1.631.243-.128-.079c-.588-.364-1.157-.54-1.689-.523-.085.003-.17.01-.255.017-.341.028-.765.064-1.269-.138-.28-.114-.932-.437-.873-.961a.592.592 0 01.149-.333 1.797 1.797 0 01-.534-.432 2.075 2.075 0 00-.367-.335 4.896 4.896 0 00-.228-.156c-.194-.128-.426-.296-.433-.607.003-.332.273-.516.451-.638.319-.217.55-.319.704-.387.056-.024.119-.052.138-.066.154-.112-.026-.976-.092-1.302-.15-.73-.281-1.363.176-1.642.326-.2.773-.077 1.363.377.183.142.324.295.435.431a.55.55 0 01.335-.275c.393-.113.804.211 1.221.965.105.187.244.439.32.796a3.1 3.1 0 01.057.451.54.54 0 01.245.057c.255.126.384.402.371.826-.007.467-.082.853-.148 1.194-.057.298-.105.554-.084.753.044.369.352.644.752.965l1.014.799zm.22-4.868l.177-1.63.11-.102c.503-.474.819-.975.937-1.492.019-.082.033-.165.048-.249.06-.335.133-.752.457-1.185.181-.241.661-.786 1.156-.595.134.05.224.136.287.227l.048-.049c.214-.206.364-.282.508-.355.11-.056.225-.114.419-.267.084-.068.152-.129.21-.179.173-.155.395-.335.7-.264.322.088.433.394.506.596.131.361.172.61.198.774.01.061.021.128.03.15.07.177.956.223 1.29.242.75.04 1.398.075 1.554.586.112.365-.121.763-.713 1.214a2.637 2.637 0 01-.53.31.544.544 0 01.183.391c.01.407-.41.719-1.249.93a2.733 2.733 0 01-.856.105 3.23 3.23 0 01-.453-.059.534.534 0 01-.118.221c-.187.212-.489.266-.898.147-.452-.126-.81-.296-1.124-.445-.276-.131-.513-.242-.712-.273-.37-.051-.716.176-1.13.479l-1.035.772z" fill="#F2F2F2"/><path d="M34.551 206.04l-.288-.284-.4-.042c.001-.037-.002-.125-.005-.262-.015-.749-.063-3.031.257-6.538a65.23 65.23 0 011.109-7.385c.513-2.457 1.046-4.286 1.474-5.755.323-1.109.649-2.16.967-3.184.85-2.736 1.651-5.32 2.148-8.268.11-.658.341-2.028-.131-3.645a7.484 7.484 0 00-1.396-2.623l.631-.506a8.29 8.29 0 011.544 2.905c.523 1.793.272 3.285.151 4.002-.505 3-1.315 5.61-2.173 8.372-.316 1.02-.641 2.067-.963 3.171-.424 1.456-.952 3.268-1.458 5.694a64.423 64.423 0 00-1.096 7.295c-.316 3.462-.268 5.71-.253 6.448.008.395.01.477-.117.605z" fill="#F2F2F2"/><path d="M36.555 168.982a1.2 1.2 0 01-.098-.025c-.665-.185-1.2-.724-1.587-1.602-.181-.413-.224-.847-.31-1.713a10.006 10.006 0 010-1.705c.048-.585.111-.82.271-1.004.178-.206.418-.324.671-.383a.455.455 0 01.083-.225c.209-.298.557-.175.747-.111.095.034.214.077.348.099.21.036.335 0 .525-.055.182-.052.407-.118.72-.112.616.008 1.072.284 1.222.374.792.473 1.066 1.228 1.382 2.101.063.176.272.809.32 1.624.036.588-.042.829-.131 1.001-.182.354-.46.518-1.15.863-.72.361-1.083.542-1.38.635-.69.216-1.123.351-1.633.238z" fill="#F2F2F2"/><path d="M128.127 119.459c2.152-1.807 1.581-5.997-1.277-9.358-1.25-1.472-2.732-2.54-4.183-3.125L121 105.063 99.464 78.246S87.54 51.569 84.018 48.686c-3.52-2.882-7.662-1.381-7.662-1.381l-3.232 3.974 20.138 37.248 20.611 20.614 2.782 2.883c.338 1.519 1.15 3.149 2.401 4.62 2.857 3.362 6.918 4.622 9.071 2.815z" fill="#FFB6B6"/><path d="M87.476 53.647l5.397 7.866 7.747 11.396-13.92 4.786-12.292-20.96 13.068-3.088z" fill="#E6E6E6"/><path d="M308 205.314H0v.934h308v-.934z" fill="#E8E5E2"/><path d="M218.047 140.446h-24.555v-8.287c0-13.331 10.889-24.154 24.302-24.154h.253v32.441z" fill="#2F2E41"/><path d="M198.964 136.106l4.07-13.239 10.441-.519 4.572 18.098-19.083-4.34z" fill="#FFB6B6"/><path opacity=".1" d="M198.964 136.106l4.07-13.239 10.441-.519 4.572 18.098-19.083-4.34z" fill="#000"/><path d="M208.465 130.624c6.781 0 12.278-5.463 12.278-12.202s-5.497-12.202-12.278-12.202c-6.781 0-12.278 5.463-12.278 12.202s5.497 12.202 12.278 12.202z" fill="#FFB6B6"/><path d="M182.442 186.627l-3.25 3.23s-17.365-11.575-24.024-7.259c-6.66 4.317-6.95 12.677.881 17.289 7.831 4.612 27.843 15.853 27.843 15.853s26.683 4.612 44.665-9.512 21.317-13.404 18.127-20.898c-3.19-7.494-10.151-5.765-10.151-5.765l-13.342 7.783-5.51-1.153-35.239.432z" fill="#D0D0D0"/><path d="M183.167 190.23l13.921 6.053-5.22 12.395-20.593-4.9m47.476-13.548l-18.762 8.647 7.251 14.989 20.882-8.935" fill="#D0D0D0"/><path d="M199.989 133.709l-18.127 7.951 5.8 31.707-5.22 13.26 27.843 4.324 14.278-4.404-1.226-6.262 1.226-23.37 4.864-13.814-13.051-8.935-16.387-.457z" fill="#E6E6E6"/><path d="M195.348 197.437l8.991 2.594-4.35 10.593-11.892-4.54 7.251-8.647z" fill="#FFB6B6"/><path d="M207.844 197.437l-11.046 5.476v8.365l12.472-1.447-1.426-12.394z" fill="#FFB6B6"/><path d="M191.868 213.29s19.142 12.683 26.393 7.494c7.251-5.188 11.311-11.818 9.861-12.683-1.45-.864-5.801-2.306-5.801-2.306l-24.363 4.901-6.09 2.594z" fill="#D0D0D0"/><path d="M167.505 203.778s-9.861 14.989-.58 17.295c9.281 2.306 32.67-7.207 32.67-7.207l-1.636-12.394-4.351 4.323-26.103-2.017z" fill="#D0D0D0"/><path d="M228.964 100.028c-2.713-2.492-3.618-5.903-2.022-7.619 1.596-1.716 5.089-1.086 7.802 1.408a9.182 9.182 0 012.465 3.582l11.361 10.704-5.168 5.192-10.651-11.104a9.248 9.248 0 01-3.787-2.163z" fill="#FFB6B6"/><path d="M225.874 133.22l20.556-9.97-10.633-18.176 3.329-6.722s25.879 14.337 23.303 24.77c-2.575 10.432-28.244 29.598-36.442 26.534-2.489-.93-3.93-2.59-4.732-4.451-1.956-4.544.149-9.817 4.619-11.985z" fill="#E6E6E6"/><path d="M184.959 128.294c.624-1.887 1.857-3.539 2.409-5.449.732-2.535 2.292 3.089 2.444.456.289-5.006 7.976-17.882 12.364-20.355 4.388-2.473 6.909-1.727 11.38.595 0 0 2.17.138 4.872 1.463 2.701 1.326 5.133 3.449 6.184 6.256.833 2.224.741 4.667 1.019 7.025.776 6.567 4.48 12.814 3.685 19.379-.248 2.048-1.032 4.166-2.717 5.371s-4.407 1.074-5.517-.67c-.378-.595-.538-1.301-.863-1.927-.324-.626-.91-1.209-1.618-1.19-1.065.029-1.606 1.449-1.187 2.421.42.973 1.406 1.56 2.332 2.082-2.205.986-4.941.679-6.87-.771-1.928-1.45-2.97-3.983-2.615-6.36.5-3.351 5.411-2.657 5.99-5.995.421-2.43 1.9-6.496 1.497-8.929-.403-2.433-2.338.513-.299-.893-2.243 1.075-7.039-6.275-9.387-7.098a9.566 9.566 0 01-5.405-4.841c-2.49 3.587-4.68 2.613-5.572 6.88-.892 4.267.589 17.428 4.261 19.81-1.47.996-3.297-1.046-3.987.583-.39.924-.643 1.934-1.292 2.701-1.238 1.464-3.524 1.553-5.346.937a9.261 9.261 0 01-5.257-4.563 9.173 9.173 0 01-.505-6.918z" fill="#2F2E41"/><path d="M153.552 125.434c-.663-3.612-3.076-6.2-5.389-5.779-2.313.42-3.65 3.688-2.985 7.301a9.154 9.154 0 001.722 3.988l3.006 15.269 7.18-1.555-3.726-14.887a9.123 9.123 0 00.192-4.337z" fill="#FFB6B6"/><path d="M183.406 140.627l-19.485 11.907-9.744-18.663-7.494-.809s-1.687 29.399 8.556 32.828c10.243 3.429 40.279-7.84 42.069-16.361.544-2.586-.094-4.686-1.246-6.355-2.812-4.077-8.419-5.136-12.656-2.547z" fill="#E6E6E6"/><path d="M289.713 162.857l-69.798 21.925v-84.465l69.798-21.924v84.464z" fill="#fff"/><path d="M219.445 185.419V99.976l70.738-22.22v85.443l-70.738 22.22zm.939-84.76v83.486l68.86-21.629V79.03l-68.86 21.629z" fill="#3F3D56"/><path d="M118.787 181.594l55.976 17.584v-67.739l-55.976-17.583v67.738z" fill="#fff"/><path d="M175.232 199.815l-.611-.193-56.304-17.686v-68.717l.611.193 56.304 17.686v68.717zm-55.976-18.562l55.037 17.288v-66.76l-55.037-17.288v66.76z" fill="#3F3D56"/><path d="M236.879 105.538c-.798 4.132.658 8.625 3.731 11.52 3.074 2.894 7.666 4.096 11.776 3.082 3.901-.963 7.549-5.063 5.899-8.705-1.177-2.597-4.766-3.58-7.341-2.331-2.576 1.249-4.008 4.251-3.86 7.095.149 2.844 1.672 5.489 3.704 7.497 5.299 5.239 13.788 6.598 18.459 12.398 4.079 5.065 3.954 13.014-.283 17.949-4.237 4.935-12.116 6.31-17.791 3.103-2.339-1.321-4.351-3.441-4.932-6.052-.581-2.611.589-5.673 3.047-6.76 4.636-2.051 9.304 3.457 14.377 3.538 2.906.046 5.728-1.952 6.634-4.696.907-2.744-.176-6.015-2.544-7.689m-129.103 29.15c.897 2.617-.962 5.809-3.693 6.339-2.731.53-5.662-1.732-5.821-4.493-.16-2.761 2.491-5.342 5.265-5.126 4.469.348 7.108 6.427 11.582 6.143 3.061-.194 4.995-3.306 6.124-6.14a49.48 49.48 0 002.834-10.126c.484-2.888.706-5.878.008-8.722-.699-2.845-2.43-5.545-5.056-6.874-3.987-2.019-9.445-.05-11.349 3.975s-.07 9.342 3.839 11.507c4.889 2.707 11.622.757 16.064 4.141 3.56 2.711 4.172 7.712 4.496 12.158.208 2.835.412 5.715-.172 8.498-.584 2.783-2.072 5.507-4.539 6.946-1.869 1.089-4.363 1.305-6.162.104-1.798-1.2-2.474-3.979-1.075-5.624 1.145-1.346 3.229-1.561 4.904-.982 1.676.578 3.04 1.789 4.355 2.972" fill="#2F2E41"/><path d="M92.955 26.876l-3.908 14.81-14.902-2.913s5.863-10.683 4.397-15.539l14.413 3.642zm-15.73 192.779l8.974-.001 4.268-34.4-13.244.001.002 34.4z" fill="#FFB6B6"/><path d="M107.969 219.452c.28.468.427 1.977.427 2.521a3.036 3.036 0 01-3.045 3.027h-27.79a2.071 2.071 0 01-2.078-2.065v-1.15s-1.375-3.456 1.455-7.715c0 0 3.518 3.335 8.775-1.889l1.55-2.791 11.22 8.156 6.219.761c1.361.166 2.568-.026 3.267 1.145zm-5.828-99.352l-12.365 83.627H74.262l2.063-47.736 1.086-25.1-3.149-11.948s-1.435-2.655-2.645-5.874c-1.363-3.633-2.44-7.988-.841-10.054.588-.761 2.117-1.324 4.195-1.744 1.27-.258 2.748-.459 4.343-.614 9.174-.903 22.224-.339 22.224-.339l.332 10.88.184 6.076.087 2.826z" fill="#E8E5E2"/><path d="M61.417 215.564l8.879 1.297 9.258-33.417-13.104-1.914-5.033 34.034z" fill="#FFB6B6"/><path d="M91.865 219.809c.208.503.133 2.018.053 2.556a3.043 3.043 0 01-3.456 2.554l-27.495-4.017a2.067 2.067 0 01-1.753-2.344l.168-1.137s-.854-3.618 2.57-7.423c0 0 2.992 3.808 8.957-.601l1.942-2.537 9.907 9.691 6.042 1.652c1.322.361 2.544.346 3.065 1.606zm10.471-113.655l-1.696 14.516-9.25 30.59-15.225 50.36-15.347-2.241 13.774-71.606-1.364-12.278s-.444-1.22-.953-3.007c-1.01-3.535-2.278-9.292-.884-12.228.188-.4.425-.746.717-1.026.549-.529 1.663-.85 3.157-1.02 6.242-.701 19.098 1.304 24.819 2.289l2.252 5.651z" fill="#E8E5E2"/><path d="M90.513 37.316l16.855 21.122-3.025 22.022-2.593 22.408-30.536-4.613s6.596-15.781 7.329-16.51c.732-.728 2.573 1.071 1.286-1.285-1.286-2.356-2.752-2.356-1.53-3.57 1.22-1.214-9.528-16.995-9.528-25.492 0-8.498 5.13-15.296 5.13-15.296l16.612 1.214z" fill="#E6E6E6"/><path d="M86.58 29.673c6.27 0 11.355-5.053 11.355-11.285 0-6.233-5.084-11.285-11.356-11.285-6.27 0-11.354 5.052-11.354 11.285 0 6.232 5.083 11.285 11.355 11.285z" fill="#FFB6B6"/><path d="M86.049 39.965s1.699-13.362 2-17.248c.3-3.886 5.82-9.952 5.82-9.952l3.909 3.138s3.308 0 1.053-4.782c-2.256-4.782-6.466-5.53-6.466-5.53s-.452-6.276-8.271-5.53c-7.82.748-11.278 7.025-11.278 7.025s-.451-7.92-5.413-2.092c-4.963 5.828-7.82 8.22-2.557 10.162 5.263 1.943 9.173.448 9.173.448s-5.113 1.047-4.21 4.633c.902 3.587-11.88 19.877-6.015 21.67 5.864 1.794 18.947 6.128 20.45 3.288 1.504-2.84 1.805-5.23 1.805-5.23z" fill="#2F2E41"/><path d="M132.856 120.578c2.168-1.789 1.632-5.983-1.197-9.368-1.238-1.482-2.711-2.563-4.157-3.16l-1.651-1.927-21.308-26.995s-11.7-26.776-15.197-29.687c-3.496-2.911-7.65-1.445-7.65-1.445l-3.265 3.946 19.823 37.414 20.436 20.785 2.758 2.906c.325 1.523 1.124 3.16 2.362 4.641 2.829 3.385 6.879 4.679 9.046 2.89z" fill="#FFB6B6"/><path d="M77.194 45.92s5.216 26.903 11.152 30.87l11.828-9.167s1.035-.044-.891-2.207c-1.927-2.163-1.433-6.807-1.433-6.807s.867 1.114-1.02-.433c-1.886-1.547-.13-12.19-.13-12.19l-19.506-.066z" fill="#E6E6E6"/></g><defs><clipPath id="clip0_262_1373"><path fill="#fff" d="M0 0h308v225H0z"/></clipPath></defs></svg>