<svg width="264" height="247" fill="none" xmlns="http://www.w3.org/2000/svg"><g clip-path="url(#clip0_262_1378)"><path d="M244.042 188.962l11.844 1.852a38.697 38.697 0 008.05-16.783c-8.66 7.091-21.829 3.323-32.33 7.194a23.274 23.274 0 00-13.918 14.596l-5.788 6.229a38.97 38.97 0 0032.591-1.795 37.685 37.685 0 007.674-5.51c-4.144-2.611-8.123-5.783-8.123-5.783z" fill="#F2F2F2"/><path d="M239.838 170.014l11.426-3.626a38.71 38.71 0 00-.277-18.613c-4.589 10.21-18.057 12.713-25.729 20.863a23.27 23.27 0 00-5.95 19.273l-2.403 8.157a38.982 38.982 0 0028.37-16.146 37.671 37.671 0 004.411-8.356c-4.873-.487-9.848-1.552-9.848-1.552z" fill="#F2F2F2"/><path d="M264 205.824a.47.47 0 01-.136.329.47.47 0 01-.329.136H.465a.466.466 0 010-.93h263.07a.47.47 0 01.329.136.455.455 0 01.136.329z" fill="#CCC"/><path d="M109.011 185.995c46.395 0 84.005-37.624 84.005-84.034 0-46.411-37.61-84.034-84.005-84.034-46.395 0-84.006 37.623-84.006 84.034 0 46.41 37.61 84.034 84.006 84.034z" fill="#E6E6E6"/><path d="M181.295 101.961a72.241 72.241 0 01-7.693 32.491 72.199 72.199 0 01-23.327 26.88 72.277 72.277 0 01-105.844-26.886 72.337 72.337 0 0121.471-90.53 72.28 72.28 0 0186.217 0 72.201 72.201 0 0121.483 25.554 72.242 72.242 0 017.693 32.491z" fill="#fff"/><path d="M109.011 168.015c36.468 0 66.032-29.573 66.032-66.054s-29.564-66.055-66.032-66.055c-36.469 0-66.032 29.574-66.032 66.055 0 36.481 29.563 66.054 66.032 66.054z" fill="#BBBABA"/><path opacity=".2" d="M109.183 36.09c-1.001 0-1.996.027-2.986.071a66.025 66.025 0 0143.382 21.703 66.065 66.065 0 0116.853 45.498 66.06 66.06 0 01-18.768 44.741 66.019 66.019 0 01-44.263 19.842 66.02 66.02 0 0052.474-19.092 66.068 66.068 0 000-93.415 66.022 66.022 0 00-46.692-19.347z" fill="#000"/><path d="M109.206 31.216a2.153 2.153 0 00-2.149 2.15v9.38a2.15 2.15 0 003.669 1.52 2.15 2.15 0 00.629-1.52v-9.38a2.157 2.157 0 00-2.149-2.15zm42.914 12.699a60.52 60.52 0 00-1.845-1.325 2.149 2.149 0 00-1.914.934l-5.279 7.75a2.15 2.15 0 003.552 2.42l5.278-7.75a2.142 2.142 0 00.208-2.029zm23.982 35.341a2.147 2.147 0 00-2.798-1.18l-8.689 3.53a2.147 2.147 0 00-1.181 2.8 2.15 2.15 0 002.798 1.183l8.69-3.53a2.153 2.153 0 001.18-2.803zM74.94 51.275l-5.279-7.75a2.148 2.148 0 00-1.914-.935c-.622.43-1.239.872-1.845 1.325a2.137 2.137 0 00.207 2.029l5.28 7.75a2.149 2.149 0 103.55-2.42zm-21.533 30.33l-8.69-3.53a2.148 2.148 0 00-2.788 2.828c.222.525.643.941 1.17 1.156l8.69 3.53a2.148 2.148 0 002.788-2.828 2.15 2.15 0 00-1.17-1.156zm55.799 77.421a2.153 2.153 0 00-2.149 2.15v9.38a2.15 2.15 0 003.669 1.52 2.15 2.15 0 00.629-1.52v-9.38a2.157 2.157 0 00-2.149-2.15zm42.706-1.048l-5.278-7.75a2.146 2.146 0 00-2.985-.567 2.146 2.146 0 00-.567 2.986l5.279 7.751a2.142 2.142 0 001.914.934c.622-.43 1.239-.872 1.845-1.325a2.143 2.143 0 00-.208-2.029zm23.01-36.115l-8.689-3.529a2.146 2.146 0 00-2.8 1.182 2.15 2.15 0 001.182 2.801l8.69 3.529a2.15 2.15 0 001.617-3.983zM74.373 149.661a2.148 2.148 0 00-2.985.566l-5.279 7.751a2.137 2.137 0 00-.207 2.029c.606.453 1.223.895 1.845 1.325a2.149 2.149 0 001.914-.935l5.279-7.75a2.15 2.15 0 00-.567-2.986zm-19.786-30.147a2.153 2.153 0 00-1.154-1.17 2.143 2.143 0 00-1.643-.01l-8.69 3.529a2.15 2.15 0 001.617 3.983l8.69-3.529a2.156 2.156 0 001.18-2.803z" fill="#fff"/><path d="M111.994 100.894a4.5 4.5 0 01-3.676 5.185l-38.134 6.489a4.496 4.496 0 01-5.134-5.431 4.503 4.503 0 011.99-2.806 4.496 4.496 0 011.637-.626l38.134-6.488a4.498 4.498 0 015.183 3.677z" fill="#3F3D56"/><path d="M152.13 143.158a2.934 2.934 0 01-4.145.016l-41.05-40.742a2.934 2.934 0 01-.015-4.144 2.932 2.932 0 014.143-.018l41.05 40.742a2.936 2.936 0 01.017 4.146z" fill="#3F3D56"/><path d="M109.011 107.042a5.08 5.08 0 005.079-5.081 5.08 5.08 0 10-5.079 5.081z" fill="#CCC"/><path d="M74.024 13.854C66.227 26.116 54.331 34.254 39.66 39.6a2.757 2.757 0 01-3.86-.555c-7.97-10.644-6.17-25.856 4.347-33.99a24.249 24.249 0 0134.211 4.642l.22.295a2.757 2.757 0 01-.554 3.862zm69.64-4.157A24.26 24.26 0 01159.799.222a24.246 24.246 0 0118.076 4.834c10.518 8.133 12.317 23.345 4.348 33.99a2.752 2.752 0 01-1.816 1.076 2.761 2.761 0 01-2.045-.522c-13.62-5.217-24.789-14.243-34.364-25.746a2.758 2.758 0 01-.554-3.862l.22-.295zm-3.417 165.068a2.154 2.154 0 00-.826 2.926l12.402 22.17a2.147 2.147 0 003.943-.466 2.149 2.149 0 00-.192-1.633l-12.403-22.171a2.15 2.15 0 00-2.924-.826zm-65.397.826l-12.402 22.17a2.151 2.151 0 002.46 3.119 2.152 2.152 0 001.29-1.019l12.403-22.17a2.158 2.158 0 00.193-1.635 2.158 2.158 0 00-1.019-1.292 2.162 2.162 0 00-1.633-.192 2.134 2.134 0 00-1.291 1.019z" fill="#E6E6E6"/><path d="M154.335 205.538a6.644 6.644 0 006.642-6.645 6.643 6.643 0 10-13.285 0 6.644 6.644 0 006.643 6.645zm4.689-170.022a6.643 6.643 0 006.642-6.645 6.643 6.643 0 10-13.285 0 6.644 6.644 0 006.643 6.645zM108.62 19.881a6.644 6.644 0 006.643-6.644 6.644 6.644 0 10-13.285 0 6.643 6.643 0 006.642 6.644zM60.561 34.734a6.643 6.643 0 006.643-6.645 6.643 6.643 0 10-13.285 0 6.643 6.643 0 006.642 6.645zm4.299 170.804a6.644 6.644 0 006.641-6.645 6.643 6.643 0 10-13.284 0 6.644 6.644 0 006.642 6.645z" fill="#E6E6E6"/><path d="M149.125 139.421a3.32 3.32 0 003.813 1.38 3.327 3.327 0 001.247-.725l10.422 5.587-.559-6.121-9.812-4.367a3.34 3.34 0 00-4.441-.148 3.349 3.349 0 00-.67 4.394z" fill="#FFB7B7"/><path d="M156.719 141.557l4.084-5.64 19.677 9.305 24.485-4.596a8.381 8.381 0 013.648.124 8.379 8.379 0 015.488 4.546 8.407 8.407 0 01.801 3.563 8.404 8.404 0 01-8.374 8.407l-28.06.052-21.749-15.761z" fill="#E8E5E2"/><path d="M150.428 238.969l-4.133-1.977 5.677-17.279 6.099 2.918-7.643 16.338zm27.705-2.786a112.67 112.67 0 01-3.652 2.187v.009l-.018.003-.006.003-.468.115-.67-1.773-.31-.817-.437-1.157-.801-2.116-4.22-11.144 6.56-1.618.246 1.005h.003l.121.498 2.292 9.297.467 1.901.016.058.282 1.135.243.984.27 1.099.082.331z" fill="#FFB7B7"/><path d="M217.263 197.049a124.33 124.33 0 01-3.718 5.617c0 .003-.003.003-.006.006a8.592 8.592 0 01-1.609 1.176c-.024.018-.052.03-.076.045a5.948 5.948 0 01-1.354.544l-.513.127a33.666 33.666 0 01-5.272.814c-4.344.319-8.572-.194-12.986-1.036-2.179-.412-4.404-.907-6.708-1.421a327.27 327.27 0 00-2.274-.504c-.057-.012-.118-.027-.179-.039a255.45 255.45 0 00-3.342-.711 159.2 159.2 0 00-4.447-.85l.109 2.165a16.305 16.305 0 001.026 4.868c.656 1.919 1.175 3.437.079 6.598l-.528 1.53a5.23 5.23 0 01-.537 4.625l-.106.161 4.404 11.146.285.723h-2.255l-2.774.003h-4.702l-6.784-13.615-.325-.65v-.033l.701-26.166c.009-.23.027-.464.058-.695a7.96 7.96 0 013.026-5.356 7.656 7.656 0 015.704-1.561l2.322.301 4.744.613 3.342.434.067.009 9.856 1.276.707-2.885.131-.049 4.149-1.521 14.352-5.262.036-.012.944-.346.112.182c.034.055.067.109.097.164a28.088 28.088 0 012.268 5.265 82.795 82.795 0 012.383 9.1l.073.365.009.033c.009.052.015.085.018.094.331 1.379.1 3.061-.507 4.728z" fill="#D0D0D0"/><path d="M217.869 187.406a8.724 8.724 0 00-.164-.583 41.634 41.634 0 00-1.682-4.257 68.49 68.49 0 00-2.598-5.101 113.479 113.479 0 00-2.526-4.3l-.088-.145-14.199 1.9-5.288.708-.316 2.635-.076.653c-.003 0-.003 0 0 .003l-.212 1.78v.003l-.282 2.35-.025-.003-7.846-1.017-8.087-1.048-4.343-.562a7.656 7.656 0 00-5.704 1.561 7.949 7.949 0 00-3.026 5.356 7.362 7.362 0 00-.055.647l-4.098 9.714a62.706 62.706 0 00-4.632 18.231l-3.005 9.61.428.04 6.368.592 1.682.158 3.703-5.408c.422-.617.823-1.251 1.196-1.901a28.808 28.808 0 001.636-3.292l8.011-19.069c.619.107 1.232.208 1.839.304 2.808.455 5.504.827 8.087 1.114 8.399.939 15.672 1.012 22.146.216a60.324 60.324 0 007.537-1.4 7.73 7.73 0 003.354-1.842 7.733 7.733 0 002.064-3.223 7.905 7.905 0 00.201-4.424zm-66.121 48.741l-4.471-2.143-.701-.337-1.12 2.751-7.82 1.721a1.856 1.856 0 00-.303 3.532l7.64 3.118 2.425-2.183-.595 2.93 2.878 1.175 3.154-10.041-1.087-.523z" fill="#D0D0D0"/><path d="M179.226 231.91l.286.723h-.286v-.723z" fill="#2F2E41"/><path d="M177.669 232.787l-4.685 1.624-.735.254 1.139 2.743-4.345 6.727a1.85 1.85 0 00.132 2.197 1.856 1.856 0 002.136.526l7.622-3.161.188-3.259 1.638 2.501 2.871-1.19-4.822-9.355-1.139.393z" fill="#D0D0D0"/><path d="M216.701 191.805a1.71 1.71 0 01-.799-.198l-24.723-12.922-.285-1.17-.539-3.702.008-.035 2.351-10.844a5.89 5.89 0 00-.235-.418c-1.049-1.779-4.244-7.194 1.853-14.65l10.704-12.483 9.187-.396.104.132a23.948 23.948 0 014.068 22.236l-.957 17.282 1.026 3.49a9.63 9.63 0 01-.282 6.232l.236 5.652a1.731 1.731 0 01-1.044 1.654 1.715 1.715 0 01-.673.14z" fill="#E8E5E2"/><path d="M195.255 206.058a3.319 3.319 0 001.512-3.764 3.342 3.342 0 00-.681-1.271l5.944-10.226-6.135.346-4.704 9.657a3.351 3.351 0 00-.303 4.435 3.347 3.347 0 004.367.823z" fill="#FFB7B7"/><path d="M197.654 198.54l-5.493-4.279 9.981-19.348-3.74-24.639a8.4 8.4 0 012.023-6.834 8.388 8.388 0 016.547-2.813 8.4 8.4 0 018.108 8.664l-.924 28.055-16.502 21.194z" fill="#E8E5E2"/><path d="M199.143 130.196v-9.094a12.188 12.188 0 013.562-8.619 12.179 12.179 0 0117.227-.011 12.187 12.187 0 013.574 8.614v.016c2.147 4.475.804 6.603 0 9.094a1.638 1.638 0 01-1.636 1.636h-21.091a1.637 1.637 0 01-1.636-1.636z" fill="#2F2E41"/><path d="M207.33 131.241c5.036 0 9.119-4.084 9.119-9.121 0-5.038-4.083-9.122-9.119-9.122s-9.118 4.084-9.118 9.122c0 5.037 4.082 9.121 9.118 9.121z" fill="#FFB7B7"/><path d="M216.873 124.511c-.082-.013-.165-.031-.248-.044-1.422-.252-2.844-.5-4.262-.757l-.131-3.215-1.718 2.88c-3.919 1.301-7.586.566-11.035-1.057a31.066 31.066 0 01-3.306-1.823 12.096 12.096 0 015.938-8.554c.13-.074.256-.14.387-.205h.001l.002-.001.001-.002v-.001c.222-.105.448-.205.674-.296a10.044 10.044 0 0110.544 2.045c2.783 2.658 4.036 7.049 3.153 11.03z" fill="#2F2E41"/></g><defs><clipPath id="clip0_262_1378"><path fill="#fff" d="M0 0h264v247H0z"/></clipPath></defs></svg>