<svg width="307" height="228" fill="none" xmlns="http://www.w3.org/2000/svg"><g clip-path="url(#clip0_262_1383)"><path d="M277.989 226.944h-65.095v-2.003c0-1.739.689-3.406 1.916-4.636a6.531 6.531 0 014.624-1.92h52.015c1.735 0 3.398.691 4.624 1.92a6.563 6.563 0 011.916 4.636v2.003z" fill="#E6E6E6"/><path d="M243.918 218.785l1.98-.8c-20.713-51.544-18.717-116.571-1.208-172.353a34.928 34.928 0 00.431-19.942 34.84 34.84 0 00-10.553-16.91C224.405-.312 210.395-2.527 198.001 3c-12.233 5.455-13.919 14.958-13.919 24.414h2.134c0-10.094 2.152-17.777 12.653-22.46 11.615-5.179 24.749-3.101 34.278 5.423a32.724 32.724 0 019.912 15.882 32.8 32.8 0 01-.405 18.73c-17.711 56.427-19.59 121.9 1.264 173.796zm-58.235-159.81c4.125 0 7.47-3.353 7.47-7.489 0-4.136-3.345-7.489-7.47-7.489-4.126 0-7.47 3.353-7.47 7.49 0 4.135 3.344 7.488 7.47 7.488zm-11.504 5.567v-14.19h2.201v14.19a2.941 2.941 0 011.779 3.29 2.94 2.94 0 01-2.88 2.38 2.94 2.94 0 01-2.88-2.38 2.947 2.947 0 011.78-3.29z" fill="#E6E6E6"/><path d="M163.54 39.45a12.337 12.337 0 013.598-8.695 12.27 12.27 0 018.674-3.608h20.275c3.255 0 6.376 1.296 8.678 3.604a12.32 12.32 0 013.594 8.7c0 3.263-1.293 6.392-3.594 8.7a12.258 12.258 0 01-8.678 3.603h-20.275a12.272 12.272 0 01-8.674-3.608 12.337 12.337 0 01-3.598-8.696z" fill="#E8E5E2"/><path d="M134.973 115.641c2.036-26.112 12.444-38.553 5.779-46.354-6.383-7.473-24.366-5.93-35.914 1.241-31.15 19.342-42.562 96.432-2.477 134.096 38.09 35.79 110.278 24.327 126.321-4.967 3.743-6.835 6.717-18.817 1.238-26.074-13.601-18.016-63.053 14.616-85.039-5.794-13.031-12.096-11.025-37.818-9.908-52.148z" fill="#BBBABA"/><path d="M158.784 102.669a3.211 3.211 0 00-1.604 4.171c.069.155.151.304.244.446l-6.686 8.95 3.336 4.999 7.837-13.254a3.195 3.195 0 00.97-3.779 3.05 3.05 0 00-2.859-1.826c-.4.008-.795.096-1.162.258l-.076.035z" fill="#FFB6B6"/><path d="M158.778 118.1c.438.389-.776.869-2.06.111-.367-.219-.524-.31-.565-.252-.104.145.499 1.213.338 3.584-.099 1.416-2.444 4.077-5.106 6.672-3.6 3.509-7.786 6.895-7.786 6.895l-1.47-1.18-15.41-12.387-2.601-3.609a25.741 25.741 0 011.069-4.192 45.663 45.663 0 012.32-5.521c.479-.973.971-1.9 1.441-2.753l8.256 9.122 6.919 7.64s2.015-3.253 3.575-4.139c.199-.127.426-.205.661-.227 1.577-.075 1.672-.936-.157-2.81-1.829-1.875.479-.125 2.105-.629 1.627-.505 0 0 .343-1.263.342-1.262 4.904-3.795 4.904-3.795l.19.17 3.447 3.05.987.873s-1.078 2.964-1.375 3.588c-.297.625-.458.659-.025 1.052z" fill="#E8E5E2"/><path d="M249.646 175.593l.168-4.565-17.483-2.822-.248 6.737 17.563.65z" fill="#FFB6B6"/><path d="M246.472 176.968l-.165-7.31 3.116.116 5.032-6.758a1.942 1.942 0 013.172.07c.234.344.352.755.336 1.171l-.319 8.683-3.138 1.382 3.061.699-.12 3.274-10.975-1.327z" fill="#C3C1C1"/><path d="M151.248 177.371l55.376 1.408s23.913 1.384 29.524-2.275l5.916-.749.321-8.713s-3.618.027-5.698-.945c-2.08-.972-.635-2.161-2.618-.991-1.983 1.169-1.774 1.309-3.307.772-1.533-.537-71.85-11.283-71.85-11.283l-7.664 22.776z" fill="#D0D0D0"/><path d="M224.219 173.59l3.22-3.232-10.902-13.991-4.753 4.771 12.435 12.452z" fill="#FFB6B6"/><path d="M220.96 170.778l4.837-5.471 2.207 2.209 8.272-1.522a1.951 1.951 0 012.279 2.214 1.966 1.966 0 01-.548 1.087l-6.125 6.148-3.238-1.127 1.77 2.6-2.309 2.318-7.145-8.456z" fill="#C3C1C1"/><path d="M129.4 146.965l.55 12.83c.649 15.104 17.239 24.245 30.104 16.359.237-.145.475-.295.714-.451 0 0 4.877-1.313 4.729-3.393-.148-2.079 1.043-3.091 2.098-2.524 1.054.567 14.859-19.076 14.859-19.076s28.684 14.344 35.011 17.721c0 0 5.949-9.326 5.518-9.228-.431.098-35.484-24.499-35.484-24.499s-5.711-5.795-12.794-1.969c-.148.562-.022.582-.022.582l-23.4 19.116-3.306-6.295-18.577.827z" fill="#D0D0D0"/><path d="M151.463 130.926a13.291 13.291 0 01-.251 1.763 10.431 10.431 0 01-.81 2.433s0 .865-1.651 3.762c-1.651 2.898.413 1.656 1.651 3.808 1.239 2.148 0 1.159-1.374 2.541a3.167 3.167 0 00-.781 3.117s-17.734.012-21.037-1.229c-3.302-1.242-4.053-8.237-1.094-8.928 2.956-.691-.895-1.378-2.633-2.971-1.738-1.594 1.738-4.201 1.738-4.201s-1.433-2.479-1.313-10.802c.017-.766.087-1.529.21-2.285a25.744 25.744 0 011.07-4.192 45.745 45.745 0 012.32-5.522c.479-.972.97-1.899 1.44-2.752.075-.132.145-.261.219-.389a69.783 69.783 0 012.923-4.73l3.005-5.24 10.032 4.714-.57 7.71 1.73 5.815.796 2.678.615 2.065.95 3.2s-.26.012.049.438a14.152 14.152 0 012.688 6.486c.119.898.145 1.807.078 2.711z" fill="#E8E5E2"/><path d="M180.433 131.757l-.188-.061-24.01-7.751 8.847-29.1a3.992 3.992 0 014.144-2.822 3.973 3.973 0 011.706.542l15.343 9.088a6.037 6.037 0 012.582 7.289l-8.424 22.815z" fill="#2F2E41"/><path d="M180.53 133.607l-24.203-7.814 8.848-29.1a4.002 4.002 0 012.372-2.564 3.982 3.982 0 013.477.284l16.076 8.047c2.415 1.43 2.358 5.132 1.237 8.169l-7.807 22.978z" fill="#E8E5E2"/><path d="M178.107 135.713a4.6 4.6 0 01-3.699.369l-15.47-4.995a4.784 4.784 0 01-2.754-2.337 4.807 4.807 0 01-.342-3.6l7.756-25.51a4.005 4.005 0 011.979-2.385 3.988 3.988 0 013.085-.25l16.032 5.277a6.012 6.012 0 013.529 3.083 6.04 6.04 0 01.258 4.686l-8.293 23.178a4.622 4.622 0 01-2.081 2.484z" fill="#3F3D56"/><path d="M144.559 95.198c6.12 0 11.081-4.973 11.081-11.108 0-6.136-4.961-11.109-11.081-11.109-6.119 0-11.08 4.974-11.08 11.109s4.961 11.108 11.08 11.108z" fill="#FFB6B6"/><path d="M107.091 95.366a9.62 9.62 0 004.719 4.422c.812.371 1.666.642 2.543.807a9.988 9.988 0 011.177-2.793 8.218 8.218 0 000 2.951 9.751 9.751 0 003.949-.492 8.486 8.486 0 005.327-5.41c.883-2.945-.068-6.09-.143-9.164-.077-3.074 1.379-6.75 4.423-7.13 2.318-.29 2.031-.065 3.697 1.576-2.33 2.595 3.349 14.087 6.397 13.58 1.723-.288 2.991-1.66 3.332-1.612 1.745 4.285-3.504 10.361.659 12.356l-.309-.41c-2.179-3.609 4.269-9.705 2.09-13.315-.608-1.01-1.239-2.193-.863-3.31.356-1.062 2.163-1.398 2.544-.432-.619-2.215 1.11-4.815 3.408-5.041 2.041-.202 1.923.38 3.869.913.249-.84.608-1.644 1.066-2.39a8.18 8.18 0 00-.056 2.58 3.203 3.203 0 002.019-.43c1.797-1.08 1.851-3.868.616-5.564-1.237-1.698-3.308-2.536-5.307-3.17-.018-4.237-11.392-6.266-13.483-2.326-.215-3.19-3.863-5.34-7.005-4.797-3.142.542-5.621 3.067-7.132 5.883-1.511 2.813-2.261 5.963-3.367 8.96-1.106 2.996-2.687 5.984-5.336 7.761-2.648 1.776-6.584 1.937-8.795-.364a7.045 7.045 0 00-.039 6.36z" fill="#2F2E41"/><path d="M118.46 146.166c.23-.184.478-.342.742-.471 4.241-2.116 17.43-7.609 27.742-7.384 19.843.434 45.095 22.388 39.218 37.132-4.472 11.218-26.704 17.601-42.933 12.496-22.735-7.151-31.709-36.226-24.769-41.773z" fill="#AFAFAF"/><path d="M36.087 226.986c-6.484-1.226-12.223-30.511.533-44.934 4.37-4.941 9.822-7.092 17.074-9.094 41.739-11.52 73.574-.541 77.852 2.14 4.268 2.675 11.751 42.974 2.182 48.679-5.384 3.209-16.055 4.814-21.342 1.07-7.78-5.51 5.279-19.802-.534-29.422-6.595-10.916-41.327-14.593-58.74-3.744-18.578 11.575 19.742 42.259-17.026 35.305z" fill="#F2F2F2"/><path d="M79.435 177.195h-24.77c-6.114-5.875-10.486-11.537-6.986-16.237a5.1 5.1 0 011.488-3.602 5.072 5.072 0 013.593-1.492h28.58c1.348 0 2.64.536 3.593 1.492a5.1 5.1 0 011.489 3.602c1.332 5.355-1.049 10.768-6.987 16.237z" fill="#CCC"/><path d="M74.987 149.451a1.145 1.145 0 01-1.111-.705 1.155 1.155 0 01.28-1.289l.078-.313-.031-.075a3.084 3.084 0 00-2.85-1.885 3.074 3.074 0 00-2.834 1.906c-.93 2.245-2.114 4.493-2.405 6.867a9.164 9.164 0 00.16 3.143 36.724 36.724 0 01-3.325-15.219c0-1.318.073-2.635.22-3.945.12-1.074.288-2.14.502-3.199a37.104 37.104 0 017.332-15.709 9.856 9.856 0 004.092-4.256 7.544 7.544 0 00.682-2.057c-.199.027-.75-3.015-.6-3.202-.278-.422-.775-.632-1.078-1.044-1.508-2.05-3.586-1.692-4.67 1.093-2.317 1.173-2.34 3.117-.918 4.987.904 1.19 1.029 2.799 1.822 4.073-.081.105-.166.206-.248.311a37.291 37.291 0 00-3.883 6.169 15.55 15.55 0 00-.924-7.204c-.884-2.137-2.54-3.938-4-5.786-1.752-2.22-5.346-1.251-5.655 1.563l-.008.082c.216.122.428.252.636.39a1.56 1.56 0 01.2 2.436 1.556 1.556 0 01-.828.404l-.031.004c.077.783.213 1.56.408 2.322-1.872 7.257 2.17 9.9 7.939 10.019.127.065.252.131.379.193a38.165 38.165 0 00-2.044 9.645 36.223 36.223 0 00.026 5.832l-.01-.069a9.547 9.547 0 00-3.25-5.51c-2.5-2.06-6.033-2.818-8.73-4.474a1.78 1.78 0 00-1.924-.004 1.79 1.79 0 00-.802 1.819 10.406 10.406 0 011.809.957 1.555 1.555 0 01.655 1.635 1.56 1.56 0 01-1.283 1.204l-.031.005a1.467 1.467 0 01-.066.01 15.544 15.544 0 002.851 4.476c1.17 6.335 6.197 6.936 11.574 5.091h.003a38.135 38.135 0 002.551 7.465h9.111c.033-.101.063-.206.092-.308-.843.054-1.69.003-2.521-.15.676-.832 1.352-1.67 2.028-2.502a.511.511 0 00.042-.049c.343-.425.69-.848 1.032-1.273v-.001a15.24 15.24 0 00-.444-3.873zm31.077 26.414a2.208 2.208 0 002.121 1.489l9.087-.234a2.172 2.172 0 002.052-1.602l1.286-13.785c.456.207.952.309 1.453.299a3.305 3.305 0 002.318-1.032 3.326 3.326 0 00-.117-4.697 3.312 3.312 0 00-2.367-.914c-.2 0-.4.02-.596.062a2.249 2.249 0 00-1.671-.723l-13.978.362a1.997 1.997 0 00-.345.043 2.184 2.184 0 00-1.771 1.92 2.2 2.2 0 00.099.922l2.429 17.89zm14.809-15.068l.915-3.286c.104-.379.107-.779.007-1.16.045 0 .084-.021.128-.021a2.368 2.368 0 012.418 2.32 2.37 2.37 0 01-2.307 2.431 2.225 2.225 0 01-1.161-.284z" fill="#CCC"/><path d="M105.307 155.133c.297 1.707 3.646 2.907 7.671 2.698 3.702-.171 6.729-1.474 7.284-3.018a2.054 2.054 0 00-.633-.085l-13.978.362a1.985 1.985 0 00-.344.043z" fill="#fff"/><path d="M.487 227.633l306.026.125a.487.487 0 100-.975L.487 226.657a.484.484 0 00-.487.488.49.49 0 00.487.488z" fill="#CACACA"/><path d="M172.128 118.592a3.207 3.207 0 00-3.081 3.232c.005.17.023.339.055.506l-9.604 5.684 1.162 5.901 12.317-9.213a3.2 3.2 0 002.345-3.115 3.07 3.07 0 00-.936-2.145 3.053 3.053 0 00-2.175-.853c-.028.001-.056.001-.083.003z" fill="#FFB6B6"/><path d="M164.26 132.144c-.257-.345-.367-.489-.426-.45-.15.091-.006 1.31-1.063 3.435-1.489 2.985-17.103 7.557-17.103 7.557l-1.922-3.528-8.455-15.505-2.915-12.429a5.549 5.549 0 01-.147-1.322 52.37 52.37 0 018.244-4.758 5.53 5.53 0 012.477 2.959l5.821 16.361 2.322 6.533s4.097-2.937 5.583-2.398c1.484.542 1.906-.218.936-2.653-.97-2.435.486.071 2.18.23 1.697.162 0 0 .802-1.033.801-1.033 5.985-1.614 5.985-1.614l.11.23 2.009 4.143.575 1.19s-2.13 2.317-2.643 2.779c-.517.465-.676.432-.423.962.249.528-1.055.504-1.947-.689z" fill="#E8E5E2"/></g><defs><clipPath id="clip0_262_1383"><path fill="#fff" d="M0 0h307v228H0z"/></clipPath></defs></svg>