<svg width="12" height="7" viewBox="0 0 12 7" fill="none" xmlns="http://www.w3.org/2000/svg">
<path d="M5.99991 6.67737C5.87939 6.67737 5.76721 6.65814 5.66338 6.61967C5.55953 6.58122 5.46081 6.5152 5.36723 6.4216L0.873005 1.92737C0.734539 1.78892 0.663705 1.61489 0.660505 1.40527C0.657289 1.19568 0.728122 1.01844 0.873005 0.873575C1.01787 0.728692 1.1935 0.65625 1.3999 0.65625C1.6063 0.65625 1.78194 0.728692 1.9268 0.873575L5.99991 4.94665L10.073 0.873575C10.2115 0.735108 10.3855 0.664275 10.5951 0.661075C10.8047 0.657858 10.9819 0.728692 11.1268 0.873575C11.2717 1.01844 11.3441 1.19407 11.3441 1.40047C11.3441 1.60687 11.2717 1.78251 11.1268 1.92737L6.63258 6.4216C6.539 6.5152 6.44028 6.58122 6.33643 6.61967C6.2326 6.65814 6.12042 6.67737 5.99991 6.67737Z" fill="white" fill-opacity="0.9"/>
</svg>
