<svg width="286" height="286" viewBox="0 0 286 286" fill="none" xmlns="http://www.w3.org/2000/svg">
<path d="M46.7863 63.8447L48.3175 64.9554L39.7808 76.8283L23.0327 64.7639L31.3015 53.2549L32.8327 54.3656L25.8081 64.0937L31.78 68.3832L38.039 59.7084L39.5319 60.7999L33.3112 69.4748L39.5319 73.9558L46.7863 63.8447Z" fill="#44423D"/>
<path d="M50.8441 33.0508L58.6343 54.2688L57.0648 55.7625L36.144 47.26L37.8284 45.6131L56.012 53.024L49.2362 34.5828L50.8441 33.0508Z" fill="#44423D"/>
<path d="M75.4776 28.4578L77.2194 27.3088L81.5643 33.8963C81.2054 35.1695 80.6006 36.3601 79.7842 37.4007C78.9176 38.5188 77.8694 39.4833 76.6834 40.2541C75.0794 41.3474 73.2199 42.007 71.2858 42.169C69.4542 42.3343 67.6127 41.9897 65.9647 41.1732C64.2815 40.3153 62.8497 39.0349 61.8096 37.4572C60.7695 35.8795 60.1567 34.0586 60.0311 32.1728C59.9339 30.3354 60.3445 28.5067 61.2178 26.8875C62.1566 25.1683 63.5125 23.713 65.1608 22.6554C66.3895 21.8287 67.7579 21.2318 69.1994 20.8936C70.5206 20.5771 71.8978 20.5771 73.219 20.8936L72.8553 22.8086C71.7282 22.5904 70.5685 22.6035 69.4465 22.8471C68.3246 23.0907 67.2637 23.5597 66.3284 24.2256C64.9966 25.0811 63.9034 26.2605 63.151 27.6535C62.4385 28.973 62.1072 30.4649 62.194 31.9622C62.2745 33.4988 62.7779 34.9833 63.6487 36.2517C64.4602 37.5223 65.6006 38.5493 66.9486 39.2236C68.2966 39.898 69.802 40.1945 71.3049 40.0817C72.8753 39.9517 74.3853 39.4174 75.6881 38.5306C77.3313 37.5222 78.6064 36.0115 79.3249 34.2219L75.4776 28.4578Z" fill="#44423D"/>
<path d="M102.924 24.9918L103.633 26.7345L90.1576 32.3262L82.2334 13.2339L95.3447 7.81445L96.0529 9.55709L85.0088 14.1339L87.8225 20.9321L97.6799 16.834L98.4072 18.5575L88.5115 22.6364L91.4592 29.7219L102.924 24.9918Z" fill="#44423D"/>
<path d="M123.194 0.994141L127.271 21.2547L125.491 21.5994L109.202 7.75403L112.494 24.2037L110.331 24.625L106.292 4.34536L108.053 4.00066L124.4 17.8268L121.107 1.37714L123.194 0.994141Z" fill="#44423D"/>
<path d="M135.061 0.0957491L137.262 0L138.219 20.6435L136.018 20.7393L135.061 0.0957491Z" fill="#44423D"/>
<path d="M160.402 16.1429L148.918 15.0705L145.932 20.3367L143.673 20.1261L155.1 0.420898L157.244 0.612397L164.728 22.0794L162.431 21.8687L160.402 16.1429ZM159.771 14.2279L155.942 2.73803L149.971 13.3853L159.771 14.2279Z" fill="#44423D"/>
<path d="M194.376 29.5113L193.745 31.2731L177.839 25.3558L178.375 23.9387L197.209 12.5254L184.557 7.81452L185.227 6.05273L200.559 11.7594L200.061 13.1765L181.208 24.6089L194.376 29.5113Z" fill="#44423D"/>
<path d="M213.249 35.9808L203.353 30.0826L198.396 33.5488L196.481 32.3806L215.182 19.4736L217.096 20.5843L214.627 43.1811L212.713 41.9938L213.249 35.9808ZM213.478 34.0658L214.914 21.9823L204.961 28.9719L213.478 34.0658Z" fill="#44423D"/>
<path d="M236.618 50.7275C236.55 51.9509 236.04 53.1078 235.183 53.983C234.684 54.5985 234.039 55.0789 233.307 55.38C232.574 55.6812 231.778 55.7934 230.991 55.7065C228.983 55.3315 227.139 54.3489 225.708 52.8915L218.626 46.5337L232.426 31.2139L239.068 37.0929C240.554 38.2663 241.626 39.883 242.131 41.708C242.295 42.4522 242.27 43.2256 242.06 43.9579C241.849 44.6903 241.459 45.3584 240.925 45.9018C240.252 46.6848 239.358 47.2456 238.36 47.5104C237.391 47.7349 236.377 47.6614 235.451 47.2997C236.21 48.2731 236.621 49.4734 236.618 50.7084M230.646 53.6192C231.215 53.6913 231.793 53.6145 232.323 53.3964C232.853 53.1782 233.317 52.826 233.671 52.3744C235.393 50.4594 234.857 48.2381 232.082 45.7486L226.665 40.9228L221.478 46.6678L226.895 51.5318C227.942 52.5841 229.272 53.3093 230.723 53.6192M232.943 33.9523L227.928 39.544L232.828 43.9485C233.78 44.9305 235.009 45.5986 236.35 45.8635C236.889 45.9302 237.435 45.8579 237.938 45.6534C238.44 45.4489 238.882 45.1191 239.221 44.6953C239.601 44.3078 239.879 43.8319 240.029 43.3105C240.179 42.789 240.198 42.2383 240.083 41.708C239.689 40.4073 238.908 39.258 237.843 38.4142L232.943 33.9523Z" fill="#44423D"/>
<path d="M239.049 65.2415C238.796 63.415 239.048 61.5542 239.776 59.8604C240.524 58.1338 241.728 56.6441 243.26 55.5517C244.774 54.4127 246.565 53.6987 248.447 53.4835C250.276 53.2839 252.124 53.5955 253.787 54.3835C255.543 55.2059 257.059 56.4652 258.19 58.0412C259.359 59.5789 260.11 61.3931 260.372 63.3074C260.622 65.1276 260.37 66.9816 259.644 68.6693C258.874 70.3939 257.671 71.8895 256.151 73.0104C254.632 74.1313 252.848 74.8393 250.974 75.0654C249.145 75.258 247.298 74.9467 245.633 74.1653C243.899 73.323 242.396 72.0699 241.255 70.5148C240.114 68.9597 239.37 67.1496 239.087 65.2415M246.361 72.2886C247.706 72.9094 249.197 73.1416 250.667 72.9589C252.18 72.741 253.615 72.1488 254.842 71.2359C256.069 70.323 257.048 69.1183 257.692 67.731C258.3 66.3819 258.519 64.8893 258.324 63.4223C258.093 61.8882 257.494 60.4331 256.577 59.1822C255.66 57.9313 254.453 56.9219 253.06 56.2411C251.71 55.6141 250.212 55.3754 248.734 55.5517C247.206 55.7288 245.752 56.3105 244.523 57.2369C243.269 58.1286 242.282 59.3473 241.671 60.7604C241.068 62.1246 240.856 63.6297 241.059 65.1075C241.284 66.6385 241.881 68.0907 242.799 69.3362C243.717 70.5818 244.927 71.5825 246.322 72.2503" fill="#44423D"/>
<path d="M269.539 76.3486L270.458 78.3211L253.538 86.4406L258.534 96.8773L256.811 97.7007L250.896 85.2916L269.539 76.3486Z" fill="#44423D"/>
<path d="M260.716 105.551C261.145 103.761 262.059 102.125 263.358 100.821C264.706 99.5106 266.367 98.5672 268.183 98.0811C270 97.595 271.91 97.5825 273.732 98.0446C275.505 98.5299 277.108 99.4977 278.364 100.84C279.673 102.263 280.618 103.982 281.118 105.849C281.618 107.717 281.658 109.678 281.235 111.564C280.793 113.349 279.881 114.982 278.594 116.294C277.244 117.615 275.576 118.564 273.752 119.05C271.928 119.537 270.009 119.544 268.181 119.071C266.414 118.582 264.814 117.622 263.549 116.294C262.221 114.892 261.279 113.171 260.812 111.296C260.294 109.42 260.261 107.444 260.716 105.551ZM264.908 114.782C265.951 115.862 267.278 116.625 268.736 116.984C270.217 117.376 271.773 117.376 273.254 116.984C274.732 116.589 276.079 115.81 277.158 114.724C278.228 113.679 278.979 112.351 279.321 110.894C279.669 109.388 279.642 107.82 279.242 106.327C278.841 104.834 278.08 103.463 277.024 102.334C275.978 101.249 274.654 100.474 273.196 100.094C271.712 99.6824 270.144 99.6824 268.66 100.094C267.175 100.479 265.816 101.245 264.717 102.315C263.66 103.37 262.912 104.695 262.554 106.145C262.162 107.645 262.162 109.221 262.554 110.722C262.961 112.219 263.73 113.594 264.793 114.724" fill="#44423D"/>
<path d="M283.378 130.791L282.842 123.553L284.698 123.399L286 140.06L284.105 140.213L283.55 132.974L264.83 134.43L264.658 132.247L283.378 130.791Z" fill="#44423D"/>
<path d="M265.673 148.156C266.153 146.963 266.907 145.9 267.875 145.054L269.482 146.05C268.603 146.835 267.904 147.802 267.434 148.884C266.87 150.088 266.532 151.387 266.439 152.714C266.215 154.162 266.456 155.644 267.128 156.946C267.38 157.403 267.744 157.789 268.186 158.067C268.628 158.345 269.133 158.506 269.655 158.535C270.015 158.579 270.381 158.549 270.73 158.447C271.079 158.345 271.403 158.173 271.684 157.942C272.234 157.462 272.671 156.867 272.966 156.199C273.389 155.23 273.76 154.239 274.076 153.231C274.481 151.996 274.961 150.788 275.512 149.611C275.955 148.718 276.612 147.948 277.426 147.371C278.333 146.751 279.436 146.486 280.527 146.624C281.535 146.695 282.5 147.061 283.302 147.677C284.191 148.37 284.857 149.309 285.216 150.377C285.656 151.768 285.8 153.236 285.637 154.686C285.544 155.859 285.287 157.013 284.871 158.114C284.506 159.132 283.976 160.083 283.302 160.929L281.618 160.048C282.848 158.455 283.592 156.539 283.761 154.533C283.985 153.105 283.729 151.644 283.034 150.377C282.763 149.924 282.387 149.542 281.937 149.265C281.487 148.988 280.977 148.825 280.45 148.788C280.086 148.745 279.718 148.775 279.366 148.877C279.014 148.979 278.686 149.151 278.402 149.382C277.836 149.874 277.391 150.49 277.1 151.182C276.775 151.909 276.411 152.905 275.99 154.15C275.598 155.371 275.131 156.567 274.593 157.731C274.145 158.622 273.489 159.39 272.679 159.971C271.788 160.595 270.693 160.856 269.616 160.699C268.604 160.63 267.637 160.256 266.841 159.627C265.976 158.915 265.343 157.962 265.023 156.888C264.592 155.489 264.455 154.015 264.621 152.56C264.739 151.046 265.095 149.56 265.673 148.156Z" fill="#44423D"/>
<path d="M270.765 175.467L267.664 170.297L262.4 168.937L262.975 166.812L282.957 172.02L282.422 174.127L270.344 170.986L279.378 185.885L278.727 188.317L271.932 177.306L258.572 183.721L259.223 181.212L270.765 175.467Z" fill="#44423D"/>
<path d="M256.237 202.14L261.098 191.704L257.136 187.127L258.093 185.059L272.832 202.293L271.913 204.208L249.193 204.036L250.169 201.949L256.237 202.14ZM258.151 202.14L270.305 202.332L262.342 193.14L258.151 202.14Z" fill="#44423D"/>
<path d="M248.619 217.5L242.762 213.421L243.987 211.659L249.863 215.738L265.674 216.657L264.315 218.572L250.763 217.768L256.237 230.215L255.012 232.015L248.619 217.5Z" fill="#44423D"/>
<path d="M230.072 236.457L238.15 228.242L235.949 222.612L237.537 220.984L245.653 242.222L244.141 243.754L222.78 236.094L224.388 234.447L230.072 236.457ZM231.891 237.128L243.375 241.379L238.877 230.061L231.891 237.128Z" fill="#44423D"/>
<path d="M218.665 239.235C218.877 239.261 219.082 239.331 219.266 239.44C219.451 239.548 219.611 239.694 219.737 239.866C219.872 240.03 219.972 240.22 220.028 240.425C220.084 240.629 220.096 240.843 220.062 241.053C220.041 241.257 219.977 241.455 219.875 241.633C219.773 241.81 219.634 241.965 219.469 242.087C219.138 242.345 218.718 242.462 218.301 242.412C218.09 242.386 217.885 242.318 217.7 242.213C217.514 242.107 217.352 241.965 217.222 241.796C217.092 241.627 216.996 241.433 216.942 241.227C216.887 241.02 216.875 240.805 216.904 240.594C216.923 240.386 216.986 240.185 217.088 240.004C217.19 239.822 217.33 239.665 217.498 239.541C217.662 239.415 217.85 239.324 218.051 239.271C218.251 239.219 218.46 239.206 218.665 239.235Z" fill="#44423D"/>
<path d="M211.277 268.418L209.325 269.452L199.582 251.24L201.496 250.206L211.277 268.418Z" fill="#44423D"/>
<path d="M182.202 280.596L175.35 261.102L177.054 260.508L195.122 271.921L189.552 256.104L191.62 255.376L198.472 274.87L196.768 275.464L178.642 264.051L184.231 279.869L182.202 280.596Z" fill="#44423D"/>
<path d="M165.57 282.11L172.747 280.999L173.054 282.876L156.516 285.423L156.248 283.546L163.426 282.435L160.555 263.879L162.698 263.554L165.57 282.11Z" fill="#44423D"/>
<path d="M133.147 266.903L133.185 265.007L147.79 265.198L147.483 285.861L133.338 285.669V283.774L145.32 283.927L145.416 276.573L134.736 276.42L134.774 274.563L145.454 274.716L145.531 267.037L133.147 266.903Z" fill="#44423D"/>
<path d="M112.17 261.427L115.5 268.8C116.036 268.8 116.572 268.934 117.146 269.03L122.582 270.121L123.864 263.687L126.008 264.108L121.95 284.369L114.294 282.856C112.073 282.563 110.033 281.474 108.552 279.792C107.947 279.02 107.525 278.121 107.32 277.162C107.114 276.203 107.13 275.21 107.365 274.258C107.568 272.806 108.24 271.461 109.279 270.428C110.342 269.474 111.685 268.89 113.107 268.762L109.547 260.814L112.17 261.427ZM111.959 271.347C111.359 271.734 110.843 272.237 110.441 272.828C110.04 273.418 109.761 274.083 109.622 274.784C109.482 275.484 109.485 276.205 109.63 276.904C109.775 277.604 110.06 278.267 110.466 278.854C111.608 280.086 113.145 280.879 114.811 281.094L120.209 282.205L122.238 272.036L116.859 270.964C115.232 270.537 113.508 270.686 111.978 271.385" fill="#44423D"/>
<path d="M101.094 257.83L94.2407 277.322L96.2991 278.047L103.152 258.555L101.094 257.83Z" fill="#44423D"/>
<path d="M89.0674 254.151C90.0785 255.691 90.6479 257.479 90.7135 259.321C90.76 261.206 90.3042 263.07 89.3928 264.721C88.512 266.399 87.1879 267.804 85.5647 268.781C83.9884 269.734 82.1812 270.238 80.3393 270.236C78.4114 270.209 76.5186 269.716 74.8223 268.799C73.1259 267.882 71.6762 266.569 70.5967 264.97C69.5965 263.433 69.0341 261.652 68.9697 259.819C68.9005 257.925 69.3577 256.049 70.2904 254.4C71.1729 252.723 72.4966 251.319 74.1186 250.34C75.6885 249.386 77.488 248.876 79.3248 248.865C81.2571 248.895 83.1536 249.391 84.8531 250.311C86.5527 251.231 88.005 252.548 89.0866 254.151M79.5162 250.876C78.0331 250.893 76.5831 251.317 75.3244 252.102C74.0503 252.932 73.0033 254.068 72.2781 255.405C71.5529 256.743 71.1724 258.24 71.1709 259.761C71.2016 261.243 71.6386 262.687 72.4342 263.936C73.2885 265.227 74.4483 266.288 75.8107 267.023C77.1731 267.758 78.6958 268.145 80.2436 268.149C81.7309 268.139 83.1871 267.722 84.4545 266.943C85.7596 266.134 86.8238 264.99 87.5362 263.63C88.2831 262.284 88.6596 260.764 88.6272 259.225C88.5926 257.733 88.1418 256.281 87.3256 255.031C86.449 253.735 85.2478 252.692 83.842 252.006C82.4888 251.258 80.9666 250.869 79.4205 250.876" fill="#44423D"/>
<path d="M58.959 232.014L58.27 240.076C58.7102 240.382 59.1504 240.708 59.5907 241.072L63.8399 244.653L68.07 239.635L69.7352 241.053L56.3368 256.851L50.4223 251.853C48.6401 250.516 47.3916 248.588 46.9004 246.414C46.7423 245.447 46.8066 244.456 47.0886 243.517C47.3705 242.578 47.8625 241.715 48.5274 240.995C49.4373 239.85 50.6929 239.031 52.1067 238.659C53.5257 238.347 55.007 238.495 56.3368 239.08L57.045 230.501L58.959 232.014ZM54.0016 240.612C53.2899 240.66 52.595 240.85 51.9584 241.172C51.3217 241.494 50.7562 241.941 50.2955 242.486C49.8348 243.03 49.4884 243.662 49.2767 244.344C49.065 245.026 48.9924 245.743 49.0633 246.453C49.4671 248.082 50.4288 249.519 51.7813 250.513L55.9731 254.055L62.6532 246.127L58.4614 242.585C57.2404 241.45 55.6646 240.774 54.0016 240.67" fill="#44423D"/>
<path d="M28.5638 229.064L23.9126 222.056C22.7677 220.404 22.0448 218.498 21.8072 216.502C21.6015 214.697 21.9136 212.87 22.7068 211.236C23.5675 209.572 24.8384 208.155 26.3992 207.12C27.96 206.084 29.7592 205.464 31.6263 205.319C33.4429 205.224 35.2488 205.649 36.8326 206.544C38.571 207.545 40.0419 208.951 41.1201 210.642L45.7712 217.651L28.5638 229.064ZM39.6271 211.83C38.7449 210.436 37.5359 209.279 36.1052 208.459C34.8189 207.732 33.3498 207.393 31.8751 207.483C30.3435 207.596 28.8652 208.094 27.5771 208.931C26.289 209.768 25.2327 210.916 24.506 212.27C23.8539 213.6 23.5949 215.088 23.7595 216.56C23.953 218.197 24.5445 219.762 25.4822 221.117L28.8509 226.211L42.9193 216.885L39.6271 211.83Z" fill="#44423D"/>
<path d="M24.8712 182.263L26.613 181.555L32.1255 195.094L13.004 202.907L7.62549 189.789L9.38643 189.081L13.9036 200.187L20.7177 197.411L16.679 187.51L18.4208 186.802L22.4403 196.702L29.5607 193.811L24.8712 182.263Z" fill="#44423D"/>
<path d="M23.8565 173.396C23.7258 174.68 23.2929 175.913 22.5933 176.997L20.7749 176.518C21.3901 175.515 21.7818 174.392 21.9233 173.224C22.0993 171.949 22.0539 170.654 21.7894 169.394C21.5638 167.95 20.8949 166.611 19.8753 165.564C19.5 165.204 19.0408 164.944 18.5394 164.807C18.038 164.67 17.5103 164.66 17.0042 164.779C16.645 164.839 16.3019 164.972 15.9959 165.17C15.6898 165.368 15.4272 165.625 15.2241 165.928C14.8382 166.551 14.5902 167.25 14.4968 167.977C14.4011 168.743 14.3245 169.892 14.2862 171.137C14.2608 172.419 14.1522 173.698 13.9608 174.967C13.8485 175.9 13.5279 176.797 13.0229 177.59C12.3363 178.451 11.3535 179.025 10.2667 179.199C9.27399 179.428 8.23612 179.361 7.28074 179.007C6.21357 178.578 5.30001 177.837 4.65848 176.882C3.85127 175.732 3.2908 174.428 3.01238 173.052C2.76036 171.902 2.67016 170.722 2.74441 169.547C2.79997 168.437 3.03929 167.343 3.45261 166.311L5.36668 166.656C4.9948 167.612 4.76896 168.619 4.69676 169.643C4.62354 170.617 4.68797 171.597 4.88816 172.554C5.08907 174.006 5.76163 175.352 6.80223 176.384C7.1918 176.739 7.66189 176.995 8.17204 177.128C8.68219 177.262 9.21711 177.269 9.73075 177.15C10.0926 177.09 10.438 176.956 10.7446 176.755C11.0512 176.553 11.3122 176.29 11.5108 175.982C11.9054 175.349 12.1538 174.636 12.2382 173.894C12.3564 172.839 12.4202 171.778 12.4296 170.715C12.4411 169.433 12.5434 168.153 12.7358 166.885C12.8867 165.916 13.2674 164.997 13.846 164.204C14.5276 163.36 15.4944 162.795 16.564 162.615C17.5516 162.386 18.5853 162.459 19.5308 162.826C20.5647 163.258 21.4497 163.984 22.0765 164.913C22.8923 166.128 23.4524 167.496 23.7226 168.935C24.045 170.418 24.1225 171.945 23.9522 173.454" fill="#44423D"/>
<path d="M0.600977 156.142L0.428711 153.96L21.0049 152.218L21.1963 154.4L0.600977 156.142Z" fill="#44423D"/>
<path d="M10.994 128.089L11.1089 126.002L18.9757 126.5C19.7787 127.555 20.3642 128.759 20.6983 130.042C21.0709 131.407 21.2132 132.824 21.1194 134.236C21.0267 136.183 20.4405 138.074 19.4159 139.732C18.4416 141.294 17.0581 142.559 15.4155 143.39C13.7295 144.24 11.8426 144.611 9.96043 144.462C8.07173 144.368 6.24473 143.759 4.67761 142.7C3.15218 141.678 1.93973 140.253 1.17487 138.583C0.354887 136.786 0.0120786 134.807 0.179556 132.838C0.255806 131.359 0.599516 129.905 1.19401 128.549C1.74113 127.306 2.57405 126.21 3.62487 125.351L4.92644 126.787C4.07808 127.556 3.39336 128.488 2.91322 129.528C2.43307 130.567 2.16734 131.693 2.1319 132.838C2.01647 134.415 2.29951 135.996 2.95495 137.434C3.57915 138.798 4.57401 139.96 5.82605 140.785C7.1077 141.637 8.59572 142.127 10.1327 142.202C11.6592 142.317 13.1881 142.013 14.5542 141.322C15.8881 140.646 17.013 139.62 17.8081 138.353C18.6521 137.019 19.1337 135.488 19.2054 133.911C19.3864 131.99 18.9433 130.063 17.9421 128.415L10.994 128.089Z" fill="#44423D"/>
<path d="M7.45303 96.4932L27.3593 101.97L26.8808 103.713L7.18506 112.081L23.378 116.524L22.7847 118.63L2.87842 113.134L3.35693 111.392L23.0527 103.004L6.85967 98.5613L7.45303 96.4932Z" fill="#44423D"/>
<path d="M30.0963 94.8277C29.6975 94.9904 29.2509 94.9904 28.8521 94.8277C28.6542 94.7506 28.475 94.6322 28.3264 94.4804C28.1779 94.3286 28.0635 94.1468 27.9908 93.9472C27.8393 93.5586 27.8468 93.126 28.0115 92.7428C28.1762 92.3596 28.485 92.0566 28.8713 91.8991C29.0641 91.8137 29.2728 91.7695 29.4838 91.7695C29.6947 91.7695 29.9034 91.8137 30.0963 91.8991C30.2968 91.9771 30.4778 92.0981 30.6266 92.2535C30.7754 92.4089 30.8884 92.595 30.9576 92.7987C31.0387 92.9928 31.0804 93.201 31.0804 93.4113C31.0804 93.6215 31.0387 93.8297 30.9576 94.0238C30.8932 94.2182 30.7831 94.3945 30.6366 94.5377C30.49 94.6809 30.3113 94.7869 30.1154 94.8468" fill="#44423D"/>
<path d="M123.672 196.033H147.922C161.99 196.033 177.915 171.368 179.772 166.715C179.925 166.236 180.767 166.236 180.767 166.236L171.58 200.207H100.129C105.144 164.321 142.889 136.287 154.947 92.071H132.419C116.207 93.7178 103.862 114.227 102.981 116.774C102.828 117.252 101.833 117.252 101.833 117.252L108.283 88.0879H177.322C167.158 133.587 130.715 160.664 123.729 196.071" fill="#B2B1B1"/>
<path d="M102.56 95.0941C103.304 92.3391 104.65 89.7835 106.5 87.6113C108.35 85.4392 110.658 83.7045 113.259 82.5321C118.203 80.1926 123.675 79.1954 129.126 79.6406C136.457 80.0427 143.175 82.2257 148.439 88.1429C148.879 88.6408 149.453 88.928 149.874 88.3152C149.972 88.0832 150.01 87.8308 149.987 87.5803C149.963 87.3299 149.879 87.089 149.74 86.879C148.166 85.2498 146.456 83.7572 144.63 82.4172C138.925 78.8198 132.212 77.161 125.49 77.6873C119.884 77.7524 114.408 79.384 109.68 82.3981C105.984 84.751 103.136 88.2224 101.549 92.3072C99.9617 96.392 99.7191 100.877 100.856 105.109C101.332 107.117 102.162 109.023 103.306 110.739C103.574 109.533 103.938 107.982 103.938 107.982C103.938 107.982 101.316 99.6325 102.579 95.0941" fill="#44423D"/>
<path d="M180.767 80.6183C180.809 80.0281 180.714 79.4363 180.489 78.8893C180.264 78.3422 179.915 77.8548 179.47 77.4652C179.025 77.0756 178.496 76.7945 177.924 76.6438C177.352 76.4932 176.753 76.4771 176.174 76.5969C174.977 76.7034 173.799 76.9674 172.671 77.3821C164.683 80.4461 158.147 86.4175 154.373 94.0994C152.599 97.1779 151.501 100.599 151.151 104.135C150.801 107.671 151.208 111.242 152.344 114.608C152.689 115.585 152.038 115.719 151.54 115.987C146.148 118.874 140.232 120.652 134.142 121.215C126.867 122.099 119.495 120.764 112.992 117.385C112.743 117.232 112.456 117.098 112.035 116.811C110.669 115.955 109.352 115.021 108.092 114.015C107.227 113.403 106.476 112.645 105.872 111.774C105.585 112.196 104.934 113.23 104.934 113.23C105.711 114.284 106.618 115.236 107.633 116.064C109.005 117.302 110.545 118.34 112.207 119.147L112.552 119.434C116.927 121.738 121.757 123.045 126.696 123.264C135.595 123.89 144.489 121.978 152.344 117.749C153.186 117.308 153.588 117.404 154.124 118.266C154.928 119.568 156.038 120.698 156.861 121.923L157.436 122.67C155.177 123.34 153.052 123.915 150.947 124.585C144.474 126.54 138.495 129.861 133.414 134.324C128.332 138.787 124.267 144.288 121.49 150.456C116.648 160.758 114.983 171.52 118.275 182.799C120.782 191.359 126.907 197.736 135.922 198.655C140.632 199.131 145.389 198.596 149.875 197.085C151.1 196.683 152.306 196.146 153.512 195.687C154.493 195.329 155.446 194.901 156.364 194.404C159.134 192.99 161.594 191.037 163.599 188.659C170.524 181.886 175.315 173.231 177.38 163.765C178.681 158.811 178.721 153.61 177.494 148.637C176.25 144.137 173.207 140.613 167.924 140.824C160.872 140.896 154.08 143.498 148.784 148.158C144.696 151.515 141.506 155.837 139.501 160.734C137.497 165.631 136.74 170.95 137.3 176.212C137.538 179.687 139.06 182.95 141.568 185.365C142.238 185.983 143 186.494 143.827 186.878C144.133 187.031 144.65 186.667 145.09 186.533C144.949 186.087 144.777 185.652 144.573 185.231C144.573 185.059 144.191 185.001 143.999 184.886C143.131 184.349 142.379 183.644 141.788 182.812C141.196 181.98 140.776 181.038 140.554 180.042C139.917 177.206 140.003 174.256 140.803 171.463C142.811 163.426 146.882 156.053 152.612 150.073C154.492 147.896 156.792 146.122 159.374 144.855C161.955 143.588 164.766 142.855 167.637 142.7C169.055 142.531 170.491 142.809 171.744 143.495C172.996 144.182 174.003 145.243 174.623 146.53C175.47 148.284 176.045 150.157 176.327 152.084C176.85 156.362 176.492 160.703 175.274 164.837C173.01 173.992 168.073 182.265 161.091 188.601C160.536 189.099 159.924 189.559 159.177 190.191C156.29 192.678 152.872 194.473 149.186 195.438H148.842C143.827 197.062 138.472 197.333 133.319 196.223C130.358 195.587 127.652 194.087 125.543 191.912C123.434 189.738 122.017 186.986 121.471 184.006C120.363 178.952 120.429 173.711 121.663 168.686C124.334 155.829 130.6 143.995 139.731 134.562C143.991 130 149.461 126.745 155.502 125.179C157.704 124.643 159.828 124.068 161.589 126.194C161.726 126.339 161.873 126.473 162.029 126.596C164.504 128.361 167.514 129.213 170.547 129.009C170.941 129.031 171.335 128.949 171.688 128.773C172.042 128.596 172.344 128.331 172.564 128.003C172.784 127.674 172.915 127.294 172.944 126.9C172.973 126.505 172.899 126.11 172.729 125.753C172.482 125.053 172.028 124.445 171.427 124.011C170.528 123.326 169.489 122.848 168.384 122.613C166.012 122.37 163.628 122.281 161.244 122.345C160.777 122.413 160.299 122.341 159.873 122.136C159.446 121.931 159.091 121.604 158.852 121.196C158.048 119.76 157.302 118.285 156.517 116.811C156.057 115.949 156.287 115.432 157.091 114.896C164.655 109.877 171.015 103.246 175.714 95.4782C175.89 95.2135 176.038 94.9311 176.155 94.6356C176.384 94.2526 176.748 93.6398 177.15 92.8739C178.149 90.9485 178.988 88.9437 179.657 86.8801C179.868 86.2099 180.136 85.2716 180.423 84.1992V83.9886C180.432 83.9315 180.432 83.8733 180.423 83.8162C180.604 82.7475 180.681 81.6636 180.653 80.58M169.015 124.758C169.441 124.889 169.842 125.089 170.202 125.351C170.566 125.715 171.044 126.155 170.853 126.634C170.661 127.113 170.03 126.979 169.628 126.979C167.006 127.012 164.466 126.062 162.508 124.317C164.679 123.905 166.919 124.056 169.015 124.758ZM174.757 93.4484C170.005 101.532 163.456 108.412 155.617 113.555C155.506 112.128 155.468 110.697 155.502 109.266C155.877 104.614 157.103 100.07 159.12 95.8612C161.354 90.484 164.753 85.6702 169.073 81.7673C171.004 80.0413 173.401 78.9224 175.963 78.5502C177.877 78.3204 178.853 79.2395 178.873 81.2311C178.888 81.9619 178.837 82.6926 178.719 83.4141C178.521 84.4272 178.252 85.4254 177.916 86.4014C177.054 88.8407 175.991 91.2042 174.738 93.4675" fill="#44423D"/>
</svg>
