<svg width="56" height="56" viewBox="0 0 56 56" fill="none" xmlns="http://www.w3.org/2000/svg">
<path d="M9.13804 12.5069L9.43801 12.7244L7.76571 15.0503L4.48486 12.6869L6.10467 10.4324L6.40463 10.65L5.02855 12.5556L6.1984 13.3959L7.4245 11.6966L7.71697 11.9104L6.49837 13.6098L7.71697 14.4876L9.13804 12.5069Z" fill="#E8E5E2"/>
<path d="M9.93336 6.47485L11.4594 10.6313L11.152 10.9239L7.05371 9.25835L7.38367 8.93573L10.9457 10.3875L9.6184 6.77496L9.93336 6.47485Z" fill="#E8E5E2"/>
<path d="M14.7591 5.57466L15.1003 5.34958L15.9514 6.64004C15.8811 6.88945 15.7627 7.12268 15.6027 7.32653C15.433 7.54555 15.2276 7.73449 14.9953 7.88548C14.6811 8.09965 14.3168 8.22888 13.9379 8.26062C13.5792 8.29299 13.2184 8.22548 12.8956 8.06555C12.5658 7.89749 12.2854 7.64665 12.0816 7.33759C11.8779 7.02853 11.7578 6.67183 11.7332 6.30242C11.7142 5.94248 11.7946 5.58425 11.9657 5.26705C12.1496 4.93027 12.4152 4.64518 12.7381 4.438C12.9788 4.27607 13.2468 4.15914 13.5292 4.09288C13.7881 4.03089 14.0578 4.03089 14.3166 4.09288L14.2454 4.46801C14.0246 4.42527 13.7974 4.42784 13.5776 4.47556C13.3579 4.52328 13.15 4.61515 12.9668 4.74561C12.7059 4.91319 12.4918 5.14422 12.3444 5.4171C12.2048 5.67559 12.1399 5.96785 12.1569 6.26115C12.1727 6.56217 12.2713 6.85298 12.4419 7.10145C12.6009 7.35035 12.8242 7.55153 13.0883 7.68363C13.3524 7.81573 13.6473 7.87381 13.9417 7.85172C14.2493 7.82626 14.5451 7.72158 14.8003 7.54786C15.1222 7.35033 15.372 7.05439 15.5127 6.70381L14.7591 5.57466Z" fill="#E8E5E2"/>
<path d="M20.1358 4.89547L20.2745 5.23684L17.6348 6.33223L16.0825 2.59215L18.651 1.53052L18.7897 1.87189L16.6262 2.76846L17.1774 4.10019L19.1084 3.2974L19.2509 3.63502L17.3124 4.43405L17.8898 5.82205L20.1358 4.89547Z" fill="#E8E5E2"/>
<path d="M24.1063 0.195068L24.9049 4.16399L24.5562 4.23151L21.3653 1.51929L22.0103 4.74169L21.5866 4.82422L20.7954 0.851553L21.1404 0.784029L24.3425 3.4925L23.6976 0.270095L24.1063 0.195068Z" fill="#E8E5E2"/>
<path d="M26.4312 0.0187567L26.8623 0L27.0498 4.04394L26.6186 4.0627L26.4312 0.0187567Z" fill="#E8E5E2"/>
<path d="M31.3953 3.16237L29.1455 2.95229L28.5606 3.98391L28.1182 3.94265L30.3566 0.0825195L30.7766 0.120033L32.2427 4.32528L31.7927 4.28402L31.3953 3.16237ZM31.2715 2.78724L30.5216 0.536432L29.3518 2.62218L31.2715 2.78724Z" fill="#E8E5E2"/>
<path d="M38.0511 5.78069L37.9274 6.12582L34.8115 4.96665L34.9165 4.68905L38.6061 2.45326L36.1276 1.53043L36.2588 1.1853L39.2622 2.3032L39.1647 2.5808L35.4714 4.82035L38.0511 5.78069Z" fill="#E8E5E2"/>
<path d="M41.748 7.0486L39.8095 5.89318L38.8383 6.57218L38.4634 6.34334L42.1267 3.81494L42.5016 4.03252L42.0179 8.4591L41.643 8.22652L41.748 7.0486ZM41.793 6.67346L42.0742 4.30637L40.1244 5.67561L41.793 6.67346Z" fill="#E8E5E2"/>
<path d="M46.3263 9.93736C46.3129 10.177 46.213 10.4036 46.0451 10.5751C45.9475 10.6957 45.8211 10.7898 45.6776 10.8488C45.5341 10.9077 45.3781 10.9297 45.224 10.9127C44.8307 10.8392 44.4695 10.6468 44.1891 10.3613L42.8018 9.11582L45.5052 6.11475L46.8063 7.26641C47.0972 7.49629 47.3074 7.81297 47.4062 8.17048C47.4383 8.31627 47.4335 8.46777 47.3923 8.61123C47.351 8.7547 47.2746 8.88559 47.17 8.99202C47.0381 9.14542 46.863 9.25527 46.6675 9.30714C46.4777 9.35111 46.2791 9.33673 46.0976 9.26587C46.2464 9.45655 46.327 9.69169 46.3263 9.93361M45.1565 10.5038C45.2679 10.5179 45.381 10.5029 45.4849 10.4602C45.5887 10.4174 45.6797 10.3484 45.7489 10.26C46.0864 9.88484 45.9814 9.44969 45.4377 8.96201L44.3766 8.01668L43.3604 9.14208L44.4216 10.0949C44.6266 10.301 44.8872 10.4431 45.1715 10.5038M45.6064 6.65119L44.624 7.74658L45.5839 8.60939C45.7704 8.80175 46.0111 8.93263 46.2738 8.98452C46.3793 8.99759 46.4864 8.98343 46.5848 8.94337C46.6833 8.90331 46.7698 8.8387 46.8363 8.75569C46.9107 8.67977 46.965 8.58655 46.9945 8.4844C47.0239 8.38225 47.0275 8.27437 47.005 8.17048C46.9279 7.91568 46.7749 7.69055 46.5663 7.52525L45.6064 6.65119Z" fill="#E8E5E2"/>
<path d="M46.8024 12.7809C46.7529 12.4231 46.8022 12.0586 46.9448 11.7268C47.0913 11.3885 47.3273 11.0967 47.6273 10.8827C47.9239 10.6596 48.2747 10.5197 48.6434 10.4776C49.0017 10.4385 49.3638 10.4995 49.6895 10.6539C50.0335 10.815 50.3304 11.0617 50.5519 11.3704C50.7809 11.6716 50.9282 12.027 50.9794 12.402C51.0283 12.7586 50.979 13.1218 50.8369 13.4524C50.686 13.7902 50.4503 14.0832 50.1526 14.3028C49.8549 14.5223 49.5055 14.661 49.1383 14.7053C48.7801 14.7431 48.4183 14.6821 48.0922 14.529C47.7524 14.364 47.458 14.1185 47.2346 13.8139C47.0111 13.5093 46.8653 13.1547 46.8099 12.7809M48.2347 14.1614C48.4982 14.283 48.7904 14.3285 49.0783 14.2927C49.3748 14.25 49.6559 14.134 49.8961 13.9552C50.1364 13.7763 50.3283 13.5403 50.4544 13.2686C50.5736 13.0043 50.6165 12.7119 50.5782 12.4245C50.533 12.124 50.4156 11.839 50.236 11.5939C50.0564 11.3489 49.8199 11.1511 49.547 11.0178C49.2826 10.8949 48.9891 10.8482 48.6996 10.8827C48.4002 10.9174 48.1155 11.0314 47.8747 11.2128C47.629 11.3875 47.4357 11.6262 47.3161 11.9031C47.1979 12.1703 47.1564 12.4651 47.1961 12.7546C47.2401 13.0545 47.3572 13.339 47.5371 13.583C47.7169 13.827 47.9539 14.0231 48.2272 14.1539" fill="#E8E5E2"/>
<path d="M52.7751 14.9565L52.9551 15.3429L49.6405 16.9335L50.6191 18.978L50.2817 19.1393L49.123 16.7084L52.7751 14.9565Z" fill="#E8E5E2"/>
<path d="M51.0468 20.6773C51.1307 20.3266 51.3097 20.006 51.5642 19.7507C51.8283 19.4939 52.1538 19.3091 52.5095 19.2139C52.8653 19.1187 53.2395 19.1162 53.5965 19.2068C53.9437 19.3018 54.2578 19.4914 54.5038 19.7544C54.7602 20.0331 54.9453 20.3698 55.0432 20.7356C55.1412 21.1015 55.1491 21.4856 55.0663 21.8552C54.9797 22.2048 54.801 22.5247 54.5488 22.7818C54.2844 23.0404 53.9577 23.2264 53.6003 23.3217C53.243 23.417 52.8671 23.4184 52.5091 23.3257C52.163 23.2299 51.8494 23.0419 51.6017 22.7818C51.3416 22.5071 51.1569 22.1698 51.0655 21.8027C50.9641 21.4352 50.9576 21.0479 51.0468 20.6773ZM51.8679 22.4854C52.0722 22.6971 52.3322 22.8466 52.6178 22.9168C52.9078 22.9936 53.2127 22.9936 53.5027 22.9168C53.7923 22.8395 54.0563 22.6868 54.2676 22.4742C54.4773 22.2695 54.6242 22.0092 54.6913 21.7239C54.7595 21.4289 54.7542 21.1217 54.6757 20.8292C54.5973 20.5368 54.4481 20.2682 54.2414 20.0471C54.0365 19.8345 53.777 19.6827 53.4915 19.6081C53.2007 19.5276 52.8936 19.5276 52.6028 19.6081C52.312 19.6837 52.0458 19.8337 51.8304 20.0433C51.6233 20.25 51.4768 20.5095 51.4067 20.7936C51.33 21.0875 51.33 21.3962 51.4067 21.6901C51.4864 21.9835 51.6371 22.2528 51.8454 22.4742" fill="#E8E5E2"/>
<path d="M55.4864 25.6216L55.3814 24.2036L55.7451 24.1736L56.0001 27.4372L55.6289 27.4673L55.5201 26.0493L51.8531 26.3344L51.8193 25.9067L55.4864 25.6216Z" fill="#E8E5E2"/>
<path d="M52.018 29.024C52.1119 28.7903 52.2597 28.5821 52.4492 28.4163L52.7641 28.6113C52.5918 28.7651 52.4549 28.9546 52.3629 29.1665C52.2523 29.4025 52.1862 29.6568 52.1679 29.9168C52.124 30.2005 52.1712 30.4908 52.3029 30.7458C52.3523 30.8354 52.4236 30.911 52.5102 30.9655C52.5968 31.0199 52.6958 31.0515 52.7979 31.0572C52.8685 31.0658 52.9402 31.0599 53.0085 31.0399C53.0769 31.0199 53.1404 30.9862 53.1953 30.9409C53.3031 30.8469 53.3888 30.7304 53.4465 30.5995C53.5294 30.4098 53.602 30.2157 53.664 30.0181C53.7434 29.7763 53.8373 29.5395 53.9452 29.3091C54.032 29.134 54.1608 28.9832 54.3202 28.8702C54.498 28.7488 54.7141 28.6968 54.9276 28.7239C55.1252 28.7378 55.3142 28.8095 55.4713 28.9302C55.6454 29.0659 55.7758 29.2498 55.8463 29.4591C55.9325 29.7316 55.9606 30.0192 55.9287 30.3032C55.9106 30.533 55.8601 30.759 55.7788 30.9747C55.7071 31.1741 55.6033 31.3604 55.4713 31.5261L55.1413 31.3536C55.3824 31.0414 55.5282 30.6662 55.5613 30.2732C55.6051 29.9935 55.555 29.7072 55.4188 29.4591C55.3658 29.3702 55.2921 29.2955 55.2039 29.2412C55.1158 29.187 55.0158 29.155 54.9126 29.1478C54.8414 29.1393 54.7691 29.1452 54.7002 29.1652C54.6313 29.1852 54.5671 29.2188 54.5114 29.2641C54.4006 29.3605 54.3133 29.4812 54.2564 29.6167C54.1927 29.7592 54.1215 29.9543 54.039 30.1981C53.9622 30.4374 53.8708 30.6716 53.7653 30.8996C53.6776 31.0741 53.5489 31.2247 53.3903 31.3386C53.2158 31.4608 53.0012 31.5118 52.7904 31.4811C52.5921 31.4675 52.4026 31.3943 52.2467 31.271C52.0773 31.1317 51.9532 30.9449 51.8905 30.7346C51.806 30.4605 51.7792 30.1718 51.8117 29.8868C51.835 29.5902 51.9046 29.299 52.018 29.024Z" fill="#E8E5E2"/>
<path d="M53.0154 34.3736L52.408 33.3607L51.3769 33.0944L51.4893 32.678L55.4039 33.6983L55.2989 34.111L52.9329 33.4958L54.7027 36.4143L54.5752 36.8907L53.2441 34.7337L50.627 35.9904L50.7544 35.499L53.0154 34.3736Z" fill="#E8E5E2"/>
<path d="M50.1694 39.5991L51.1218 37.5546L50.3456 36.6581L50.5331 36.2529L53.4202 39.6291L53.2403 40.0043L48.7896 39.9705L48.9808 39.5616L50.1694 39.5991ZM50.5443 39.5991L52.9253 39.6366L51.3655 37.836L50.5443 39.5991Z" fill="#E8E5E2"/>
<path d="M48.6771 42.6078L47.5298 41.8087L47.7698 41.4636L48.9209 42.2627L52.018 42.4427L51.7518 42.8179L49.0971 42.6603L50.1695 45.0987L49.9295 45.4513L48.6771 42.6078Z" fill="#E8E5E2"/>
<path d="M45.0438 46.3216L46.6261 44.7123L46.1949 43.6094L46.5061 43.2905L48.0959 47.4508L47.7997 47.7509L43.6152 46.2503L43.9302 45.9277L45.0438 46.3216ZM45.4 46.4529L47.6497 47.2857L46.7686 45.0687L45.4 46.4529Z" fill="#E8E5E2"/>
<path d="M42.8089 46.8655C42.8505 46.8707 42.8906 46.8844 42.9267 46.9057C42.9628 46.9269 42.9942 46.9554 43.0189 46.9892C43.0454 47.0212 43.0648 47.0585 43.0758 47.0986C43.0868 47.1387 43.0891 47.1806 43.0826 47.2217C43.0784 47.2617 43.0659 47.3003 43.0459 47.3352C43.0259 47.3701 42.9988 47.4004 42.9664 47.4242C42.9016 47.4748 42.8194 47.4977 42.7377 47.4879C42.6962 47.4828 42.6561 47.4695 42.6198 47.4488C42.5835 47.4281 42.5516 47.4003 42.5262 47.3672C42.5007 47.334 42.4821 47.2961 42.4714 47.2557C42.4607 47.2153 42.4582 47.1731 42.464 47.1317C42.4677 47.0911 42.4799 47.0517 42.5 47.0161C42.52 46.9806 42.5474 46.9497 42.5802 46.9255C42.6125 46.9009 42.6493 46.8829 42.6886 46.8726C42.7278 46.8623 42.7687 46.8599 42.8089 46.8655Z" fill="#E8E5E2"/>
<path d="M41.3618 52.5824L40.9793 52.785L39.0708 49.2175L39.4458 49.0149L41.3618 52.5824Z" fill="#E8E5E2"/>
<path d="M35.6661 54.9683L34.3237 51.1495L34.6574 51.0332L38.197 53.269L37.1059 50.1704L37.5108 50.0278L38.8532 53.8467L38.5195 53.963L34.9687 51.7272L36.0635 54.8258L35.6661 54.9683Z" fill="#E8E5E2"/>
<path d="M32.4081 55.2647L33.8141 55.0471L33.8741 55.4147L30.6345 55.9137L30.582 55.546L31.9881 55.3285L31.4257 51.6934L31.8456 51.6296L32.4081 55.2647Z" fill="#E8E5E2"/>
<path d="M26.0562 52.2862L26.0637 51.9148L28.9245 51.9523L28.8646 56L26.0936 55.9625V55.5911L28.4409 55.6211L28.4596 54.1806L26.3674 54.1506L26.3749 53.7867L28.4671 53.8167L28.4821 52.3124L26.0562 52.2862Z" fill="#E8E5E2"/>
<path d="M21.9469 51.2133L22.5993 52.6576C22.7043 52.6576 22.8093 52.6838 22.9218 52.7026L23.9866 52.9164L24.2379 51.656L24.6578 51.7385L23.8629 55.7074L22.3631 55.4111C21.9279 55.3537 21.5283 55.1404 21.2382 54.8108C21.1197 54.6597 21.0371 54.4835 20.9969 54.2956C20.9566 54.1078 20.9596 53.9132 21.0058 53.7267C21.0454 53.4423 21.1771 53.1788 21.3807 52.9764C21.589 52.7896 21.852 52.6751 22.1306 52.6501L21.4332 51.0933L21.9469 51.2133ZM21.9057 53.1565C21.7881 53.2323 21.687 53.3309 21.6083 53.4465C21.5297 53.5622 21.4751 53.6925 21.4478 53.8297C21.4205 53.9669 21.4211 54.1082 21.4495 54.2452C21.4779 54.3822 21.5336 54.512 21.6132 54.627C21.8368 54.8684 22.138 55.0238 22.4643 55.0659L23.5217 55.2835L23.9192 53.2915L22.8655 53.0815C22.5468 52.9979 22.2091 53.027 21.9094 53.164" fill="#E8E5E2"/>
<path d="M19.7771 50.5088L18.4346 54.3271L18.8378 54.4691L20.1803 50.6507L19.7771 50.5088Z" fill="#E8E5E2"/>
<path d="M17.4208 49.7878C17.6189 50.0896 17.7304 50.4399 17.7432 50.8007C17.7523 51.17 17.6631 51.5351 17.4845 51.8586C17.312 52.1873 17.0526 52.4624 16.7346 52.6538C16.4258 52.8406 16.0718 52.9392 15.711 52.9389C15.3333 52.9336 14.9625 52.837 14.6302 52.6574C14.2979 52.4777 14.014 52.2204 13.8025 51.9073C13.6066 51.6062 13.4964 51.2573 13.4838 50.8982C13.4702 50.5272 13.5598 50.1597 13.7425 49.8366C13.9153 49.5081 14.1747 49.2331 14.4924 49.0413C14.7999 48.8544 15.1524 48.7546 15.5123 48.7524C15.8908 48.7582 16.2623 48.8554 16.5952 49.0357C16.9282 49.2159 17.2127 49.474 17.4245 49.7878M15.5498 49.1463C15.2592 49.1496 14.9752 49.2327 14.7286 49.3864C14.479 49.5492 14.2739 49.7716 14.1319 50.0336C13.9898 50.2956 13.9152 50.5889 13.915 50.887C13.921 51.1771 14.0066 51.46 14.1624 51.7047C14.3298 51.9577 14.557 52.1654 14.8239 52.3094C15.0907 52.4534 15.389 52.5292 15.6922 52.53C15.9836 52.528 16.2689 52.4463 16.5171 52.2937C16.7728 52.1353 16.9813 51.9112 17.1208 51.6447C17.2671 51.3811 17.3409 51.0834 17.3345 50.7819C17.3278 50.4896 17.2394 50.2051 17.0796 49.9604C16.9079 49.7065 16.6725 49.5021 16.3972 49.3677C16.1321 49.2211 15.8339 49.1449 15.531 49.1463" fill="#E8E5E2"/>
<path d="M11.5228 45.4514L11.3878 47.0307C11.4741 47.0907 11.5603 47.1545 11.6465 47.2258L12.4789 47.9273L13.3076 46.9444L13.6338 47.222L11.0091 50.3169L9.85051 49.3378C9.50138 49.0759 9.25682 48.6982 9.1606 48.2724C9.12962 48.0828 9.14223 47.8887 9.19745 47.7048C9.25268 47.5208 9.34907 47.3519 9.47931 47.2108C9.65756 46.9865 9.90352 46.826 10.1805 46.7531C10.4584 46.692 10.7486 46.7209 11.0091 46.8356L11.1479 45.155L11.5228 45.4514ZM10.5517 47.1357C10.4123 47.1451 10.2761 47.1824 10.1514 47.2455C10.0267 47.3085 9.91592 47.396 9.82568 47.5027C9.73543 47.6095 9.66756 47.7333 9.62609 47.8668C9.58462 48.0003 9.57041 48.1408 9.5843 48.2799C9.6634 48.5991 9.85179 48.8805 10.1167 49.0752L10.9379 49.7692L12.2465 48.2161L11.4253 47.5221C11.1861 47.2999 10.8774 47.1674 10.5517 47.147" fill="#E8E5E2"/>
<path d="M5.56856 44.8734L4.65742 43.5005C4.43313 43.177 4.29151 42.8035 4.24497 42.4126C4.20469 42.0589 4.26581 41.7011 4.4212 41.381C4.5898 41.055 4.83877 40.7774 5.14453 40.5746C5.45028 40.3717 5.80272 40.2503 6.16848 40.2218C6.52434 40.2032 6.87811 40.2865 7.18836 40.4619C7.5289 40.6578 7.81705 40.9332 8.02825 41.2647L8.93939 42.6376L5.56856 44.8734ZM7.73579 41.4972C7.56298 41.2242 7.32614 40.9976 7.04587 40.837C6.79389 40.6946 6.50611 40.6281 6.21723 40.6457C5.91718 40.6679 5.62759 40.7655 5.37526 40.9294C5.12293 41.0934 4.91601 41.3183 4.77365 41.5835C4.64591 41.844 4.59518 42.1355 4.62742 42.4238C4.66533 42.7445 4.78119 43.0511 4.96488 43.3166L5.6248 44.3145L8.38071 42.4876L7.73579 41.4972Z" fill="#E8E5E2"/>
<path d="M4.84513 35.7052L5.18634 35.5664L6.26621 38.2186L2.52042 39.7492L1.4668 37.1795L1.81175 37.0407L2.69665 39.2165L4.03148 38.6725L3.24033 36.7331L3.58154 36.5943L4.36894 38.5337L5.76377 37.9673L4.84513 35.7052Z" fill="#E8E5E2"/>
<path d="M4.64653 33.9684C4.62093 34.2198 4.53612 34.4615 4.39906 34.6737L4.04286 34.5799C4.16337 34.3835 4.2401 34.1634 4.26783 33.9347C4.30229 33.6849 4.29342 33.4311 4.24158 33.1844C4.19741 32.9014 4.06637 32.6392 3.86663 32.4341C3.79311 32.3636 3.70315 32.3126 3.60493 32.2858C3.50671 32.2589 3.40333 32.257 3.3042 32.2803C3.23384 32.2922 3.16663 32.3182 3.10667 32.3569C3.04672 32.3956 2.99527 32.4461 2.95549 32.5054C2.87989 32.6275 2.8313 32.7643 2.81301 32.9068C2.79426 33.0568 2.77926 33.2819 2.77176 33.5258C2.76679 33.777 2.7455 34.0276 2.70802 34.276C2.68601 34.4589 2.62322 34.6346 2.52429 34.79C2.38979 34.9586 2.19727 35.0709 1.98436 35.1051C1.7899 35.1499 1.58658 35.1368 1.39943 35.0676C1.19038 34.9834 1.01142 34.8383 0.885745 34.6512C0.727619 34.426 0.617825 34.1706 0.563284 33.9009C0.513915 33.6756 0.496246 33.4446 0.510791 33.2144C0.521675 32.9968 0.568556 32.7826 0.649524 32.5804L1.02448 32.6479C0.951628 32.8353 0.907387 33.0326 0.893244 33.2332C0.8789 33.424 0.891523 33.616 0.930739 33.8034C0.970095 34.0878 1.10185 34.3514 1.30569 34.5536C1.38201 34.6233 1.4741 34.6733 1.57403 34.6995C1.67397 34.7256 1.77875 34.727 1.87937 34.7037C1.95026 34.692 2.01792 34.6657 2.07798 34.6263C2.13805 34.5868 2.18918 34.5353 2.22808 34.4748C2.30537 34.3508 2.35404 34.2112 2.37056 34.066C2.39372 33.8592 2.40623 33.6513 2.40806 33.4432C2.41031 33.192 2.43036 32.9413 2.46805 32.693C2.49761 32.503 2.57218 32.323 2.68552 32.1678C2.81904 32.0024 3.00843 31.8917 3.21796 31.8564C3.41144 31.8115 3.61394 31.8259 3.79914 31.8977C4.00169 31.9824 4.17504 32.1245 4.29783 32.3066C4.45764 32.5445 4.56736 32.8126 4.62029 33.0944C4.68344 33.385 4.69864 33.6841 4.66528 33.9797" fill="#E8E5E2"/>
<path d="M0.0903865 30.5882L0.0566406 30.1608L4.0874 29.8196L4.12489 30.247L0.0903865 30.5882Z" fill="#E8E5E2"/>
<path d="M2.1266 25.0926L2.14909 24.6837L3.69015 24.7812C3.84746 24.9879 3.96216 25.2238 4.02761 25.4752C4.1006 25.7426 4.12848 26.0202 4.1101 26.2968C4.09194 26.6782 3.9771 27.0487 3.77639 27.3734C3.58554 27.6794 3.3145 27.9272 2.99274 28.0899C2.66246 28.2565 2.29283 28.3291 1.92412 28.3C1.55414 28.2816 1.19624 28.1623 0.889247 27.9549C0.590424 27.7546 0.352913 27.4754 0.203081 27.1483C0.042451 26.7962 -0.0247032 26.4086 0.00810462 26.0229C0.0230416 25.7331 0.0903723 25.4484 0.20683 25.1826C0.314007 24.9392 0.477172 24.7245 0.683022 24.5562L0.937991 24.8375C0.771802 24.9881 0.637671 25.1708 0.543613 25.3744C0.449555 25.5781 0.3975 25.7987 0.390558 26.0229C0.367946 26.3318 0.423392 26.6414 0.551788 26.9232C0.674066 27.1905 0.868952 27.418 1.11422 27.5797C1.36529 27.7466 1.65678 27.8426 1.95787 27.8573C2.2569 27.8798 2.5564 27.8202 2.82401 27.6848C3.08533 27.5525 3.30569 27.3515 3.46143 27.1033C3.62678 26.842 3.72112 26.542 3.73515 26.233C3.77061 25.8568 3.68382 25.4793 3.48768 25.1564L2.1266 25.0926Z" fill="#E8E5E2"/>
<path d="M1.43325 18.9028L5.33277 19.9757L5.23903 20.3171L1.38076 21.9564L4.55287 22.8267L4.43663 23.2394L0.537109 22.1627L0.630848 21.8214L4.48913 20.1783L1.31701 19.308L1.43325 18.9028Z" fill="#E8E5E2"/>
<path d="M5.86875 18.5764C5.79064 18.6082 5.70315 18.6082 5.62503 18.5764C5.58626 18.5613 5.55115 18.5381 5.52205 18.5083C5.49296 18.4786 5.47054 18.443 5.45631 18.4039C5.42663 18.3278 5.42809 18.243 5.46036 18.168C5.49263 18.0929 5.55312 18.0335 5.62878 18.0027C5.66657 17.9859 5.70744 17.9773 5.74877 17.9773C5.7901 17.9773 5.83097 17.9859 5.86875 18.0027C5.90804 18.018 5.9435 18.0417 5.97265 18.0721C6.0018 18.1025 6.02393 18.139 6.03748 18.1789C6.05337 18.2169 6.06154 18.2577 6.06154 18.2989C6.06154 18.3401 6.05337 18.3809 6.03748 18.4189C6.02486 18.457 6.0033 18.4915 5.97459 18.5196C5.94589 18.5476 5.91088 18.5684 5.8725 18.5801" fill="#E8E5E2"/>
<path d="M24.1998 38.4027H28.9505C31.7064 38.4027 34.826 33.5709 35.1897 32.6593C35.2197 32.5656 35.3847 32.5656 35.3847 32.5656L33.5849 39.2204H19.5879C20.5703 32.1904 27.9644 26.6985 30.3266 18.0366H25.9134C22.7375 18.3592 20.3191 22.3769 20.1466 22.8759C20.1166 22.9696 19.9216 22.9696 19.9216 22.9696L21.1852 17.2563H34.7098C32.7188 26.1695 25.5797 31.4739 24.2111 38.4102" fill="#B2B1B1"/>
<path d="M20.0642 18.6291C20.21 18.0894 20.4736 17.5888 20.836 17.1633C21.1985 16.7377 21.6507 16.3979 22.1602 16.1682C23.1287 15.7099 24.2007 15.5146 25.2685 15.6018C26.7046 15.6806 28.0207 16.1082 29.0518 17.2674C29.1381 17.3649 29.2506 17.4212 29.333 17.3011C29.3521 17.2557 29.3597 17.2063 29.3551 17.1572C29.3505 17.1081 29.3339 17.0609 29.3068 17.0198C28.9984 16.7006 28.6635 16.4082 28.3057 16.1457C27.1881 15.441 25.8731 15.116 24.5561 15.2192C23.458 15.2319 22.3852 15.5515 21.459 16.142C20.735 16.6029 20.177 17.283 19.8661 18.0832C19.5552 18.8834 19.5077 19.762 19.7305 20.5911C19.8237 20.9843 19.9862 21.3578 20.2104 21.694C20.2629 21.4576 20.3341 21.1538 20.3341 21.1538C20.3341 21.1538 19.8205 19.5182 20.0679 18.6291" fill="#E8E5E2"/>
<path d="M35.385 15.7931C35.3932 15.6775 35.3745 15.5615 35.3304 15.4544C35.2863 15.3472 35.2179 15.2517 35.1308 15.1754C35.0436 15.0991 34.9399 15.044 34.8279 15.0145C34.7159 14.985 34.5985 14.9818 34.4851 15.0053C34.2506 15.0262 34.0199 15.0779 33.7989 15.1591C32.234 15.7593 30.9536 16.9291 30.2144 18.434C29.8668 19.0371 29.6516 19.7073 29.5831 20.4C29.5146 21.0928 29.5943 21.7922 29.8169 22.4517C29.8844 22.643 29.7569 22.6693 29.6594 22.7218C28.6031 23.2874 27.4442 23.6356 26.2511 23.7459C24.826 23.9192 23.3818 23.6577 22.1079 22.9956C22.0591 22.9656 22.0029 22.9394 21.9204 22.8831C21.6527 22.7154 21.3948 22.5326 21.148 22.3354C20.9785 22.2156 20.8313 22.0671 20.713 21.8965C20.6568 21.979 20.5293 22.1816 20.5293 22.1816C20.6815 22.3882 20.8591 22.5747 21.058 22.7368C21.3267 22.9794 21.6284 23.1828 21.9541 23.3408L22.0216 23.397C22.8787 23.8483 23.8249 24.1045 24.7925 24.1473C26.5358 24.27 28.278 23.8954 29.8169 23.0669C29.9819 22.9806 30.0606 22.9994 30.1656 23.1682C30.3231 23.4233 30.5406 23.6446 30.7018 23.8847L30.8143 24.031C30.3718 24.1623 29.9556 24.2749 29.5432 24.4061C28.2751 24.7891 27.1039 25.4397 26.1085 26.3139C25.113 27.1882 24.3165 28.2658 23.7726 29.4742C22.824 31.4924 22.4978 33.6007 23.1427 35.8102C23.6339 37.4871 24.8338 38.7363 26.5998 38.9163C27.5224 39.0097 28.4544 38.9048 29.3332 38.6087C29.5732 38.5299 29.8094 38.4249 30.0456 38.3349C30.2378 38.2649 30.4245 38.1809 30.6043 38.0835C31.147 37.8066 31.6289 37.424 32.0216 36.9581C33.3783 35.6313 34.3169 33.9359 34.7213 32.0814C34.9763 31.1109 34.984 30.092 34.7438 29.1178C34.5001 28.2363 33.9039 27.546 32.869 27.5873C31.4875 27.6014 30.157 28.1112 29.1195 29.024C28.3186 29.6818 27.6937 30.5284 27.301 31.4877C26.9083 32.447 26.7601 33.4889 26.8698 34.5198C26.9164 35.2006 27.2145 35.8397 27.7059 36.3129C27.8372 36.434 27.9864 36.534 28.1484 36.6093C28.2084 36.6393 28.3096 36.568 28.3958 36.5417C28.3683 36.4544 28.3344 36.3691 28.2946 36.2866C28.2946 36.2529 28.2196 36.2416 28.1821 36.2191C28.0121 36.1139 27.8648 35.9757 27.7488 35.8128C27.6329 35.6498 27.5508 35.4652 27.5072 35.27C27.3825 34.7146 27.3993 34.1367 27.5559 33.5894C27.9494 32.015 28.7468 30.5706 29.8694 29.3992C30.2377 28.9728 30.6882 28.6251 31.194 28.3769C31.6997 28.1288 32.2503 27.9852 32.8128 27.9549C33.0906 27.9217 33.3719 27.9761 33.6173 28.1106C33.8626 28.2451 34.0599 28.453 34.1814 28.7052C34.3473 29.0487 34.4598 29.4156 34.5151 29.7931C34.6176 30.6312 34.5474 31.4815 34.3089 32.2915C33.8653 34.0848 32.8981 35.7055 31.5305 36.9469C31.4217 37.0444 31.3017 37.1344 31.1555 37.2582C30.5898 37.7455 29.9204 38.0971 29.1982 38.2861H29.1307C28.1483 38.6043 27.0993 38.6574 26.0899 38.4399C25.5098 38.3153 24.9797 38.0215 24.5665 37.5954C24.1534 37.1694 23.8758 36.6304 23.7689 36.0466C23.5519 35.0565 23.5647 34.0298 23.8064 33.0455C24.3297 30.5268 25.5572 28.2086 27.346 26.3606C28.1805 25.4668 29.2522 24.8292 30.4356 24.5224C30.8668 24.4174 31.283 24.3049 31.6279 24.7213C31.6547 24.7496 31.6835 24.776 31.7142 24.8C32.199 25.1458 32.7887 25.3128 33.3827 25.2727C33.46 25.277 33.5371 25.2611 33.6064 25.2265C33.6757 25.1919 33.7348 25.1399 33.7779 25.0756C33.8211 25.0113 33.8467 24.9368 33.8524 24.8596C33.858 24.7823 33.8435 24.7049 33.8102 24.635C33.762 24.4978 33.673 24.3787 33.5552 24.2936C33.3791 24.1594 33.1755 24.0659 32.959 24.0198C32.4944 23.9722 32.0273 23.9547 31.5604 23.9672C31.4688 23.9807 31.3752 23.9665 31.2917 23.9264C31.2082 23.8863 31.1386 23.8221 31.0918 23.7422C30.9343 23.4608 30.788 23.172 30.6343 22.8831C30.5443 22.7143 30.5893 22.613 30.7468 22.508C32.2286 21.5249 33.4745 20.2259 34.3951 18.7041C34.4295 18.6523 34.4584 18.5969 34.4813 18.5391C34.5263 18.464 34.5976 18.344 34.6763 18.1939C34.8721 17.8167 35.0364 17.424 35.1675 17.0198C35.2087 16.8885 35.2612 16.7046 35.3175 16.4946V16.4533C35.3192 16.4421 35.3192 16.4307 35.3175 16.4195C35.353 16.2102 35.368 15.9979 35.3625 15.7856M33.0828 24.4399C33.1661 24.4656 33.2446 24.5049 33.3152 24.5562C33.3865 24.6275 33.4802 24.7138 33.4427 24.8075C33.4052 24.9013 33.2815 24.8751 33.2027 24.8751C32.6891 24.8815 32.1915 24.6955 31.8079 24.3536C32.2332 24.2728 32.6722 24.3025 33.0828 24.4399ZM34.2076 18.3065C33.2767 19.8901 31.9937 21.2379 30.4581 22.2454C30.4364 21.9658 30.4289 21.6854 30.4356 21.4051C30.509 20.4937 30.7492 19.6036 31.1442 18.7791C31.5819 17.7258 32.2478 16.7827 33.094 16.0182C33.4723 15.68 33.9418 15.4609 34.4438 15.3879C34.8188 15.3429 35.01 15.523 35.0138 15.9131C35.0169 16.0563 35.0068 16.1994 34.9838 16.3408C34.9448 16.5392 34.8922 16.7348 34.8263 16.926C34.6575 17.4038 34.4493 17.8668 34.2039 18.3102" fill="#E8E5E2"/>
</svg>
