<svg width="308" height="225" viewBox="0 0 308 225" fill="none" xmlns="http://www.w3.org/2000/svg">
<g clip-path="url(#clip0_262_1373)">
<path d="M61.0232 182.09C60.8569 181.584 59.5965 181.807 59.4754 181.354C59.3548 180.903 60.5643 180.526 61.4919 179.255C61.6592 179.026 62.7133 177.583 62.309 176.976C61.5427 175.825 56.2109 178.691 54.9311 177.083C54.6502 176.73 54.5346 176.124 53.6979 174.996C53.365 174.547 53.1515 174.331 52.8963 174.337C52.5343 174.346 52.4047 174.796 51.8357 175.612C50.9823 176.835 50.6743 176.681 50.1121 177.683C49.6948 178.427 49.6453 178.902 49.3444 178.93C48.9185 178.97 48.7426 178.044 48.2222 178.008C47.6911 177.971 47.1598 178.886 46.8964 179.601C46.402 180.943 46.7081 181.968 46.776 182.99C46.8497 184.101 46.6766 185.726 45.4624 187.813L34.0103 205.947C36.4697 202.25 43.4512 192.169 46.264 188.472C47.076 187.404 47.9486 186.333 49.2917 186.131C50.5848 185.937 52.1582 186.573 54.3542 186.536C54.6107 186.531 55.3244 186.51 55.4981 186.134C55.6416 185.823 55.2852 185.553 55.4149 185.261C55.5887 184.869 56.3711 185.037 57.4374 184.777C58.1893 184.593 58.7001 184.29 59.1393 184.029C59.2717 183.951 61.2445 182.763 61.0232 182.09Z" fill="#F2F2F2"/>
<path d="M31.0278 186.323C30.7301 186.259 30.4764 186.938 30.2181 186.866C29.9607 186.795 30.123 186.096 29.7633 185.277C29.6985 185.129 29.2898 184.199 28.8733 184.221C28.0839 184.262 27.9609 187.69 26.7974 187.85C26.542 187.885 26.2094 187.767 25.411 187.85C25.0934 187.883 24.9248 187.924 24.8544 188.051C24.7544 188.23 24.9393 188.423 25.1778 188.936C25.5355 189.705 25.3708 189.811 25.7034 190.374C25.9503 190.792 26.1708 190.954 26.0978 191.108C25.9945 191.328 25.4864 191.146 25.3185 191.39C25.1472 191.638 25.4457 192.161 25.7228 192.496C26.2427 193.124 26.8374 193.271 27.3617 193.533C27.9314 193.817 28.6843 194.371 29.3645 195.565L35.0155 206.383C33.8995 204.117 30.9356 197.803 29.9211 195.364C29.6282 194.66 29.3507 193.925 29.6387 193.212C29.9159 192.525 30.6838 191.941 31.2992 190.859C31.3711 190.733 31.5666 190.379 31.431 190.185C31.3189 190.026 31.0826 190.122 30.9757 189.974C30.8324 189.776 31.1411 189.443 31.3202 188.848C31.4465 188.428 31.4442 188.091 31.4421 187.802C31.4415 187.715 31.4242 186.41 31.0278 186.323Z" fill="#F2F2F2"/>
<path d="M36.6655 188.963L36.8432 187.333L36.9521 187.231C37.4561 186.757 37.7714 186.256 37.8897 185.739C37.9086 185.657 37.9231 185.574 37.938 185.49C37.997 185.155 38.0703 184.738 38.3944 184.305C38.5759 184.064 39.0558 183.519 39.5508 183.71C39.6844 183.759 39.7745 183.845 39.8372 183.937C39.8529 183.921 39.869 183.905 39.8862 183.888C40.1001 183.681 40.2496 183.606 40.3937 183.533C40.5044 183.477 40.6187 183.419 40.8122 183.265C40.8971 183.198 40.965 183.137 41.0223 183.086C41.196 182.932 41.4181 182.752 41.7224 182.823C42.045 182.911 42.1556 183.217 42.229 183.419C42.36 183.78 42.4004 184.029 42.4271 184.193C42.4367 184.253 42.4479 184.321 42.4563 184.343C42.5269 184.52 43.4132 184.566 43.7467 184.585C44.4963 184.625 45.1449 184.66 45.3009 185.17C45.4129 185.535 45.1796 185.933 44.5876 186.385C44.4032 186.525 44.2188 186.622 44.0582 186.695C44.157 186.788 44.2357 186.914 44.2405 187.086C44.2514 187.493 43.8313 187.805 42.9922 188.016C42.7836 188.069 42.5031 188.139 42.1361 188.121C41.9632 188.112 41.8118 188.086 41.6827 188.062C41.6634 188.135 41.6281 188.211 41.5645 188.283C41.3777 188.495 41.0761 188.549 40.6666 188.43C40.2146 188.304 39.8575 188.134 39.5423 187.984C39.267 187.854 39.0297 187.743 38.8305 187.712C38.4601 187.661 38.1147 187.888 37.7013 188.191L36.6655 188.963Z" fill="#F2F2F2"/>
<path d="M39.6219 179.679L37.9906 179.922L37.8633 179.843C37.2747 179.479 36.7065 179.303 36.1741 179.32C36.0894 179.323 36.0049 179.33 35.9189 179.337C35.5777 179.365 35.1537 179.401 34.6503 179.199C34.3697 179.085 33.7176 178.762 33.7773 178.238C33.7919 178.097 33.8528 177.989 33.9257 177.905C33.9063 177.894 33.8869 177.883 33.8658 177.87C33.6106 177.717 33.499 177.593 33.3916 177.473C33.3089 177.38 33.2238 177.285 33.0251 177.138C32.9379 177.074 32.8616 177.024 32.7974 176.982C32.6034 176.854 32.3714 176.686 32.3638 176.375C32.3672 176.043 32.6368 175.859 32.8153 175.737C33.1335 175.52 33.3649 175.418 33.5185 175.35C33.5746 175.326 33.6377 175.298 33.657 175.284C33.8112 175.172 33.6309 174.308 33.565 173.982C33.4142 173.252 33.2837 172.619 33.7406 172.34C34.0674 172.14 34.514 172.263 35.1036 172.717C35.2871 172.859 35.4282 173.012 35.5394 173.148C35.6047 173.029 35.7076 172.922 35.8738 172.873C36.2672 172.76 36.6777 173.084 37.0955 173.838C37.1998 174.025 37.3391 174.277 37.415 174.634C37.4506 174.802 37.4634 174.954 37.4722 175.085C37.5483 175.085 37.6312 175.099 37.7175 175.142C37.9717 175.268 38.1008 175.544 38.0881 175.968C38.0809 176.435 38.0058 176.821 37.9401 177.162C37.8831 177.46 37.8348 177.716 37.8557 177.915C37.8995 178.284 38.2084 178.559 38.6076 178.88L39.6219 179.679Z" fill="#F2F2F2"/>
<path d="M39.8418 174.811L40.0194 173.181L40.1284 173.079C40.6324 172.605 40.9477 172.104 41.066 171.587C41.0848 171.505 41.0994 171.422 41.1143 171.338C41.1733 171.003 41.2465 170.586 41.5707 170.153C41.7521 169.912 42.2321 169.367 42.727 169.558C42.8606 169.608 42.9508 169.694 43.0135 169.785C43.0292 169.769 43.0453 169.753 43.0625 169.736C43.2763 169.53 43.4259 169.454 43.57 169.381C43.6807 169.325 43.795 169.267 43.9885 169.114C44.0733 169.046 44.1413 168.985 44.1986 168.935C44.3723 168.78 44.5944 168.6 44.8987 168.671C45.2213 168.759 45.3319 169.065 45.4053 169.267C45.5363 169.628 45.5767 169.877 45.6034 170.041C45.613 170.102 45.6241 170.169 45.6326 170.191C45.7032 170.368 46.5895 170.414 46.9229 170.433C47.6726 170.473 48.3212 170.508 48.4772 171.019C48.5891 171.384 48.3559 171.782 47.7639 172.233C47.5795 172.374 47.3951 172.471 47.2345 172.543C47.3333 172.636 47.412 172.762 47.4168 172.934C47.4276 173.341 47.0076 173.653 46.1684 173.864C45.9599 173.917 45.6794 173.987 45.3123 173.969C45.1395 173.961 44.988 173.934 44.8589 173.91C44.8397 173.983 44.8044 174.059 44.7408 174.131C44.554 174.343 44.2523 174.397 43.8429 174.278C43.3909 174.152 43.0337 173.982 42.7186 173.833C42.4433 173.702 42.206 173.591 42.0068 173.56C41.6364 173.509 41.291 173.736 40.8776 174.039L39.8418 174.811Z" fill="#F2F2F2"/>
<path d="M34.5515 206.04L34.2631 205.756L33.8622 205.714C33.8641 205.677 33.8615 205.589 33.8585 205.452C33.8431 204.703 33.7952 202.421 34.115 198.914C34.3382 196.467 34.7113 193.982 35.2238 191.529C35.7371 189.072 36.2699 187.243 36.6979 185.774C37.0208 184.665 37.3468 183.614 37.665 182.59C38.5142 179.854 39.316 177.27 39.8125 174.322C39.9237 173.664 40.1545 172.294 39.682 170.677C39.4079 169.739 38.9385 168.857 38.2865 168.054L38.9175 167.548C39.637 168.434 40.1561 169.412 40.4605 170.453C40.9844 172.246 40.7329 173.738 40.6121 174.455C40.1068 177.455 39.297 180.065 38.4394 182.827C38.1228 183.847 37.7979 184.894 37.4764 185.998C37.0523 187.454 36.5243 189.266 36.0176 191.692C35.5109 194.116 35.1426 196.57 34.9219 198.987C34.6064 202.449 34.6538 204.697 34.6693 205.435C34.6773 205.83 34.679 205.912 34.5515 206.04Z" fill="#F2F2F2"/>
<path d="M36.5552 168.982C36.5228 168.975 36.4901 168.967 36.4574 168.957C35.7918 168.772 35.2579 168.233 34.8701 167.355C34.6886 166.942 34.6458 166.508 34.5603 165.642C34.5469 165.509 34.4877 164.833 34.5605 163.937C34.6079 163.352 34.6712 163.117 34.8314 162.933C35.0093 162.727 35.249 162.609 35.5024 162.55C35.5092 162.473 35.5347 162.397 35.5853 162.325C35.7937 162.027 36.1425 162.15 36.3318 162.214C36.4271 162.248 36.546 162.291 36.6796 162.313C36.8897 162.349 37.0151 162.313 37.205 162.258C37.3866 162.206 37.6125 162.14 37.9247 162.146C38.5408 162.154 38.9969 162.43 39.1473 162.52C39.9393 162.993 40.2128 163.748 40.5292 164.621C40.5921 164.797 40.8008 165.43 40.8494 166.245C40.8845 166.833 40.8069 167.074 40.718 167.246C40.5364 167.6 40.2583 167.764 39.5682 168.109C38.8471 168.47 38.4854 168.651 38.1888 168.744C37.4985 168.96 37.0651 169.095 36.5552 168.982Z" fill="#F2F2F2"/>
<path d="M128.127 119.459C130.279 117.652 129.708 113.462 126.85 110.101C125.6 108.629 124.118 107.561 122.667 106.976L121 105.063L99.4644 78.2459C99.4644 78.2459 87.5386 51.5686 84.0181 48.6865C80.4977 45.8045 76.3557 47.305 76.3557 47.305L73.124 51.2787L93.2623 88.5266L113.873 109.141L116.655 112.024C116.993 113.543 117.805 115.173 119.056 116.644C121.913 120.006 125.974 121.266 128.127 119.459Z" fill="#FFB6B6"/>
<path d="M87.476 53.647L92.8728 61.513L100.62 72.9088L86.6994 77.6949L74.4082 56.7342L87.476 53.647Z" fill="#E6E6E6"/>
<path d="M308 205.314H0V206.248H308V205.314Z" fill="#E8E5E2"/>
<path d="M218.047 140.446H193.492V132.159C193.492 118.828 204.381 108.005 217.794 108.005H218.047V140.446Z" fill="#2F2E41"/>
<path d="M198.964 136.106L203.034 122.867L213.475 122.348L218.047 140.446L198.964 136.106Z" fill="#FFB6B6"/>
<path opacity="0.1" d="M198.964 136.106L203.034 122.867L213.475 122.348L218.047 140.446L198.964 136.106Z" fill="black"/>
<path d="M208.465 130.624C215.246 130.624 220.743 125.161 220.743 118.422C220.743 111.683 215.246 106.22 208.465 106.22C201.684 106.22 196.187 111.683 196.187 118.422C196.187 125.161 201.684 130.624 208.465 130.624Z" fill="#FFB6B6"/>
<path d="M182.442 186.627L179.192 189.857C179.192 189.857 161.827 178.282 155.168 182.598C148.508 186.915 148.218 195.275 156.049 199.887C163.88 204.499 183.892 215.74 183.892 215.74C183.892 215.74 210.575 220.352 228.557 206.228C246.539 192.104 249.874 192.824 246.684 185.33C243.494 177.836 236.533 179.565 236.533 179.565L223.191 187.348L217.681 186.195L182.442 186.627Z" fill="#D0D0D0"/>
<path d="M183.167 190.23L197.088 196.283L191.868 208.678L171.275 203.778" fill="#D0D0D0"/>
<path d="M218.751 190.23L199.989 198.877L207.24 213.866L228.122 204.931" fill="#D0D0D0"/>
<path d="M199.989 133.709L181.862 141.66L187.662 173.367L182.442 186.627L210.285 190.951L224.563 186.547L223.337 180.285L224.563 156.915L229.427 143.101L216.376 134.166L199.989 133.709Z" fill="#E6E6E6"/>
<path d="M195.348 197.437L204.339 200.031L199.989 210.624L188.097 206.084L195.348 197.437Z" fill="#FFB6B6"/>
<path d="M207.844 197.437L196.798 202.913V211.278L209.27 209.831L207.844 197.437Z" fill="#FFB6B6"/>
<path d="M191.868 213.29C191.868 213.29 211.01 225.973 218.261 220.784C225.512 215.596 229.572 208.966 228.122 208.101C226.672 207.237 222.321 205.795 222.321 205.795L197.958 210.696L191.868 213.29Z" fill="#D0D0D0"/>
<path d="M167.505 203.778C167.505 203.778 157.644 218.767 166.925 221.073C176.206 223.379 199.595 213.866 199.595 213.866L197.959 201.472L193.608 205.795L167.505 203.778Z" fill="#D0D0D0"/>
<path d="M228.964 100.028C226.251 97.5361 225.346 94.1247 226.942 92.409C228.538 90.6934 232.031 91.3233 234.744 93.8169C235.842 94.7982 236.687 96.0265 237.209 97.399L248.57 108.103L243.402 113.295L232.751 102.191C231.333 101.781 230.034 101.04 228.964 100.028Z" fill="#FFB6B6"/>
<path d="M225.874 133.22L246.43 123.25L235.797 105.074L239.126 98.3521C239.126 98.3521 265.005 112.689 262.429 123.122C259.854 133.554 234.185 152.72 225.987 149.656C223.498 148.726 222.057 147.066 221.255 145.205C219.299 140.661 221.404 135.388 225.874 133.22Z" fill="#E6E6E6"/>
<path d="M184.959 128.294C185.583 126.407 186.816 124.755 187.368 122.845C188.1 120.31 189.66 125.934 189.812 123.301C190.101 118.295 197.788 105.419 202.176 102.946C206.564 100.473 209.085 101.219 213.556 103.541C213.556 103.541 215.726 103.679 218.428 105.004C221.129 106.33 223.561 108.453 224.612 111.26C225.445 113.484 225.353 115.927 225.631 118.285C226.407 124.852 230.111 131.099 229.316 137.664C229.068 139.712 228.284 141.83 226.599 143.035C224.914 144.24 222.192 144.109 221.082 142.365C220.704 141.77 220.544 141.064 220.219 140.438C219.895 139.812 219.309 139.229 218.601 139.248C217.536 139.277 216.995 140.697 217.414 141.669C217.834 142.642 218.82 143.229 219.746 143.751C217.541 144.737 214.805 144.43 212.876 142.98C210.948 141.53 209.906 138.997 210.261 136.62C210.761 133.269 215.672 133.963 216.251 130.625C216.672 128.195 218.151 124.129 217.748 121.696C217.345 119.263 215.41 122.209 217.449 120.803C215.206 121.878 210.41 114.528 208.062 113.705C205.715 112.882 203.724 111.099 202.657 108.864C200.167 112.451 197.977 111.477 197.085 115.744C196.193 120.011 197.674 133.172 201.346 135.554C199.876 136.55 198.049 134.508 197.359 136.137C196.969 137.061 196.716 138.071 196.067 138.838C194.829 140.302 192.543 140.391 190.721 139.775C188.461 139.012 186.529 137.335 185.464 135.212C184.399 133.09 184.213 130.547 184.959 128.294Z" fill="#2F2E41"/>
<path d="M153.552 125.434C152.889 121.822 150.476 119.234 148.163 119.655C145.85 120.075 144.513 123.343 145.178 126.956C145.423 128.403 146.014 129.771 146.9 130.944L149.906 146.213L157.086 144.658L153.36 129.771C153.772 128.361 153.838 126.874 153.552 125.434Z" fill="#FFB6B6"/>
<path d="M183.406 140.627L163.921 152.534L154.177 133.871L146.683 133.062C146.683 133.062 144.996 162.461 155.239 165.89C165.482 169.319 195.518 158.05 197.308 149.529C197.852 146.943 197.214 144.843 196.062 143.174C193.25 139.097 187.643 138.038 183.406 140.627Z" fill="#E6E6E6"/>
<path d="M289.713 162.857L219.915 184.782V100.317L289.713 78.3926V162.857Z" fill="white"/>
<path d="M219.445 185.419V99.9758L290.183 77.7559V163.199L219.445 185.419ZM220.384 100.659V184.145L289.244 162.516V79.0295L220.384 100.659Z" fill="#3F3D56"/>
<path d="M118.787 181.594L174.763 199.178V131.439L118.787 113.856V181.594Z" fill="white"/>
<path d="M175.232 199.815L174.621 199.622L118.317 181.936V113.219L118.928 113.412L175.232 131.098V199.815ZM119.256 181.253L174.293 198.541V131.781L119.256 114.493V181.253Z" fill="#3F3D56"/>
<path d="M236.879 105.538C236.081 109.67 237.537 114.163 240.61 117.058C243.684 119.952 248.276 121.154 252.386 120.14C256.287 119.177 259.935 115.077 258.285 111.435C257.108 108.838 253.519 107.855 250.944 109.104C248.368 110.353 246.936 113.355 247.084 116.199C247.233 119.043 248.756 121.688 250.788 123.696C256.087 128.935 264.576 130.294 269.247 136.094C273.326 141.159 273.201 149.108 268.964 154.043C264.727 158.978 256.848 160.353 251.173 157.146C248.834 155.825 246.822 153.705 246.241 151.094C245.66 148.483 246.83 145.421 249.288 144.334C253.924 142.283 258.592 147.791 263.665 147.872C266.571 147.918 269.393 145.92 270.299 143.176C271.206 140.432 270.123 137.161 267.755 135.487" fill="#2F2E41"/>
<path d="M138.652 164.637C139.549 167.254 137.69 170.446 134.959 170.976C132.228 171.506 129.297 169.244 129.138 166.483C128.978 163.722 131.629 161.141 134.403 161.357C138.872 161.705 141.511 167.784 145.985 167.5C149.046 167.306 150.98 164.194 152.109 161.36C153.41 158.097 154.362 154.696 154.943 151.234C155.427 148.346 155.649 145.356 154.951 142.512C154.252 139.667 152.521 136.967 149.895 135.638C145.908 133.619 140.45 135.588 138.546 139.613C136.642 143.638 138.476 148.955 142.385 151.12C147.274 153.827 154.007 151.877 158.449 155.261C162.009 157.972 162.621 162.973 162.945 167.419C163.153 170.254 163.357 173.134 162.773 175.917C162.189 178.7 160.701 181.424 158.234 182.863C156.365 183.952 153.871 184.168 152.072 182.967C150.274 181.767 149.598 178.988 150.997 177.343C152.142 175.997 154.226 175.782 155.901 176.361C157.577 176.939 158.941 178.15 160.256 179.333" fill="#2F2E41"/>
<path d="M92.9552 26.8761L89.0466 41.686L74.145 38.7726C74.145 38.7726 80.0079 28.0901 78.5422 23.2344L92.9552 26.8761Z" fill="#FFB6B6"/>
<path d="M77.2249 219.655L86.1985 219.654L90.4673 185.254L77.2231 185.255L77.2249 219.655Z" fill="#FFB6B6"/>
<path d="M107.969 219.452C108.249 219.92 108.396 221.429 108.396 221.973C108.396 223.645 107.033 225 105.351 225H77.5605C76.413 225 75.4827 224.076 75.4827 222.935V221.785C75.4827 221.785 74.108 218.329 76.9383 214.07C76.9383 214.07 80.4561 217.405 85.7126 212.181L87.2626 209.39L98.4831 217.546L104.702 218.307C106.063 218.473 107.27 218.281 107.969 219.452Z" fill="#E8E5E2"/>
<path d="M102.141 120.1L89.7761 203.727H74.2622L76.3251 155.991L77.4108 130.891L74.2622 118.943C74.2622 118.943 72.8266 116.288 71.6173 113.069C70.2541 109.436 69.1774 105.081 70.7758 103.015C71.3639 102.254 72.893 101.691 74.971 101.271C76.2407 101.013 77.7185 100.812 79.3139 100.657C88.4883 99.7544 101.538 100.318 101.538 100.318L101.87 111.198L102.054 117.274L102.141 120.1Z" fill="#E8E5E2"/>
<path d="M61.4175 215.564L70.2957 216.861L79.5538 183.444L66.4504 181.53L61.4175 215.564Z" fill="#FFB6B6"/>
<path d="M91.8648 219.809C92.0728 220.312 91.9977 221.827 91.9181 222.365C91.6734 224.019 90.126 225.162 88.4618 224.919L60.9672 220.902C59.8319 220.736 59.0469 219.687 59.2138 218.558L59.3821 217.421C59.3821 217.421 58.5277 213.803 61.9514 209.998C61.9514 209.998 64.9437 213.806 70.9088 209.397L72.8508 206.86L82.7583 216.551L88.8002 218.203C90.122 218.564 91.3438 218.549 91.8648 219.809Z" fill="#E8E5E2"/>
<path d="M102.336 106.154L100.64 120.67L91.3907 151.26L76.165 201.62L60.8179 199.379L74.5918 127.773L73.2279 115.495C73.2279 115.495 72.7838 114.275 72.2747 112.488C71.2641 108.953 69.9966 103.196 71.391 100.26C71.5793 99.8607 71.8157 99.5144 72.1081 99.2339C72.6566 98.7053 73.7713 98.3843 75.2648 98.214C81.5072 97.5128 94.3631 99.5183 100.084 100.503L102.336 106.154Z" fill="#E8E5E2"/>
<path d="M90.5126 37.316L107.368 58.4382L104.343 80.4599L101.75 102.868L71.2139 98.2549C71.2139 98.2549 77.8096 82.4739 78.5425 81.7455C79.2754 81.0172 81.1162 82.816 79.8293 80.4599C78.5425 78.1038 77.0768 78.1038 78.2982 76.8898C79.5196 75.6759 68.771 59.8949 68.771 51.3975C68.771 42.9 73.901 36.1021 73.901 36.1021L90.5126 37.316Z" fill="#E6E6E6"/>
<path d="M86.5795 29.6727C92.8507 29.6727 97.9345 24.6202 97.9345 18.3876C97.9345 12.155 92.8507 7.10254 86.5795 7.10254C80.3084 7.10254 75.2246 12.155 75.2246 18.3876C75.2246 24.6202 80.3084 29.6727 86.5795 29.6727Z" fill="#FFB6B6"/>
<path d="M86.0489 39.9645C86.0489 39.9645 87.748 26.6028 88.0487 22.7172C88.3495 18.8315 93.8683 12.7649 93.8683 12.7649L97.778 15.9033C97.778 15.9033 101.086 15.9033 98.8306 11.121C96.575 6.33862 92.3646 5.59138 92.3646 5.59138C92.3646 5.59138 91.9134 -0.685455 84.094 0.0617913C76.2746 0.809033 72.816 7.08586 72.816 7.08586C72.816 7.08586 72.3649 -0.834896 67.4025 4.99359C62.4402 10.8221 59.5831 13.2132 64.8462 15.1561C70.1093 17.0989 74.019 15.6044 74.019 15.6044C74.019 15.6044 68.9063 16.6506 69.8085 20.2373C70.7108 23.8241 57.929 40.1139 63.7936 41.9073C69.6582 43.7007 82.7406 48.0347 84.2444 45.1952C85.7481 42.3557 86.0489 39.9645 86.0489 39.9645Z" fill="#2F2E41"/>
<path d="M132.856 120.578C135.024 118.789 134.488 114.595 131.659 111.21C130.421 109.728 128.948 108.647 127.502 108.05L125.851 106.123L104.543 79.1278C104.543 79.1278 92.8423 52.3521 89.3462 49.4409C85.8502 46.5296 81.6958 47.9956 81.6958 47.9956L78.4307 51.9422L98.2542 89.3565L118.69 110.141L121.448 113.047C121.773 114.57 122.572 116.207 123.81 117.688C126.639 121.073 130.689 122.367 132.856 120.578Z" fill="#FFB6B6"/>
<path d="M77.1938 45.9204C77.1938 45.9204 82.4102 72.8233 88.346 76.7893L100.174 67.6228C100.174 67.6228 101.209 67.5786 99.283 65.4159C97.3565 63.2531 97.8497 58.6089 97.8497 58.6089C97.8497 58.6089 98.7166 59.7235 96.8303 58.1761C94.9441 56.6287 96.7001 45.9868 96.7001 45.9868L77.1938 45.9204Z" fill="#E6E6E6"/>
</g>
<defs>
<clipPath id="clip0_262_1373">
<rect width="308" height="225" fill="white"/>
</clipPath>
</defs>
</svg>
