<svg width="264" height="247" viewBox="0 0 264 247" fill="none" xmlns="http://www.w3.org/2000/svg">
<g clip-path="url(#clip0_262_1378)">
<path d="M244.042 188.962L255.886 190.814C259.895 185.958 262.658 180.197 263.936 174.031C255.276 181.122 242.107 177.354 231.606 181.225C228.34 182.458 225.393 184.41 222.984 186.936C220.575 189.463 218.765 192.499 217.688 195.821L211.9 202.05C217.14 204.125 222.766 205.039 228.393 204.729C234.019 204.419 239.511 202.893 244.491 200.255C247.27 198.748 249.848 196.896 252.165 194.745C248.021 192.134 244.042 188.962 244.042 188.962Z" fill="#F2F2F2"/>
<path d="M239.838 170.014L251.264 166.388C252.687 160.253 252.592 153.864 250.987 147.775C246.398 157.985 232.93 160.488 225.258 168.638C222.884 171.198 221.117 174.26 220.087 177.596C219.057 180.932 218.791 184.458 219.308 187.911L216.905 196.068C222.519 195.588 227.963 193.896 232.86 191.108C237.758 188.321 241.993 184.505 245.275 179.922C247.09 177.333 248.572 174.526 249.686 171.566C244.813 171.079 239.838 170.014 239.838 170.014Z" fill="#F2F2F2"/>
<path d="M264 205.824C264 205.885 263.988 205.946 263.965 206.002C263.942 206.059 263.907 206.11 263.864 206.153C263.821 206.197 263.77 206.231 263.713 206.254C263.657 206.277 263.596 206.289 263.535 206.289H0.464962C0.341646 206.289 0.22338 206.24 0.136183 206.153C0.0489861 206.066 0 205.947 0 205.824C0 205.701 0.0489861 205.582 0.136183 205.495C0.22338 205.408 0.341646 205.359 0.464962 205.359H263.535C263.596 205.359 263.657 205.371 263.713 205.394C263.77 205.417 263.821 205.451 263.864 205.495C263.907 205.538 263.942 205.589 263.965 205.646C263.988 205.702 264 205.763 264 205.824Z" fill="#CCCCCC"/>
<path d="M109.011 185.995C155.406 185.995 193.016 148.371 193.016 101.961C193.016 55.55 155.406 17.9268 109.011 17.9268C62.6159 17.9268 25.0054 55.55 25.0054 101.961C25.0054 148.371 62.6159 185.995 109.011 185.995Z" fill="#E6E6E6"/>
<path d="M181.295 101.961C181.303 113.244 178.668 124.372 173.602 134.452C168.535 144.532 161.178 153.285 152.119 160.007C151.514 160.46 150.896 160.902 150.275 161.332C138.162 169.755 123.763 174.269 109.011 174.269C94.2587 174.269 79.8597 169.755 67.7465 161.332C67.1253 160.902 66.508 160.46 65.9023 160.007C56.8503 153.279 49.4973 144.525 44.4314 134.446C39.3655 124.367 36.7271 113.242 36.7271 101.961C36.7271 90.6799 39.3655 79.555 44.4314 69.4761C49.4973 59.3971 56.8503 50.6435 65.9023 43.9151C66.508 43.4618 67.1253 43.0201 67.7465 42.5901C79.8597 34.1673 94.2587 29.6528 109.011 29.6528C123.763 29.6528 138.162 34.1673 150.275 42.5901C150.896 43.0201 151.514 43.4618 152.119 43.9151C161.178 50.6376 168.535 59.39 173.602 69.4703C178.668 79.5506 181.303 90.6784 181.295 101.961Z" fill="white"/>
<path d="M109.011 168.015C145.479 168.015 175.043 138.442 175.043 101.961C175.043 65.4799 145.479 35.9062 109.011 35.9062C72.5422 35.9062 42.9785 65.4799 42.9785 101.961C42.9785 138.442 72.5422 168.015 109.011 168.015Z" fill="#BBBABA"/>
<path opacity="0.2" d="M109.183 36.0908C108.182 36.0908 107.187 36.117 106.197 36.1611C122.886 37.6281 138.394 45.3865 149.579 57.8643C160.763 70.3421 166.788 86.6063 166.432 103.362C166.077 120.117 159.368 136.111 147.664 148.103C135.96 160.095 120.137 167.188 103.401 167.945C105.307 168.111 107.234 168.2 109.183 168.2C126.696 168.2 143.491 161.241 155.875 148.853C168.258 136.465 175.215 119.664 175.215 102.145C175.215 84.6267 168.258 67.8254 155.875 55.4378C143.491 43.0501 126.696 36.0908 109.183 36.0908Z" fill="black"/>
<path d="M109.206 31.2158C108.636 31.2168 108.09 31.4436 107.688 31.8466C107.285 32.2495 107.058 32.7957 107.057 33.3655V42.7461C107.057 43.3162 107.284 43.863 107.687 44.2661C108.09 44.6693 108.636 44.8958 109.206 44.8958C109.776 44.8958 110.323 44.6693 110.726 44.2661C111.129 43.863 111.355 43.3162 111.355 42.7461V33.3655C111.354 32.7957 111.127 32.2495 110.725 31.8466C110.322 31.4436 109.776 31.2168 109.206 31.2158Z" fill="white"/>
<path d="M152.12 43.915C151.514 43.4616 150.897 43.0199 150.275 42.59C149.903 42.5657 149.53 42.6391 149.194 42.8029C148.858 42.9667 148.571 43.2153 148.361 43.5241L143.082 51.2748C142.761 51.746 142.641 52.3252 142.747 52.8853C142.853 53.4453 143.178 53.9401 143.649 54.2609C144.12 54.5818 144.699 54.7023 145.259 54.596C145.818 54.4897 146.313 54.1654 146.634 53.6942L151.912 45.9435C152.113 45.6495 152.237 45.3099 152.274 44.9556C152.31 44.6013 152.257 44.2436 152.12 43.915Z" fill="white"/>
<path d="M176.102 79.2563C175.996 78.995 175.839 78.7572 175.641 78.5564C175.443 78.3556 175.207 78.1959 174.947 78.0862C174.688 77.9766 174.409 77.9193 174.127 77.9175C173.845 77.9158 173.565 77.9696 173.304 78.0759L164.615 81.6054C164.087 81.8203 163.666 82.2359 163.445 82.7609C163.224 83.2859 163.22 83.8773 163.434 84.4051C163.649 84.9329 164.064 85.354 164.588 85.5759C165.113 85.7977 165.704 85.8021 166.232 85.5882L174.922 82.0587C175.449 81.8427 175.869 81.4265 176.09 80.9013C176.311 80.3761 176.316 79.7846 176.102 79.2563Z" fill="white"/>
<path d="M74.9399 51.2748L69.6612 43.5241C69.4509 43.2153 69.1636 42.9667 68.8279 42.8029C68.4921 42.6391 68.1194 42.5657 67.7467 42.59C67.1254 43.0199 66.5081 43.4616 65.9024 43.915C65.7652 44.2436 65.7122 44.6013 65.7484 44.9556C65.7845 45.3099 65.9087 45.6495 66.1095 45.9435L71.3882 53.6942C71.7089 54.1653 72.2036 54.4897 72.7634 54.596C73.3232 54.7023 73.9023 54.5818 74.3733 54.2609C74.8443 53.9401 75.1686 53.4453 75.2748 52.8853C75.3811 52.3253 75.2606 51.746 74.9399 51.2748Z" fill="white"/>
<path d="M53.4071 81.6053L44.7174 78.0759C44.1895 77.8614 43.598 77.8655 43.0731 78.0873C42.5481 78.309 42.1328 78.7303 41.9183 79.2584C41.7038 79.7865 41.7078 80.3781 41.9294 80.9033C42.1509 81.4284 42.572 81.844 43.0998 82.0587L51.7895 85.5881C52.3174 85.8021 52.9086 85.7977 53.4332 85.5758C53.9578 85.354 54.3729 84.9329 54.5872 84.405C54.8016 83.8772 54.7977 83.2858 54.5765 82.7608C54.3552 82.2359 53.9346 81.8203 53.4071 81.6053Z" fill="white"/>
<path d="M109.206 159.026C108.636 159.027 108.09 159.254 107.688 159.657C107.285 160.06 107.058 160.606 107.057 161.176V170.556C107.057 171.126 107.284 171.673 107.687 172.076C108.09 172.479 108.636 172.706 109.206 172.706C109.776 172.706 110.323 172.479 110.726 172.076C111.129 171.673 111.355 171.126 111.355 170.556V161.176C111.354 160.606 111.127 160.06 110.725 159.657C110.322 159.254 109.776 159.027 109.206 159.026Z" fill="white"/>
<path d="M151.912 157.978L146.634 150.228C146.475 149.994 146.272 149.795 146.036 149.64C145.8 149.485 145.536 149.378 145.259 149.326C144.981 149.273 144.697 149.276 144.42 149.333C144.144 149.391 143.882 149.502 143.649 149.661C143.415 149.82 143.216 150.023 143.061 150.259C142.906 150.495 142.8 150.759 142.747 151.037C142.695 151.314 142.697 151.599 142.755 151.875C142.812 152.151 142.923 152.414 143.082 152.647L148.361 160.398C148.571 160.707 148.858 160.955 149.194 161.119C149.53 161.283 149.903 161.356 150.275 161.332C150.897 160.902 151.514 160.46 152.12 160.007C152.257 159.678 152.31 159.321 152.274 158.966C152.237 158.612 152.113 158.272 151.912 157.978Z" fill="white"/>
<path d="M174.922 121.863L166.233 118.334C165.705 118.119 165.113 118.123 164.588 118.345C164.063 118.567 163.648 118.988 163.433 119.516C163.219 120.044 163.223 120.636 163.445 121.161C163.666 121.686 164.087 122.102 164.615 122.317L173.305 125.846C173.833 126.06 174.424 126.055 174.948 125.834C175.473 125.612 175.888 125.191 176.102 124.663C176.317 124.135 176.313 123.544 176.092 123.019C175.87 122.494 175.45 122.078 174.922 121.863Z" fill="white"/>
<path d="M74.3733 149.661C73.9023 149.34 73.3232 149.22 72.7634 149.326C72.2037 149.432 71.709 149.756 71.3882 150.227L66.1095 157.978C65.9087 158.272 65.7845 158.612 65.7484 158.966C65.7122 159.32 65.7652 159.678 65.9024 160.007C66.5081 160.46 67.1254 160.902 67.7467 161.332C68.1194 161.356 68.4921 161.283 68.8279 161.119C69.1636 160.955 69.4509 160.706 69.6612 160.397L74.9399 152.647C75.0987 152.414 75.21 152.151 75.2675 151.875C75.325 151.599 75.3275 151.314 75.2749 151.036C75.2223 150.759 75.1156 150.495 74.9609 150.259C74.8062 150.023 74.6065 149.82 74.3733 149.661Z" fill="white"/>
<path d="M54.5871 119.514C54.481 119.253 54.3244 119.015 54.1264 118.814C53.9283 118.613 53.6926 118.454 53.4328 118.344C53.173 118.234 52.8942 118.177 52.6122 118.175C52.3303 118.174 52.0507 118.227 51.7896 118.334L43.0999 121.863C42.5724 122.078 42.1518 122.494 41.9305 123.019C41.7092 123.544 41.7054 124.135 41.9197 124.663C42.1341 125.191 42.5492 125.612 43.0738 125.834C43.5984 126.056 44.1896 126.06 44.7175 125.846L53.4071 122.317C53.9344 122.101 54.3545 121.684 54.5757 121.159C54.7969 120.634 54.801 120.042 54.5871 119.514Z" fill="white"/>
<path d="M111.994 100.894C112.193 102.069 111.917 103.275 111.228 104.247C110.539 105.219 109.492 105.878 108.318 106.079L70.1843 112.568C69.6026 112.667 69.0071 112.65 68.4318 112.519C67.8565 112.388 67.3127 112.144 66.8314 111.803C66.35 111.461 65.9407 111.028 65.6267 110.529C65.3126 110.029 65.1001 109.472 65.0011 108.89C64.9022 108.308 64.9188 107.713 65.05 107.137C65.1812 106.562 65.4244 106.018 65.7658 105.536C66.1071 105.055 66.5399 104.645 67.0395 104.331C67.5391 104.017 68.0956 103.804 68.6773 103.705L106.811 97.2167C107.986 97.0182 109.191 97.2939 110.163 97.9833C111.135 98.6727 111.793 99.7196 111.994 100.894Z" fill="#3F3D56"/>
<path d="M152.13 143.158C151.582 143.709 150.838 144.02 150.061 144.023C149.284 144.026 148.538 143.721 147.985 143.174L106.935 102.432C106.384 101.884 106.073 101.14 106.07 100.363C106.068 99.586 106.373 98.8397 106.92 98.2882C107.468 97.7366 108.211 97.4248 108.988 97.4214C109.765 97.418 110.511 97.7232 111.063 98.2699L152.113 139.012C152.664 139.56 152.975 140.305 152.978 141.082C152.982 141.859 152.676 142.606 152.13 143.158Z" fill="#3F3D56"/>
<path d="M109.011 107.042C111.816 107.042 114.09 104.767 114.09 101.961C114.09 99.1548 111.816 96.8799 109.011 96.8799C106.206 96.8799 103.932 99.1548 103.932 101.961C103.932 104.767 106.206 107.042 109.011 107.042Z" fill="#CCCCCC"/>
<path d="M74.0242 13.8538C66.2274 26.116 54.3312 34.2537 39.6602 39.5997C39.3703 39.8169 39.0405 39.9748 38.6895 40.0645C38.3386 40.1542 37.9735 40.1739 37.6149 40.1224C37.2564 40.0709 36.9115 39.9493 36.6 39.7645C36.2885 39.5797 36.0164 39.3353 35.7992 39.0453C27.8301 28.4013 29.6295 13.189 40.1471 5.05574C42.6899 3.09282 45.5972 1.65473 48.7001 0.824948C51.803 -0.00482979 55.0398 -0.209766 58.2226 0.222043C61.4053 0.653851 64.4706 1.7138 67.2405 3.34035C70.0104 4.96691 72.4297 7.12767 74.358 9.69718L74.5784 9.99158C74.7956 10.2816 74.9535 10.6115 75.0431 10.9626C75.1328 11.3136 75.1524 11.6789 75.101 12.0375C75.0495 12.3962 74.9279 12.7412 74.7432 13.0528C74.5584 13.3645 74.3141 13.6366 74.0242 13.8538Z" fill="#E6E6E6"/>
<path d="M143.664 9.69718C145.592 7.12766 148.012 4.9669 150.781 3.34035C153.551 1.7138 156.617 0.653853 159.799 0.222044C162.982 -0.209764 166.219 -0.00483407 169.322 0.824943C172.425 1.65472 175.332 3.09281 177.875 5.05573C188.393 13.189 190.192 28.4013 182.223 39.0453C182.006 39.3353 181.734 39.5797 181.422 39.7645C181.11 39.9493 180.766 40.0709 180.407 40.1224C180.049 40.1738 179.683 40.1542 179.332 40.0645C178.982 39.9748 178.652 39.8169 178.362 39.5997C164.742 34.3835 153.573 25.3571 143.998 13.8538C143.412 13.4152 143.025 12.7618 142.921 12.0375C142.817 11.3132 143.005 10.5773 143.444 9.99157L143.664 9.69718Z" fill="#E6E6E6"/>
<path d="M140.247 174.765C139.75 175.044 139.384 175.509 139.229 176.057C139.075 176.606 139.143 177.193 139.421 177.691L151.823 199.861C152.101 200.359 152.566 200.725 153.114 200.88C153.663 201.035 154.25 200.965 154.748 200.687C155.245 200.409 155.611 199.944 155.766 199.395C155.921 198.847 155.852 198.259 155.574 197.762L143.171 175.591C142.892 175.094 142.428 174.729 141.88 174.574C141.331 174.419 140.744 174.488 140.247 174.765Z" fill="#E6E6E6"/>
<path d="M74.8505 175.591L62.4482 197.761C62.1701 198.259 62.1008 198.847 62.2558 199.395C62.4107 199.944 62.7771 200.408 63.2744 200.687C63.7717 200.965 64.3591 201.034 64.9075 200.88C65.456 200.725 65.9205 200.358 66.1989 199.861L78.6012 177.691C78.739 177.444 78.8271 177.173 78.8602 176.893C78.8933 176.612 78.8709 176.328 78.7943 176.056C78.7176 175.785 78.5882 175.531 78.4134 175.309C78.2386 175.087 78.0218 174.902 77.7755 174.764C77.5292 174.627 77.2581 174.539 76.9778 174.506C76.6975 174.472 76.4135 174.495 76.1418 174.572C75.8702 174.648 75.6164 174.778 75.3948 174.953C75.1733 175.128 74.9883 175.345 74.8505 175.591Z" fill="#E6E6E6"/>
<path d="M154.335 205.538C158.003 205.538 160.977 202.563 160.977 198.893C160.977 195.223 158.003 192.249 154.335 192.249C150.666 192.249 147.692 195.223 147.692 198.893C147.692 202.563 150.666 205.538 154.335 205.538Z" fill="#E6E6E6"/>
<path d="M159.024 35.5157C162.692 35.5157 165.666 32.5408 165.666 28.8711C165.666 25.2014 162.692 22.2266 159.024 22.2266C155.355 22.2266 152.381 25.2014 152.381 28.8711C152.381 32.5408 155.355 35.5157 159.024 35.5157Z" fill="#E6E6E6"/>
<path d="M108.62 19.8814C112.289 19.8814 115.263 16.9065 115.263 13.2368C115.263 9.56715 112.289 6.59229 108.62 6.59229C104.952 6.59229 101.978 9.56715 101.978 13.2368C101.978 16.9065 104.952 19.8814 108.62 19.8814Z" fill="#E6E6E6"/>
<path d="M60.5612 34.7339C64.2297 34.7339 67.2035 31.7591 67.2035 28.0894C67.2035 24.4197 64.2297 21.4448 60.5612 21.4448C56.8928 21.4448 53.9189 24.4197 53.9189 28.0894C53.9189 31.7591 56.8928 34.7339 60.5612 34.7339Z" fill="#E6E6E6"/>
<path d="M64.8591 205.538C68.5275 205.538 71.5014 202.563 71.5014 198.893C71.5014 195.223 68.5275 192.249 64.8591 192.249C61.1907 192.249 58.2168 195.223 58.2168 198.893C58.2168 202.563 61.1907 205.538 64.8591 205.538Z" fill="#E6E6E6"/>
<path d="M149.125 139.421C149.386 139.831 149.735 140.179 150.146 140.44C150.556 140.7 151.019 140.868 151.502 140.93C151.984 140.993 152.474 140.949 152.938 140.801C153.401 140.654 153.827 140.406 154.185 140.076L164.607 145.663L164.048 139.542L154.236 135.175C153.643 134.611 152.863 134.284 152.044 134.257C151.225 134.229 150.425 134.503 149.795 135.027C149.165 135.55 148.749 136.287 148.625 137.096C148.502 137.906 148.679 138.733 149.125 139.421Z" fill="#FFB7B7"/>
<path d="M156.719 141.557L160.803 135.917L180.48 145.222L204.965 140.626C206.176 140.399 207.421 140.441 208.613 140.75C209.806 141.058 210.915 141.625 211.864 142.411C212.812 143.197 213.576 144.182 214.101 145.296C214.626 146.41 214.899 147.627 214.902 148.859C214.903 151.083 214.023 153.218 212.453 154.794C210.883 156.371 208.752 157.26 206.528 157.266L178.468 157.318L156.719 141.557Z" fill="#E8E5E2"/>
<path d="M150.428 238.969L146.295 236.992L151.972 219.713L158.071 222.631L150.428 238.969Z" fill="#FFB7B7"/>
<path d="M178.133 236.183C177.832 236.372 177.532 236.557 177.228 236.742C176.624 237.112 176.014 237.477 175.404 237.835C175.097 238.014 174.788 238.193 174.481 238.37V238.379L174.463 238.382L174.457 238.385L173.989 238.5L173.319 236.727L173.009 235.91L172.572 234.753L171.771 232.637L167.551 221.493L174.111 219.875L174.357 220.88H174.36L174.481 221.378L176.773 230.675L177.24 232.576L177.256 232.634L177.538 233.769L177.781 234.753L178.051 235.852L178.133 236.183Z" fill="#FFB7B7"/>
<path d="M217.263 197.049C216.847 197.717 216.422 198.382 215.994 199.041C215.199 200.268 214.382 201.476 213.545 202.666C213.545 202.669 213.542 202.669 213.539 202.672C213.05 203.125 212.51 203.52 211.93 203.848C211.906 203.866 211.878 203.878 211.854 203.893C211.427 204.129 210.972 204.312 210.5 204.437C210.33 204.479 210.157 204.522 209.987 204.564C209.374 204.71 208.767 204.834 208.163 204.944C207.088 205.135 206.026 205.272 204.97 205.357C204.885 205.366 204.8 205.372 204.715 205.378C200.371 205.697 196.143 205.184 191.729 204.342C189.55 203.93 187.325 203.435 185.021 202.921C184.268 202.751 183.512 202.584 182.747 202.417C182.69 202.405 182.629 202.39 182.568 202.378C181.475 202.138 180.364 201.901 179.226 201.667C177.793 201.373 176.315 201.087 174.779 200.817L174.888 202.982C174.979 204.648 175.325 206.289 175.914 207.85C176.57 209.769 177.089 211.287 175.993 214.448L175.465 215.978C175.739 216.738 175.833 217.551 175.74 218.354C175.647 219.156 175.369 219.926 174.928 220.603L174.822 220.764L179.226 231.91L179.511 232.633H177.256L174.482 232.636H169.78L162.996 219.021L162.671 218.371V218.338L163.372 192.172C163.381 191.942 163.399 191.708 163.43 191.477C163.553 190.428 163.885 189.414 164.404 188.494C164.924 187.575 165.621 186.768 166.456 186.121C167.256 185.495 168.172 185.035 169.151 184.768C170.13 184.5 171.153 184.429 172.16 184.56L174.482 184.861L179.226 185.474L182.568 185.908L182.635 185.917L192.491 187.193L193.198 184.308L193.329 184.259L197.478 182.738L211.83 177.476L211.866 177.464L212.81 177.118L212.922 177.3C212.956 177.355 212.989 177.409 213.019 177.464C213.953 179.137 214.712 180.901 215.287 182.729C216.253 185.715 217.049 188.753 217.67 191.829C217.697 191.963 217.721 192.084 217.743 192.194L217.752 192.227C217.761 192.279 217.767 192.312 217.77 192.321C218.101 193.7 217.87 195.382 217.263 197.049Z" fill="#D0D0D0"/>
<path d="M217.869 187.406C217.823 187.212 217.765 187.015 217.705 186.823C217.223 185.374 216.661 183.953 216.023 182.566C215.307 180.987 214.448 179.296 213.425 177.465C212.93 176.578 212.398 175.656 211.828 174.699C211.543 174.219 211.246 173.73 210.939 173.232C210.927 173.209 210.914 173.187 210.899 173.165L210.811 173.02L196.612 174.92L191.324 175.628L191.008 178.263L190.932 178.916C190.929 178.916 190.929 178.916 190.932 178.919L190.72 180.699V180.702L190.438 183.052L190.413 183.049L182.567 182.032L174.48 180.984L170.137 180.422C169.13 180.291 168.107 180.362 167.128 180.63C166.149 180.897 165.233 181.358 164.433 181.983C163.599 182.63 162.901 183.437 162.382 184.357C161.862 185.277 161.531 186.29 161.407 187.339C161.379 187.552 161.361 187.771 161.352 187.986L157.254 197.7C154.802 203.509 153.241 209.655 152.622 215.931L149.617 225.541L150.045 225.581L156.413 226.173L158.095 226.331L161.798 220.923C162.22 220.306 162.621 219.672 162.994 219.022C163.609 217.961 164.155 216.861 164.63 215.73L172.641 196.661C173.26 196.768 173.873 196.869 174.48 196.965C177.288 197.42 179.984 197.792 182.567 198.079C190.966 199.018 198.239 199.091 204.713 198.295C206.531 198.073 208.289 197.782 209.986 197.42C210.608 197.29 211.222 197.149 211.828 196.998C211.971 196.965 212.111 196.932 212.25 196.895C213.505 196.572 214.658 195.938 215.604 195.053C216.551 194.169 217.261 193.06 217.668 191.83C218.155 190.405 218.225 188.87 217.869 187.406Z" fill="#D0D0D0"/>
<path d="M151.748 236.147L147.277 234.004L146.576 233.667L145.456 236.418L137.636 238.139C137.25 238.224 136.9 238.43 136.639 238.728C136.378 239.025 136.219 239.399 136.185 239.793C136.151 240.188 136.244 240.583 136.451 240.92C136.657 241.258 136.966 241.521 137.333 241.671L144.973 244.789L147.398 242.606L146.803 245.536L149.681 246.711L152.835 236.67L151.748 236.147Z" fill="#D0D0D0"/>
<path d="M179.226 231.91L179.512 232.633H179.226V231.91Z" fill="#2F2E41"/>
<path d="M177.669 232.787L172.984 234.411L172.249 234.665L173.388 237.408L169.043 244.135C168.827 244.468 168.724 244.86 168.748 245.255C168.772 245.651 168.921 246.028 169.175 246.332C169.428 246.636 169.772 246.851 170.156 246.946C170.541 247.041 170.945 247.01 171.311 246.858L178.933 243.697L179.121 240.438L180.759 242.939L183.63 241.749L178.808 232.394L177.669 232.787Z" fill="#D0D0D0"/>
<path d="M216.701 191.805C216.422 191.805 216.148 191.737 215.902 191.607L191.179 178.685L190.894 177.515L190.355 173.813L190.363 173.778L192.714 162.934C192.671 162.841 192.581 162.688 192.479 162.516C191.43 160.737 188.235 155.322 194.332 147.866L205.036 135.383L214.223 134.987L214.327 135.119C216.784 138.204 218.441 141.847 219.15 145.726C219.86 149.606 219.6 153.6 218.395 157.355L217.438 174.637L218.464 178.127C219.064 180.178 218.965 182.371 218.182 184.359L218.418 190.011C218.427 190.242 218.389 190.473 218.307 190.69C218.225 190.907 218.1 191.105 217.94 191.272C217.78 191.44 217.587 191.573 217.374 191.665C217.161 191.757 216.932 191.804 216.701 191.805Z" fill="#E8E5E2"/>
<path d="M195.255 206.058C195.674 205.811 196.033 205.475 196.308 205.073C196.583 204.672 196.767 204.215 196.846 203.734C196.925 203.254 196.898 202.763 196.767 202.294C196.635 201.826 196.403 201.392 196.086 201.023L202.03 190.797L195.895 191.143L191.191 200.8C190.607 201.374 190.253 202.143 190.197 202.96C190.141 203.777 190.387 204.587 190.888 205.235C191.389 205.883 192.11 206.325 192.915 206.477C193.72 206.629 194.553 206.48 195.255 206.058Z" fill="#FFB7B7"/>
<path d="M197.654 198.54L192.161 194.261L202.142 174.913L198.402 150.274C198.217 149.056 198.303 147.813 198.652 146.632C199.002 145.45 199.607 144.361 200.425 143.44C201.243 142.519 202.254 141.79 203.385 141.304C204.517 140.818 205.741 140.587 206.972 140.627C209.195 140.703 211.297 141.658 212.817 143.282C214.337 144.906 215.151 147.067 215.08 149.291L214.156 177.346L197.654 198.54Z" fill="#E8E5E2"/>
<path d="M199.143 130.196V121.102C199.141 117.87 200.422 114.77 202.705 112.483C204.988 110.196 208.086 108.91 211.316 108.908C214.547 108.906 217.646 110.188 219.932 112.472C222.218 114.756 223.504 117.854 223.506 121.086V121.102C225.653 125.577 224.31 127.705 223.506 130.196C223.505 130.629 223.332 131.045 223.026 131.352C222.719 131.659 222.304 131.831 221.87 131.832H200.779C200.345 131.831 199.929 131.659 199.623 131.352C199.316 131.045 199.143 130.63 199.143 130.196Z" fill="#2F2E41"/>
<path d="M207.33 131.241C212.366 131.241 216.449 127.157 216.449 122.12C216.449 117.082 212.366 112.998 207.33 112.998C202.294 112.998 198.212 117.082 198.212 122.12C198.212 127.157 202.294 131.241 207.33 131.241Z" fill="#FFB7B7"/>
<path d="M216.873 124.511C216.791 124.498 216.708 124.48 216.625 124.467C215.203 124.215 213.781 123.967 212.363 123.71L212.232 120.495L210.514 123.375C206.595 124.676 202.928 123.941 199.479 122.318C198.341 121.778 197.237 121.169 196.173 120.495C196.463 118.716 197.147 117.025 198.174 115.545C199.201 114.065 200.546 112.834 202.111 111.941C202.241 111.867 202.367 111.801 202.498 111.736L202.499 111.736L202.501 111.735L202.502 111.733L202.502 111.732C202.724 111.627 202.95 111.527 203.176 111.436C204.947 110.744 206.878 110.568 208.744 110.93C210.611 111.292 212.336 112.177 213.72 113.481C216.503 116.139 217.756 120.53 216.873 124.511Z" fill="#2F2E41"/>
</g>
<defs>
<clipPath id="clip0_262_1378">
<rect width="264" height="247" fill="white"/>
</clipPath>
</defs>
</svg>
