<svg width="307" height="228" viewBox="0 0 307 228" fill="none" xmlns="http://www.w3.org/2000/svg">
<g clip-path="url(#clip0_262_1383)">
<path d="M277.989 226.944H212.894V224.941C212.894 223.202 213.583 221.535 214.81 220.305C216.036 219.076 217.699 218.385 219.434 218.385H271.449C273.184 218.385 274.847 219.076 276.073 220.305C277.3 221.535 277.989 223.202 277.989 224.941V226.944Z" fill="#E6E6E6"/>
<path d="M243.918 218.785L245.898 217.985C225.185 166.441 227.181 101.414 244.69 45.6324C246.769 39.1692 246.919 32.2376 245.121 25.6901C243.323 19.1426 239.655 13.265 234.568 8.7803C224.405 -0.311973 210.395 -2.52693 198.001 2.99922C185.768 8.45485 184.082 17.9577 184.082 27.4144H186.216C186.216 17.3199 188.368 9.63729 198.869 4.95428C210.484 -0.224733 223.618 1.85257 233.147 10.377C237.925 14.5891 241.37 20.1095 243.059 26.2592C244.748 32.4088 244.607 38.9194 242.654 44.9898C224.943 101.416 223.064 166.889 243.918 218.785Z" fill="#E6E6E6"/>
<path d="M185.683 58.9752C189.808 58.9752 193.153 55.6222 193.153 51.4861C193.153 47.35 189.808 43.9971 185.683 43.9971C181.557 43.9971 178.213 47.35 178.213 51.4861C178.213 55.6222 181.557 58.9752 185.683 58.9752Z" fill="#E6E6E6"/>
<path d="M174.179 64.542V50.3521H176.38V64.542C177.011 64.798 177.534 65.2662 177.858 65.8663C178.183 66.4664 178.29 67.161 178.159 67.8312C178.029 68.5013 177.671 69.1053 177.145 69.5395C176.62 69.9737 175.96 70.2111 175.279 70.2111C174.598 70.2111 173.938 69.9737 173.413 69.5395C172.887 69.1053 172.529 68.5013 172.399 67.8312C172.269 67.161 172.375 66.4664 172.7 65.8663C173.025 65.2662 173.547 64.798 174.179 64.542Z" fill="#E6E6E6"/>
<path d="M163.54 39.4504C163.544 36.1885 164.838 33.0612 167.138 30.7547C169.439 28.4481 172.558 27.1507 175.812 27.147H196.087C199.342 27.147 202.463 28.4432 204.765 30.7506C207.066 33.0579 208.359 36.1873 208.359 39.4504C208.359 42.7135 207.066 45.8429 204.765 48.1503C202.463 50.4576 199.342 51.7539 196.087 51.7539H175.812C172.558 51.7501 169.439 50.4527 167.138 48.1462C164.838 45.8396 163.544 42.7123 163.54 39.4504Z" fill="#E8E5E2"/>
<path d="M134.973 115.641C137.009 89.5293 147.417 77.0885 140.752 69.2868C134.369 61.8136 116.386 63.3574 104.838 70.5284C73.6883 89.8703 62.2764 166.96 102.361 204.624C140.451 240.414 212.639 228.951 228.682 199.657C232.425 192.822 235.399 180.84 229.92 173.583C216.319 155.567 166.867 188.199 144.881 167.789C131.85 155.693 133.856 129.971 134.973 115.641Z" fill="#BBBABA"/>
<path d="M158.784 102.669C158.027 103.018 157.436 103.649 157.137 104.428C156.837 105.207 156.853 106.072 157.18 106.84C157.249 106.995 157.331 107.144 157.424 107.286L150.738 116.236L154.074 121.235L161.911 107.981C162.466 107.547 162.863 106.941 163.038 106.258C163.213 105.574 163.158 104.851 162.881 104.202C162.72 103.835 162.488 103.502 162.198 103.225C161.909 102.947 161.568 102.729 161.195 102.583C160.821 102.438 160.423 102.367 160.022 102.376C159.622 102.384 159.227 102.472 158.86 102.634C158.834 102.645 158.809 102.657 158.784 102.669Z" fill="#FFB6B6"/>
<path d="M158.778 118.1C159.216 118.489 158.002 118.969 156.718 118.211C156.351 117.992 156.194 117.901 156.153 117.959C156.049 118.104 156.652 119.172 156.491 121.543C156.392 122.959 154.047 125.62 151.385 128.215C147.785 131.724 143.599 135.11 143.599 135.11L142.129 133.93L126.719 121.543L124.118 117.934C124.356 116.509 124.714 115.106 125.187 113.742C125.839 111.852 126.614 110.008 127.507 108.221C127.986 107.248 128.478 106.321 128.948 105.468L137.204 114.59L144.123 122.23C144.123 122.23 146.138 118.977 147.698 118.091C147.897 117.964 148.124 117.886 148.359 117.864C149.936 117.789 150.031 116.928 148.202 115.054C146.373 113.179 148.681 114.929 150.307 114.425C151.934 113.92 150.307 114.425 150.65 113.162C150.992 111.9 155.554 109.367 155.554 109.367L155.744 109.537L159.191 112.587L160.178 113.46C160.178 113.46 159.1 116.424 158.803 117.048C158.506 117.673 158.345 117.707 158.778 118.1Z" fill="#E8E5E2"/>
<path d="M249.646 175.593L249.814 171.028L232.331 168.206L232.083 174.943L249.646 175.593Z" fill="#FFB6B6"/>
<path d="M246.472 176.968L246.307 169.658L249.423 169.774L254.455 163.016C254.704 162.683 255.052 162.437 255.449 162.316C255.847 162.195 256.273 162.204 256.664 162.343C257.056 162.481 257.393 162.742 257.627 163.086C257.861 163.43 257.979 163.841 257.963 164.257L257.644 172.94L254.506 174.322L257.567 175.021L257.447 178.295L246.472 176.968Z" fill="#C3C1C1"/>
<path d="M151.248 177.371L206.624 178.779C206.624 178.779 230.537 180.163 236.148 176.504L242.064 175.755L242.385 167.042C242.385 167.042 238.767 167.069 236.687 166.097C234.607 165.125 236.052 163.936 234.069 165.106C232.086 166.275 232.295 166.415 230.762 165.878C229.229 165.341 158.912 154.595 158.912 154.595L151.248 177.371Z" fill="#D0D0D0"/>
<path d="M224.219 173.59L227.439 170.358L216.537 156.367L211.784 161.138L224.219 173.59Z" fill="#FFB6B6"/>
<path d="M220.96 170.778L225.797 165.307L228.004 167.516L236.276 165.994C236.685 165.918 237.107 165.976 237.48 166.158C237.854 166.34 238.16 166.638 238.353 167.006C238.546 167.375 238.617 167.796 238.555 168.208C238.492 168.619 238.3 169 238.007 169.295L231.882 175.443L228.644 174.316L230.414 176.916L228.105 179.234L220.96 170.778Z" fill="#C3C1C1"/>
<path d="M129.4 146.965L129.95 159.795C130.599 174.899 147.189 184.04 160.054 176.154C160.291 176.009 160.529 175.859 160.768 175.703C160.768 175.703 165.645 174.39 165.497 172.31C165.349 170.231 166.54 169.219 167.595 169.786C168.649 170.353 182.454 150.71 182.454 150.71C182.454 150.71 211.138 165.054 217.465 168.431C217.465 168.431 223.414 159.105 222.983 159.203C222.552 159.301 187.499 134.704 187.499 134.704C187.499 134.704 181.788 128.909 174.705 132.735C174.557 133.297 174.683 133.317 174.683 133.317L151.283 152.433L147.977 146.138L129.4 146.965Z" fill="#D0D0D0"/>
<path d="M151.463 130.926C151.419 131.518 151.335 132.107 151.212 132.689C151.043 133.53 150.771 134.348 150.402 135.122C150.402 135.122 150.402 135.987 148.751 138.884C147.1 141.782 149.164 140.54 150.402 142.692C151.641 144.84 150.402 143.851 149.028 145.233C148.632 145.636 148.351 146.137 148.214 146.685C148.076 147.233 148.088 147.808 148.247 148.35C148.247 148.35 130.513 148.362 127.21 147.121C123.908 145.879 123.157 138.884 126.116 138.193C129.072 137.502 125.221 136.815 123.483 135.222C121.745 133.628 125.221 131.021 125.221 131.021C125.221 131.021 123.788 128.542 123.908 120.219C123.925 119.453 123.995 118.69 124.118 117.934C124.357 116.509 124.714 115.106 125.188 113.742C125.84 111.852 126.615 110.008 127.508 108.22C127.987 107.248 128.478 106.321 128.948 105.468C129.023 105.336 129.093 105.207 129.167 105.079C130.063 103.49 130.88 102.19 131.421 101.358C131.838 100.713 132.09 100.349 132.09 100.349L135.095 95.1089L145.127 99.8229L144.557 107.533L146.287 113.348L147.083 116.026L147.698 118.091L148.648 121.291C148.648 121.291 148.388 121.303 148.697 121.729C150.123 123.63 151.048 125.861 151.385 128.215C151.504 129.113 151.53 130.022 151.463 130.926Z" fill="#E8E5E2"/>
<path d="M180.433 131.757L180.245 131.696L156.235 123.945L165.082 94.8443C165.259 94.2648 165.564 93.733 165.975 93.2889C166.386 92.8448 166.892 92.5 167.455 92.2806C168.018 92.0612 168.624 91.9728 169.226 92.0221C169.828 92.0714 170.411 92.2571 170.932 92.5652L186.275 101.653C187.489 102.372 188.413 103.496 188.886 104.828C189.358 106.16 189.348 107.617 188.857 108.942L180.433 131.757Z" fill="#2F2E41"/>
<path d="M180.53 133.607L156.327 125.793L165.175 96.6924C165.351 96.1129 165.656 95.5811 166.067 95.137C166.478 94.693 166.984 94.3482 167.547 94.1288C168.11 93.9093 168.716 93.8209 169.318 93.8702C169.921 93.9195 170.504 94.1052 171.024 94.4134L187.1 102.46C189.515 103.89 189.458 107.592 188.337 110.629L180.53 133.607Z" fill="#E8E5E2"/>
<path d="M178.107 135.713C177.55 136.028 176.933 136.224 176.296 136.287C175.659 136.351 175.016 136.281 174.408 136.082L158.938 131.087C157.751 130.699 156.763 129.86 156.184 128.75C155.606 127.641 155.483 126.349 155.842 125.15L163.598 99.6399C163.753 99.1302 164.008 98.6567 164.348 98.2471C164.688 97.8376 165.106 97.5002 165.577 97.2547C166.049 97.0092 166.565 96.8607 167.095 96.8177C167.624 96.7748 168.157 96.8383 168.662 97.0045L184.694 102.282C185.458 102.533 186.164 102.936 186.77 103.465C187.376 103.995 187.87 104.641 188.223 105.365C188.576 106.089 188.781 106.877 188.825 107.682C188.869 108.486 188.752 109.292 188.481 110.051L180.188 133.229C179.816 134.282 179.077 135.164 178.107 135.713Z" fill="#3F3D56"/>
<path d="M144.559 95.1985C150.679 95.1985 155.64 90.2249 155.64 84.0897C155.64 77.9545 150.679 72.981 144.559 72.981C138.44 72.981 133.479 77.9545 133.479 84.0897C133.479 90.2249 138.44 95.1985 144.559 95.1985Z" fill="#FFB6B6"/>
<path d="M107.091 95.3657C108.108 97.3418 109.775 98.9044 111.81 99.7885C112.622 100.159 113.476 100.43 114.353 100.595C114.601 99.6097 114.998 98.6679 115.53 97.8025C115.352 98.7779 115.352 99.7773 115.53 100.753C116.866 100.862 118.21 100.695 119.479 100.261C120.725 99.8362 121.856 99.126 122.78 98.1868C123.705 97.2476 124.399 96.1053 124.806 94.8505C125.689 91.9059 124.738 88.7608 124.663 85.6873C124.586 82.6133 126.042 78.9368 129.086 78.5565C131.404 78.2664 131.117 78.4916 132.783 80.1333C130.453 82.728 136.132 94.2199 139.18 93.7121C140.903 93.425 142.171 92.0535 142.512 92.1011C144.257 96.3857 139.008 102.462 143.171 104.457L142.862 104.047C140.683 100.438 147.131 94.3418 144.952 90.7324C144.344 89.7227 143.713 88.5389 144.089 87.4219C144.445 86.3599 146.252 86.0238 146.633 86.9904C146.014 84.775 147.743 82.1746 150.041 81.9485C152.082 81.7466 151.964 82.3299 153.91 82.8621C154.159 82.0216 154.518 81.2177 154.976 80.4713C154.821 81.3228 154.802 82.1937 154.92 83.0513C155.621 83.1353 156.331 82.9846 156.939 82.6227C158.736 81.5426 158.79 78.7545 157.555 77.0575C156.318 75.3603 154.247 74.5223 152.248 73.8882C152.23 69.6506 140.856 67.622 138.765 71.5618C138.55 68.3718 134.902 66.2229 131.76 66.7648C128.618 67.3067 126.139 69.8325 124.628 72.6479C123.117 75.461 122.367 78.6109 121.261 81.6074C120.155 84.6038 118.574 87.5917 115.925 89.3695C113.277 91.1451 109.341 91.3064 107.13 89.005C106.625 89.9876 106.359 91.0756 106.352 92.1807C106.345 93.2858 106.599 94.377 107.091 95.3657Z" fill="#2F2E41"/>
<path d="M118.46 146.166C118.69 145.982 118.938 145.824 119.202 145.695C123.443 143.579 136.632 138.086 146.944 138.311C166.787 138.745 192.039 160.699 186.162 175.443C181.69 186.661 159.458 193.044 143.229 187.939C120.494 180.788 111.52 151.713 118.46 146.166Z" fill="#AFAFAF"/>
<path d="M36.0865 226.986C29.6028 225.76 23.8636 196.475 36.6201 182.052C40.9906 177.111 46.4423 174.96 53.6941 172.958C95.4328 161.438 127.268 172.417 131.546 175.098C135.814 177.773 143.297 218.072 133.728 223.777C128.344 226.986 117.673 228.591 112.386 224.847C104.606 219.337 117.665 205.045 111.852 195.425C105.257 184.509 70.525 180.832 53.1122 191.681C34.5344 203.256 72.8539 233.94 36.0865 226.986Z" fill="#F2F2F2"/>
<path d="M79.4352 177.195H54.6653C48.5506 171.32 44.1786 165.658 47.6789 160.958C47.6789 159.607 48.2142 158.311 49.167 157.356C50.1199 156.4 51.4123 155.864 52.7599 155.864H81.3406C82.6882 155.864 83.9806 156.4 84.9334 157.356C85.8863 158.311 86.4216 159.607 86.4216 160.958C87.7543 166.313 85.3734 171.726 79.4352 177.195Z" fill="#CCCCCC"/>
<path d="M74.9868 149.451C74.7518 149.462 74.5191 149.4 74.3203 149.274C74.1215 149.148 73.9663 148.963 73.8755 148.746C73.7847 148.528 73.7629 148.288 73.8129 148.057C73.8629 147.827 73.9824 147.617 74.1552 147.457L74.2338 147.144C74.2235 147.119 74.2131 147.094 74.2026 147.069C73.9658 146.508 73.5691 146.03 73.0622 145.695C72.5553 145.359 71.9609 145.181 71.3536 145.184C70.7463 145.186 70.1532 145.368 69.6488 145.707C69.1445 146.046 68.7513 146.527 68.5187 147.09C67.589 149.335 66.4054 151.583 66.114 153.957C65.9857 155.006 66.0398 156.069 66.274 157.1C64.0906 152.325 62.9568 147.134 62.9495 141.881C62.949 140.563 63.0221 139.246 63.1683 137.936C63.2891 136.862 63.4568 135.796 63.6712 134.737C64.8415 128.993 67.3542 123.609 71.0029 119.028C72.7688 118.062 74.197 116.576 75.0948 114.772C75.4201 114.123 75.65 113.43 75.7774 112.715C75.5782 112.742 75.0263 109.7 75.1765 109.513C74.8989 109.091 74.402 108.881 74.0988 108.469C72.5909 106.419 70.5133 106.777 69.4288 109.562C67.1119 110.735 67.0894 112.679 68.5111 114.549C69.4155 115.739 69.5398 117.348 70.3334 118.622C70.2517 118.727 70.1668 118.828 70.0852 118.933C68.5927 120.857 67.2919 122.923 66.2015 125.102C66.4666 122.661 66.1501 120.192 65.278 117.898C64.3941 115.761 62.7373 113.96 61.2783 112.112C59.5258 109.892 55.9321 110.861 55.6234 113.675C55.6204 113.702 55.6175 113.729 55.6146 113.757C55.8313 113.879 56.0435 114.009 56.251 114.147C56.5118 114.322 56.7138 114.571 56.8307 114.863C56.9476 115.155 56.9738 115.475 56.906 115.782C56.8381 116.089 56.6794 116.368 56.4505 116.583C56.2217 116.798 55.9334 116.939 55.6235 116.987L55.5918 116.991C55.669 117.774 55.8054 118.551 56 119.313C54.1283 126.57 58.1692 129.213 63.939 129.332C64.0664 129.397 64.1905 129.463 64.3179 129.525C63.2223 132.638 62.5351 135.88 62.2735 139.17C62.1254 141.112 62.1342 143.062 62.2996 145.002L62.2898 144.933C61.8718 142.776 60.724 140.83 59.0404 139.423C56.5398 137.363 53.0069 136.605 50.3091 134.949C50.0224 134.765 49.6891 134.666 49.3484 134.666C49.0076 134.665 48.6738 134.762 48.3862 134.945C48.0986 135.128 47.8693 135.39 47.7252 135.699C47.5811 136.009 47.5283 136.353 47.5731 136.692C47.5767 136.716 47.5804 136.74 47.5841 136.764C47.9863 136.928 48.3778 137.117 48.7565 137.33C48.9732 137.453 49.1854 137.583 49.3929 137.721C49.6537 137.895 49.8557 138.145 49.9726 138.437C50.0894 138.728 50.1157 139.049 50.0478 139.356C49.98 139.663 49.8213 139.942 49.5924 140.157C49.3636 140.372 49.0753 140.512 48.7654 140.56L48.7336 140.565C48.7108 140.569 48.6912 140.572 48.6684 140.575C49.3555 142.22 50.3199 143.734 51.5194 145.051C52.6897 151.386 57.7163 151.987 63.0932 150.142H63.0965C63.6864 152.712 64.5412 155.214 65.647 157.607H74.7585C74.7912 157.506 74.8205 157.401 74.85 157.299C74.0066 157.353 73.1599 157.302 72.3288 157.149C73.0048 156.317 73.6808 155.479 74.3568 154.647C74.3719 154.632 74.3861 154.615 74.3993 154.598C74.7422 154.173 75.0883 153.75 75.4312 153.325L75.4314 153.324C75.4497 152.019 75.3001 150.718 74.9868 149.451Z" fill="#CCCCCC"/>
<path d="M106.064 175.865C106.216 176.306 106.502 176.688 106.883 176.955C107.264 177.223 107.72 177.362 108.185 177.354L117.272 177.12C117.741 177.11 118.194 176.95 118.564 176.661C118.933 176.372 119.2 175.971 119.324 175.518L120.61 161.733C121.066 161.94 121.562 162.042 122.063 162.032C122.942 162.01 123.776 161.639 124.381 161C124.987 160.362 125.315 159.508 125.293 158.627C125.271 157.746 124.901 156.91 124.264 156.303C123.627 155.696 122.775 155.367 121.897 155.389C121.697 155.389 121.497 155.409 121.301 155.451C121.088 155.22 120.83 155.037 120.542 154.912C120.254 154.788 119.943 154.725 119.63 154.728L105.652 155.09C105.536 155.094 105.42 155.109 105.307 155.133C105 155.19 104.71 155.313 104.454 155.492C104.199 155.671 103.985 155.904 103.826 156.173C103.668 156.442 103.569 156.742 103.536 157.053C103.503 157.364 103.537 157.678 103.635 157.975L106.064 175.865ZM120.873 160.797L121.788 157.511C121.892 157.132 121.895 156.732 121.795 156.351C121.84 156.351 121.879 156.33 121.923 156.33C122.551 156.317 123.157 156.554 123.611 156.989C124.064 157.424 124.327 158.021 124.341 158.65C124.356 159.279 124.121 159.888 123.689 160.344C123.256 160.799 122.661 161.065 122.034 161.081C121.629 161.094 121.227 160.996 120.873 160.797Z" fill="#CCCCCC"/>
<path d="M105.307 155.133C105.604 156.84 108.953 158.04 112.978 157.831C116.68 157.66 119.707 156.357 120.262 154.813C120.057 154.752 119.843 154.723 119.629 154.728L105.651 155.09C105.535 155.094 105.42 155.109 105.307 155.133Z" fill="white"/>
<path d="M0.486648 227.633L306.513 227.758C306.642 227.758 306.766 227.707 306.857 227.616C306.949 227.524 307 227.4 307 227.271C307 227.141 306.949 227.017 306.857 226.926C306.766 226.834 306.642 226.783 306.513 226.783L0.486648 226.657C0.357581 226.657 0.2338 226.708 0.142536 226.8C0.051271 226.891 0 227.015 0 227.145C0 227.274 0.051271 227.398 0.142536 227.49C0.2338 227.581 0.357581 227.633 0.486648 227.633Z" fill="#CACACA"/>
<path d="M172.128 118.592C171.295 118.622 170.508 118.977 169.933 119.581C169.357 120.184 169.04 120.989 169.047 121.824C169.052 121.994 169.07 122.163 169.102 122.33L159.498 128.014L160.66 133.915L172.977 124.702C173.656 124.515 174.254 124.108 174.678 123.545C175.103 122.981 175.329 122.293 175.322 121.587C175.314 121.185 175.227 120.789 175.067 120.421C174.906 120.053 174.675 119.721 174.386 119.442C174.097 119.164 173.756 118.945 173.383 118.799C173.01 118.652 172.612 118.581 172.211 118.589C172.183 118.59 172.155 118.59 172.128 118.592Z" fill="#FFB6B6"/>
<path d="M164.26 132.144C164.003 131.799 163.893 131.655 163.834 131.694C163.684 131.785 163.828 133.004 162.771 135.129C161.282 138.114 145.668 142.686 145.668 142.686L143.746 139.158L135.291 123.653L132.376 111.224C132.274 110.791 132.225 110.347 132.229 109.902C134.827 108.069 137.587 106.476 140.473 105.144C141.626 105.8 142.506 106.85 142.95 108.103L148.771 124.464L151.093 130.997C151.093 130.997 155.19 128.06 156.676 128.599C158.16 129.141 158.582 128.381 157.612 125.946C156.642 123.511 158.098 126.017 159.792 126.176C161.489 126.338 159.792 126.176 160.594 125.143C161.395 124.11 166.579 123.529 166.579 123.529L166.689 123.759L168.698 127.902L169.273 129.092C169.273 129.092 167.143 131.409 166.63 131.871C166.113 132.336 165.954 132.303 166.207 132.833C166.456 133.361 165.152 133.337 164.26 132.144Z" fill="#E8E5E2"/>
</g>
<defs>
<clipPath id="clip0_262_1383">
<rect width="307" height="228" fill="white"/>
</clipPath>
</defs>
</svg>
